<svg width="20" height="20" viewBox="0 0 20 20" fill="none" xmlns="http://www.w3.org/2000/svg">
<path d="M15 12.4997V18.0747C15.0004 18.2671 14.9563 18.457 14.8713 18.6297C14.7862 18.8023 14.6624 18.9529 14.5096 19.0699C14.3568 19.1868 14.179 19.2669 13.9902 19.3038C13.8013 19.3408 13.6065 19.3337 13.4208 19.283L10.4167 18.4622L10.1083 18.3788C10.0376 18.358 9.96239 18.358 9.89167 18.3788L9.58334 18.4622L6.57917 19.283C6.47037 19.3115 6.3583 19.3255 6.24584 19.3247C6.08188 19.3247 5.91954 19.2923 5.76812 19.2294C5.61669 19.1666 5.47917 19.0744 5.36343 18.9583C5.24769 18.8422 5.15601 18.7043 5.09364 18.5527C5.03128 18.4011 4.99946 18.2386 5.00001 18.0747V12.4997C5.00001 12.3892 5.04391 12.2832 5.12205 12.205C5.20019 12.1269 5.30617 12.083 5.41667 12.083H14.5833C14.6938 12.083 14.7998 12.1269 14.878 12.205C14.9561 12.2832 15 12.3892 15 12.4997Z" fill="#FF746A"/>
<path d="M10.4173 15.0417V18.4625L10.109 18.3792C10.0383 18.3583 9.96304 18.3583 9.89232 18.3792L9.58398 18.4625V15.0417C9.58398 14.9312 9.62788 14.8252 9.70602 14.747C9.78416 14.6689 9.89014 14.625 10.0007 14.625C10.1112 14.625 10.2171 14.6689 10.2953 14.747C10.3734 14.8252 10.4173 14.9312 10.4173 15.0417Z" fill="#F4F4F4"/>
<path d="M9.99935 16.2497C13.9114 16.2497 17.0827 13.0784 17.0827 9.16634C17.0827 5.25432 13.9114 2.08301 9.99935 2.08301C6.08733 2.08301 2.91602 5.25432 2.91602 9.16634C2.91602 13.0784 6.08733 16.2497 9.99935 16.2497Z" fill="#FBBB2D"/>
<path d="M10 14.167C12.7614 14.167 15 11.9284 15 9.16699C15 6.40557 12.7614 4.16699 10 4.16699C7.23858 4.16699 5 6.40557 5 9.16699C5 11.9284 7.23858 14.167 10 14.167Z" fill="#FFDE7A"/>
<path d="M12.8608 8.16057C12.7902 7.93531 12.649 7.73878 12.458 7.60009C12.267 7.4614 12.0364 7.38793 11.8004 7.39057H11.5054C11.4269 7.39074 11.3503 7.36598 11.2868 7.31984C11.2233 7.27371 11.1761 7.2086 11.152 7.1339L11.0608 6.85307C10.988 6.62924 10.8463 6.43418 10.6559 6.29584C10.4654 6.15751 10.2361 6.08301 10.0008 6.08301C9.76541 6.08301 9.53609 6.15751 9.34567 6.29584C9.15526 6.43418 9.01352 6.62924 8.94077 6.85307L8.84952 7.1339C8.82541 7.2086 8.7782 7.27371 8.7147 7.31984C8.65119 7.36598 8.57468 7.39074 8.49618 7.39057H8.20118C7.9657 7.39034 7.7362 7.46473 7.54563 7.60306C7.35505 7.74138 7.21321 7.93653 7.14045 8.16049C7.06769 8.38446 7.06777 8.62571 7.14066 8.84963C7.21356 9.07355 7.35552 9.26861 7.54618 9.40682L7.78493 9.57974C7.84866 9.62594 7.89607 9.69119 7.92033 9.76607C7.94459 9.84095 7.94445 9.9216 7.91993 9.9964L7.82827 10.2777C7.75575 10.5015 7.75594 10.7426 7.8288 10.9664C7.90167 11.1902 8.04347 11.3852 8.23391 11.5235C8.42435 11.6617 8.65366 11.7362 8.889 11.7362C9.12435 11.7362 9.35366 11.6618 9.5441 11.5235L9.78202 11.3502C9.84549 11.3041 9.92192 11.2793 10.0004 11.2793C10.0788 11.2793 10.1552 11.3041 10.2187 11.3502L10.4578 11.5239C10.6472 11.6648 10.877 11.7409 11.1131 11.7409C11.3491 11.7409 11.5789 11.6648 11.7683 11.5239C11.9607 11.3872 12.1039 11.1922 12.1769 10.9678C12.2498 10.7433 12.2486 10.5013 12.1733 10.2777L12.0816 9.99724C12.057 9.92248 12.0568 9.84186 12.081 9.76698C12.1052 9.6921 12.1525 9.62683 12.2162 9.58057L12.4558 9.40682C12.6483 9.27022 12.7916 9.07523 12.8646 8.85074C12.9375 8.62625 12.9362 8.38423 12.8608 8.16057Z" fill="#FBBB2D"/>
</svg>
