<svg width="20" height="20" viewBox="0 0 20 20" fill="none" xmlns="http://www.w3.org/2000/svg">
<path d="M11.4401 2.92715L12.9068 5.86048C13.1068 6.26882 13.6401 6.66048 14.0901 6.73548L16.7485 7.17715C18.4485 7.46048 18.8485 8.69381 17.6235 9.91048L15.5568 11.9771C15.2068 12.3271 15.0151 13.0021 15.1235 13.4855L15.7151 16.0438C16.1818 18.0688 15.1068 18.8521 13.3151 17.7938L10.8235 16.3188C10.3735 16.0521 9.63179 16.0521 9.17346 16.3188L6.68179 17.7938C4.89846 18.8521 3.81513 18.0605 4.28179 16.0438L4.87346 13.4855C4.98179 13.0021 4.79013 12.3271 4.44013 11.9771L2.37346 9.91048C1.15679 8.69381 1.54846 7.46048 3.24846 7.17715L5.90679 6.73548C6.34846 6.66048 6.88179 6.26882 7.08179 5.86048L8.54846 2.92715C9.34846 1.33548 10.6485 1.33548 11.4401 2.92715Z" fill="#FFCB2F" stroke="#FFCB2F" stroke-width="1.25" stroke-linecap="round" stroke-linejoin="round"/>
</svg>
