<svg width="109" height="107" viewBox="0 0 109 107" fill="none" xmlns="http://www.w3.org/2000/svg">
<path d="M42.6841 0.447844C42.6841 0.447844 5.83169 2.05197 3.74081 34.5147C1.64992 66.9774 -8.02061 97.8645 15.5022 99.7082C39.025 101.552 94.1728 105.133 102.014 85.7934C109.855 66.4536 113.775 -6.36228 42.6841 0.447844Z" fill="#F4F7FA"/>
<path d="M48.8442 97.1294C48.2404 94.0802 47.7967 89.3022 50.1512 84.9411C54.2589 77.3328 62.2597 79.5567 69.5867 71.3118C75.4964 64.6619 73.4089 59.7074 80.0486 55.2012C81.16 54.4469 87.0273 50.3041 91.5602 52.541C94.1145 53.8015 95.1123 56.5253 95.2996 57.0366C98.1308 64.7645 90.5781 77.2475 80.4037 83.172C74.5581 86.5759 72.6055 85.5871 62.2577 89.6701C56.1773 92.0692 51.6496 95.0528 48.8442 97.1294Z" fill="url(#paint0_linear_111_6684)"/>
<mask id="mask0_111_6684" style="mask-type:luminance" maskUnits="userSpaceOnUse" x="48" y="51" width="48" height="47">
<path d="M48.8442 97.1294C48.2404 94.0802 47.7967 89.3022 50.1512 84.9411C54.2589 77.3328 62.2597 79.5567 69.5867 71.3118C75.4964 64.6619 73.4089 59.7074 80.0486 55.2012C81.16 54.4469 87.0273 50.3041 91.5602 52.541C94.1145 53.8015 95.1123 56.5253 95.2996 57.0366C98.1308 64.7645 90.5781 77.2475 80.4037 83.172C74.5581 86.5759 72.6055 85.5871 62.2577 89.6701C56.1773 92.0692 51.6496 95.0528 48.8442 97.1294Z" fill="white"/>
</mask>
<g mask="url(#mask0_111_6684)">
<path d="M48.0808 100.847L47.9442 100.823C49.2338 93.4437 51.9674 88.4255 56.0689 85.908C58.0773 84.6752 59.6996 84.4385 61.4171 84.1879C63.2613 83.9188 65.1683 83.6406 67.6452 82.0299C70.0521 80.4647 70.8866 79.0048 71.9431 77.1564C72.8946 75.4918 74.0787 73.4202 76.7959 70.6241C79.1772 68.1733 80.9309 67.0059 82.4782 65.976C84.1527 64.8614 85.4752 63.9812 86.9716 61.8812C89.4162 58.4505 90.6128 54.1132 90.5279 48.9899L90.6667 48.9874C90.7521 54.1413 89.547 58.5065 87.0845 61.9619C85.5733 64.0828 84.2414 64.9693 82.5552 66.0918C81.0137 67.1179 79.2664 68.2809 76.8953 70.7209C74.1905 73.5045 73.0112 75.5676 72.0636 77.2255C70.9978 79.0901 70.1559 80.5631 67.7208 82.1464C65.2184 83.7737 63.2961 84.0542 61.4372 84.3254C59.7341 84.574 58.1256 84.8087 56.1414 86.0264C52.0753 88.5223 49.3634 93.5088 48.0808 100.847Z" fill="white"/>
<path d="M81.7511 66.5538L81.7774 66.4646C81.8077 66.3613 84.7647 56.0934 80.8955 52.0152L80.996 51.9194C84.7251 55.8498 82.2204 65.3862 81.9357 66.4143C87.493 66.3816 91.5552 64.1436 93.9887 62.2659C96.6396 60.2204 97.9808 58.1531 97.9941 58.1324L98.1108 58.2075C98.0974 58.2284 96.7431 60.3159 94.0732 62.3761C91.6093 64.2773 87.4876 66.5453 81.844 66.5537L81.7511 66.5538Z" fill="white"/>
<path d="M82.3742 75.2075C81.813 75.2075 81.2813 75.1885 80.7841 75.1565C76.879 74.9058 74.2006 73.8249 74.174 73.8139L74.1188 73.7913L74.1328 73.7333C75.4251 68.3865 73.8948 60.8857 73.8792 60.8105L74.0151 60.7821C74.0307 60.8573 75.5561 68.3342 74.282 73.7069C74.683 73.8612 77.2227 74.7892 80.7983 75.0181C84.381 75.2478 89.7656 74.8017 95.0771 71.3765L95.1523 71.4934C90.5442 74.465 85.8818 75.2075 82.3742 75.2075Z" fill="white"/>
<path d="M77.8086 87.7323C73.2699 87.7323 69.713 86.8611 67.4279 86.0751C64.6089 85.1054 63.0605 84.0509 63.0452 84.0403L62.985 83.9988L63.0294 83.9406C66.8887 78.902 65.0646 70.8377 65.0458 70.7568L65.181 70.7252C65.1999 70.8063 67.0238 78.8718 63.1848 83.9657C63.8494 84.3936 69.8745 88.0686 79.7283 87.5416L79.7358 87.6803C79.0755 87.7158 78.4324 87.7323 77.8086 87.7323Z" fill="white"/>
</g>
<path d="M49.5466 92.4203C51.4674 90.942 54.62 88.7906 58.8994 87.1151C66.511 84.1348 70.0906 85.6346 73.2457 82.2703C76.5117 78.7878 74.2204 75.5341 78.1392 71.6365C78.4687 71.3088 82.6798 67.2283 86.6501 68.5704C89.4276 69.5093 90.596 72.5979 91.1442 74.0471C93.2719 79.6715 92.4169 88.3728 86.4962 92.8408C80.8828 97.0769 73.5505 95.3785 71.222 94.8229C67.1371 93.8482 66.1269 92.298 61.9781 91.4301C56.9327 90.3746 52.4614 91.4193 49.5466 92.4203Z" fill="url(#paint1_linear_111_6684)"/>
<path d="M49.7615 72.2266C51.2122 68.2341 52.7543 62.1175 51.3975 55.2284C49.8395 47.3178 45.8832 45.6184 42.5538 37.1093C37.8013 24.9628 43.8899 16.4694 38.6909 12.637C36.1556 10.7681 32.0791 10.6361 29.5086 12.3486C22.1748 17.2344 23.4293 39.5789 34.5285 48.6381C39.5484 52.7354 44.0532 52.4126 47.7519 57.6249C51.0202 62.2306 50.5633 68.154 49.7615 72.2266Z" fill="url(#paint2_linear_111_6684)"/>
<mask id="mask1_111_6684" style="mask-type:luminance" maskUnits="userSpaceOnUse" x="24" y="11" width="28" height="62">
<path d="M49.7615 72.2266C51.2122 68.2341 52.7543 62.1175 51.3975 55.2284C49.8395 47.3178 45.8832 45.6184 42.5538 37.1093C37.8013 24.9628 43.8899 16.4694 38.6909 12.637C36.1556 10.7681 32.0791 10.6361 29.5086 12.3486C22.1748 17.2344 23.4293 39.5789 34.5285 48.6381C39.5484 52.7354 44.0532 52.4126 47.7519 57.6249C51.0202 62.2306 50.5633 68.154 49.7615 72.2266Z" fill="white"/>
</mask>
<g mask="url(#mask1_111_6684)">
<path d="M50.8891 62.1012C50.5124 60.3911 49.9861 58.7055 49.3249 57.0907C47.8056 53.3809 46.0642 51.3111 43.8593 48.6907C42.4201 46.9802 40.7889 45.0414 38.9204 42.2767C35.4245 37.1036 34.3461 35.2911 33.4205 32.3953C31.5889 26.665 32.0601 21.5949 32.5041 19.0827C33.1338 15.5191 34.442 12.1505 36.392 9.07039L36.5092 9.1449C34.5689 12.2096 33.2674 15.5612 32.6407 19.107C32.199 21.6065 31.7302 26.6511 33.5528 32.3529C34.4731 35.232 35.5482 37.0387 39.0354 42.1987C40.8998 44.9574 42.5284 46.8932 43.9655 48.6011C46.1781 51.2308 47.9258 53.308 49.4534 57.038C50.1175 58.66 50.6461 60.3535 51.0246 62.0712L50.8891 62.1012Z" fill="white"/>
<path d="M32.5754 28.3694L32.4768 28.3116C32.4559 28.2993 30.3688 27.0617 28.5572 24.6211C26.8846 22.3677 25.1092 18.5981 26.1503 13.4368L26.2864 13.4643C25.2554 18.5754 27.0127 22.3075 28.6686 24.5382C30.2404 26.6558 32.0177 27.8569 32.449 28.1309C32.7028 23.9936 35.44 21.3942 37.7034 19.9384C40.1739 18.3495 42.6284 17.744 42.6529 17.738L42.6855 17.8732C42.6612 17.879 40.2261 18.4803 37.7751 20.0576C35.5192 21.5094 32.7868 24.1099 32.581 28.2551L32.5754 28.3694Z" fill="white"/>
<path d="M33.1749 41.7194C30.9369 41.7194 28.2453 41.1603 25.8201 39.1417L25.9087 39.0348C30.9973 43.27 37.2792 41.0008 37.9256 40.7501C37.0009 36.6249 38.0319 33.6368 39.0629 31.8533C40.186 29.9104 41.5542 28.9366 41.5678 28.9271L41.6476 29.041C41.5937 29.0788 36.2819 32.9169 38.0741 40.7773L38.0872 40.8342L38.0335 40.8569C37.9962 40.8725 35.9291 41.7194 33.1749 41.7194Z" fill="white"/>
<path d="M37.7106 49.6778C36.0168 49.6778 33.9565 49.3433 31.544 48.3718L31.5958 48.2428C38.8418 51.1604 42.858 48.2933 43.2881 47.9599C41.6356 43.7094 44.37 37.0137 44.3979 36.9464L44.5262 36.9995C44.4983 37.0667 41.7647 43.7612 43.436 47.9564L43.4544 48.0027L43.4167 48.0351C43.3887 48.059 41.436 49.6778 37.7106 49.6778Z" fill="white"/>
</g>
<path d="M61.3834 65.7722C62.1231 62.0368 62.6666 56.1836 59.7822 50.8411C54.7502 41.5207 44.949 44.2451 35.9731 34.1448C28.7336 25.9985 31.2908 19.9291 23.157 14.4088C21.7955 13.4848 14.608 8.40969 9.05499 11.1501C5.92583 12.6942 4.70347 16.0309 4.47401 16.6573C1.00579 26.1242 10.2581 41.4162 22.722 48.6739C29.8831 52.8438 32.2751 51.6326 44.9514 56.6343C52.4001 59.5733 57.9466 63.2283 61.3834 65.7722Z" fill="url(#paint3_linear_111_6684)"/>
<mask id="mask2_111_6684" style="mask-type:luminance" maskUnits="userSpaceOnUse" x="3" y="10" width="59" height="56">
<path d="M61.3834 65.7722C62.1231 62.0368 62.6666 56.1836 59.7822 50.8411C54.7502 41.5207 44.949 44.2451 35.9731 34.1448C28.7336 25.9985 31.2908 19.9291 23.157 14.4088C21.7955 13.4848 14.608 8.40969 9.05499 11.1501C5.92583 12.6942 4.70347 16.0309 4.47401 16.6573C1.00579 26.1242 10.2581 41.4162 22.722 48.6739C29.8831 52.8438 32.2751 51.6326 44.9514 56.6343C52.4001 59.5733 57.9466 63.2283 61.3834 65.7722Z" fill="white"/>
</mask>
<g mask="url(#mask2_111_6684)">
<path d="M62.3341 70.3242C60.762 61.3295 57.4375 55.2174 52.4524 52.1576C50.0191 50.6641 48.0469 50.3762 45.959 50.0716C43.6833 49.7396 41.3303 49.3962 38.2675 47.4046C35.2878 45.467 34.2574 43.6641 32.9526 41.3816C31.7914 39.3499 30.3462 36.8214 27.0314 33.4102C24.1255 30.4198 21.9844 28.9945 20.0954 27.7371C18.0309 26.363 16.4004 25.2776 14.5507 22.6818C11.5362 18.4516 10.0607 13.1072 10.1654 6.7971L10.3042 6.79953C10.2 13.0791 11.6667 18.3956 14.6636 22.6011C16.4985 25.1759 18.1196 26.255 20.1721 27.6212C22.0669 28.8826 24.2146 30.3121 27.1308 33.3132C30.4579 36.737 31.9079 39.274 33.073 41.3125C34.3684 43.5786 35.3915 45.3686 38.3432 47.288C41.3804 49.263 43.7181 49.604 45.979 49.934C48.0814 50.2408 50.0673 50.5305 52.5249 52.039C57.5454 55.1205 60.8916 61.2645 62.4707 70.3001L62.3341 70.3242Z" fill="white"/>
<path d="M21.0508 28.3005L20.9578 28.3004C14.0486 28.2901 9.00254 25.5134 5.98597 23.1859C2.71747 20.6639 1.05984 18.1087 1.0435 18.0832L1.1602 18.0082C1.17649 18.0334 2.82388 20.5718 6.07504 23.0792C9.06059 25.3818 14.0452 28.1266 20.8659 28.1611C20.7139 27.6175 19.9231 24.6744 19.628 21.2539C19.327 17.7636 19.4955 13.0474 22.008 10.3992L22.1085 10.4951C17.3624 15.4978 20.9873 28.0848 21.0245 28.2113L21.0508 28.3005Z" fill="white"/>
<path d="M20.3083 38.9019C16.0136 38.9019 10.3055 37.9931 4.66315 34.3546L4.73836 34.2377C11.2494 38.4366 17.851 38.9826 22.241 38.7012C26.6624 38.4179 29.791 37.2627 30.2398 37.0891C28.674 30.5097 30.5445 21.3416 30.5636 21.2495L30.6995 21.2778C30.6803 21.3699 28.8051 30.5626 30.389 37.1153L30.403 37.1733L30.3478 37.196C30.3152 37.2094 27.0364 38.5325 22.2551 38.8396C21.6466 38.8787 20.9951 38.9019 20.3083 38.9019Z" fill="white"/>
<path d="M25.9053 54.2454C25.138 54.2454 24.351 54.225 23.5413 54.1816L23.5488 54.0428C35.6953 54.6933 43.0969 50.131 43.8385 49.6506C39.1265 43.417 41.3626 33.5297 41.3857 33.4303L41.521 33.4619C41.4978 33.5611 39.2626 43.448 43.9939 49.6254L44.0383 49.6836L43.9781 49.7252C43.9079 49.7733 37.2702 54.2454 25.9053 54.2454Z" fill="white"/>
</g>
<path d="M54.7033 61.8154C52.3502 60.0046 48.4882 57.369 43.2458 55.3165C33.9214 51.6656 29.5362 53.5029 25.6711 49.3814C21.6702 45.1153 24.4771 41.1294 19.6765 36.3547C19.2728 35.9532 14.1141 30.9545 9.25036 32.5987C5.84782 33.7488 4.41652 37.5325 3.74494 39.3077C1.13849 46.1979 2.18584 56.8572 9.43894 62.3306C16.3155 67.5199 25.2978 65.4394 28.1502 64.7587C33.1544 63.5646 34.3918 61.6656 39.4743 60.6024C45.6551 59.3094 51.1326 60.5893 54.7033 61.8154Z" fill="url(#paint4_linear_111_6684)"/>
<path d="M76.2149 97.0004C76.2149 98.6611 75.0386 100.081 73.588 100.166L17.6311 103.437C15.9692 103.534 14.6124 102.16 14.6124 100.374V19.9757C14.6124 18.1895 15.9692 16.7914 17.6311 16.8589L73.588 19.1302C75.0386 19.1891 76.2149 20.5879 76.2149 22.2486V97.0004Z" fill="url(#paint5_linear_111_6684)"/>
<path d="M77.8578 97.0004C77.8578 98.6611 76.6814 100.081 75.2308 100.166L19.2739 103.437C17.612 103.534 16.2553 102.16 16.2553 100.374V19.9757C16.2553 18.1895 17.612 16.7914 19.2739 16.8589L75.2308 19.1302C76.6814 19.1891 77.8578 20.5879 77.8578 22.2486V97.0004Z" fill="url(#paint6_linear_111_6684)"/>
<path d="M17.6632 20.0275V100.297C17.6632 101.252 18.3851 101.985 19.274 101.934L63.5299 99.4231L75.2309 98.7591C76.0081 98.715 76.6371 97.9575 76.6371 97.0672V22.2035C76.6371 21.3131 76.0081 20.5668 75.2309 20.5366L63.1075 20.0654L19.274 18.3616C18.3851 18.327 17.6632 19.0729 17.6632 20.0275Z" fill="url(#paint7_linear_111_6684)"/>
<path d="M75.8615 93.6056C75.8615 93.9368 75.5965 94.2198 75.2705 94.2365L19.2285 97.1067C18.8561 97.1258 18.5528 96.8529 18.5528 96.4985V20.0294C18.5528 19.675 18.8562 19.398 19.2285 19.412L75.2705 21.523C75.5964 21.5353 75.8615 21.8148 75.8615 22.1459V93.6056Z" fill="#E7EBF2"/>
<path d="M53.829 98.5818L42.4494 99.2086C41.8409 99.2421 41.3471 98.8196 41.3471 98.2648V98.2231C41.3471 97.6684 41.8409 97.1926 42.4494 97.1606L53.829 96.5611C54.4204 96.53 54.8993 96.9473 54.8993 97.4933V97.5343C54.8993 98.0802 54.4204 98.5492 53.829 98.5818Z" fill="url(#paint8_linear_111_6684)"/>
<path d="M48.76 19.5078C48.76 19.803 48.4993 20.0323 48.1776 20.02C47.8556 20.0076 47.5944 19.7581 47.5944 19.4625C47.5944 19.167 47.8556 18.9377 48.1776 18.9505C48.4994 18.9631 48.76 19.2127 48.76 19.5078Z" fill="white"/>
<g opacity="0.3">
<path d="M63.0467 91.7387C62.8186 86.8397 68.2569 83.9664 67.7345 77.0554C67.6874 76.4319 67.2013 71.0837 62.9038 67.4587C59.0447 64.2034 55.8011 65.4281 48.6585 62.8316C43.6526 61.0119 38.0249 58.966 35.7488 54.8613C31.2286 46.7099 44.1451 38.5681 41.5014 28.0154C40.7439 24.9915 38.605 21.285 32.9558 17.4143L19.2739 16.8589C17.612 16.7914 16.2553 18.1895 16.2553 19.9757V100.374C16.2553 102.16 17.612 103.534 19.2739 103.437L70.2585 100.456C64.828 97.312 63.1656 94.2912 63.0467 91.7387Z" fill="white"/>
</g>
<path d="M11.3106 84.5778C9.68408 84.6336 8.04435 84.181 6.7099 83.1859C3.75411 80.9821 3.43605 76.9768 6.00393 74.268L43.5329 34.3999C44.7607 33.1052 46.5356 32.3925 48.3939 32.4433C50.2439 32.4938 51.9953 33.2962 53.1983 34.6398L65.7636 48.674L80.0415 32.9501C82.1772 30.5978 85.8765 30.4548 88.3006 32.6067C90.71 34.7453 90.9674 38.3625 88.879 40.7091L70.3681 61.5077C69.2151 62.8032 67.5366 63.5598 65.7636 63.5787C63.9828 63.5976 62.2822 62.8707 61.1059 61.583L48.3939 47.6688L16.5586 82.2398C15.1916 83.7121 13.2607 84.5107 11.3106 84.5778Z" fill="url(#paint9_linear_111_6684)"/>
<path d="M92.8733 43.7296L77.1481 29.9101L97.3277 23.1237H98.7369L94.1447 43.6053L92.8733 43.7296Z" fill="url(#paint10_linear_111_6684)"/>
<path d="M12.7198 84.5778C11.0933 84.6336 9.45356 84.181 8.11914 83.1859C5.16331 80.9821 4.84529 76.9768 7.41317 74.268L44.9421 34.3999C46.1699 33.1052 47.9448 32.3925 49.8031 32.4433C51.6531 32.4938 53.4045 33.2962 54.6075 34.6398L67.1728 48.674L81.4506 32.9501C83.5864 30.5978 87.2857 30.4548 89.7098 32.6067C92.1192 34.7453 92.3766 38.3625 90.2881 40.7091L71.7774 61.5077C70.6243 62.8032 68.9457 63.5598 67.1728 63.5787C65.392 63.5976 63.6915 62.8707 62.5151 61.583L49.8032 47.6688L17.9677 82.2398C16.6008 83.7121 14.6699 84.5107 12.7198 84.5778Z" fill="url(#paint11_linear_111_6684)"/>
<path d="M94.1445 43.6053L78.5571 29.9101L98.7367 23.1237L94.1445 43.6053Z" fill="url(#paint12_linear_111_6684)"/>
<path d="M61.7312 101.725V104.917C61.7312 105.948 68.1627 106.784 76.0964 106.784C84.0302 106.784 90.4617 105.948 90.4617 104.917V101.725H61.7312Z" fill="url(#paint13_linear_111_6684)"/>
<path d="M76.0962 103.593C84.0299 103.593 90.4614 102.757 90.4614 101.726C90.4614 100.694 84.0299 99.8584 76.0962 99.8584C68.1624 99.8584 61.7309 100.694 61.7309 101.726C61.7309 102.757 68.1624 103.593 76.0962 103.593Z" fill="url(#paint14_linear_111_6684)"/>
<path d="M76.0964 103.721C69.0701 103.721 61.7228 103.049 61.7228 101.753C61.7228 101.682 61.7482 101.556 61.8193 101.556C61.8903 101.556 61.8597 101.654 61.8597 101.725C61.8597 102.548 67.7065 103.464 76.0964 103.464C84.4863 103.464 90.3331 102.548 90.3331 101.725C90.3331 101.654 90.3452 101.588 90.4163 101.588C90.4874 101.588 90.4703 101.683 90.4703 101.754C90.4703 103.05 83.1228 103.721 76.0964 103.721Z" fill="url(#paint15_linear_111_6684)"/>
<path d="M74.7391 101.83C74.88 101.732 75.03 101.635 75.1906 101.54C75.3496 101.445 75.5568 101.359 75.8077 101.283C76.0601 101.206 76.3757 101.143 76.7547 101.095C77.1336 101.047 77.6074 101.021 78.1731 101.018C78.7283 101.016 79.249 101.033 79.7367 101.071C80.2228 101.109 80.6519 101.166 81.0224 101.242C81.3914 101.318 81.6928 101.411 81.925 101.522C82.1557 101.634 82.2933 101.762 82.3376 101.905L83.9552 101.922C84.0725 101.923 84.1764 101.932 84.2652 101.951C84.3556 101.969 84.3994 101.992 84.3995 102.021L84.4002 102.154L82.3207 102.134C82.2478 102.297 82.062 102.447 81.7632 102.582C81.466 102.718 81.0859 102.835 80.623 102.935L79.8656 102.829C79.7979 102.819 79.7422 102.806 79.6984 102.79C79.6547 102.774 79.6336 102.756 79.6335 102.737C79.6333 102.712 79.6919 102.683 79.8091 102.65C79.9262 102.617 80.0585 102.576 80.2057 102.527C80.3529 102.479 80.497 102.422 80.6396 102.355C80.7808 102.289 80.8751 102.211 80.9243 102.119L76.0161 102.07C75.8872 102.165 75.7417 102.258 75.5827 102.35C75.4221 102.442 75.2104 102.524 74.946 102.598C74.6815 102.671 74.3523 102.731 73.9583 102.776C73.5628 102.822 73.068 102.847 72.4692 102.849C72.0193 102.852 71.5814 102.835 71.1524 102.798C70.7234 102.762 70.3425 102.708 70.0096 102.635C69.6768 102.563 69.404 102.473 69.1898 102.366C68.9771 102.259 68.8576 102.137 68.8329 101.998L67.5013 101.984C67.384 101.984 67.2801 101.975 67.1867 101.957C67.0949 101.939 67.0481 101.915 67.048 101.886L67.0473 101.752L68.8679 101.77C68.9485 101.629 69.1134 101.507 69.3657 101.402C69.6179 101.298 69.9259 101.205 70.2896 101.124L70.8994 101.208C71.0846 101.234 71.1765 101.264 71.1767 101.299C71.1767 101.318 71.1392 101.342 71.0627 101.37C70.9845 101.398 70.8944 101.431 70.7893 101.47C70.6857 101.509 70.5836 101.555 70.486 101.607C70.387 101.659 70.3136 101.719 70.2642 101.785L74.7391 101.83ZM70.2473 102.011C70.2838 102.099 70.3654 102.174 70.4891 102.237C70.6128 102.301 70.7665 102.353 70.9518 102.394C71.1371 102.435 71.3449 102.465 71.5751 102.484C71.8069 102.503 72.0492 102.512 72.302 102.511C72.5969 102.509 72.8541 102.496 73.0737 102.472C73.2917 102.448 73.4841 102.416 73.6509 102.375C73.8162 102.333 73.962 102.286 74.085 102.231C74.2082 102.176 74.3177 102.117 74.4167 102.053L70.2473 102.011ZM80.9322 101.892C80.8957 101.803 80.8065 101.726 80.6678 101.659C80.529 101.592 80.3512 101.536 80.1358 101.491C79.9205 101.445 79.669 101.412 79.3816 101.389C79.0956 101.367 78.7796 101.357 78.4335 101.359C78.1266 101.36 77.8604 101.374 77.6393 101.4C77.4183 101.426 77.2258 101.461 77.062 101.505C76.8997 101.549 76.7601 101.6 76.6475 101.658C76.5335 101.717 76.4269 101.779 76.3295 101.846L80.9322 101.892Z" fill="#FCB048"/>
<path d="M76.0986 100.06C69.6934 100.06 63.0241 100.625 61.9573 101.718C61.9991 101.756 62.0379 101.797 62.0739 101.841C62.9731 101.082 68.48 100.318 76.0986 100.318C83.9127 100.318 89.508 101.122 90.1858 101.899C90.219 101.857 90.2546 101.816 90.2932 101.777C89.4121 100.646 82.6176 100.06 76.0986 100.06Z" fill="url(#paint16_linear_111_6684)"/>
<path d="M57.7377 98.3732V101.565C57.7377 102.596 64.1692 103.432 72.103 103.432C80.0367 103.432 86.4683 102.596 86.4683 101.565V98.3732H57.7377Z" fill="url(#paint17_linear_111_6684)"/>
<path d="M72.1027 100.24C80.0365 100.24 86.468 99.4045 86.468 98.3733C86.468 97.342 80.0365 96.5061 72.1027 96.5061C64.169 96.5061 57.7374 97.342 57.7374 98.3733C57.7374 99.4045 64.169 100.24 72.1027 100.24Z" fill="url(#paint18_linear_111_6684)"/>
<path d="M72.103 100.369C65.0766 100.369 57.7293 99.6969 57.7293 98.4004C57.7293 98.3292 57.7547 98.204 57.8258 98.204C57.8969 98.204 57.8663 98.3019 57.8663 98.3731C57.8663 99.1953 63.7132 100.111 72.103 100.111C80.4928 100.111 86.3396 99.1954 86.3396 98.3731C86.3396 98.3019 86.3518 98.2352 86.4229 98.2352C86.494 98.2352 86.4768 98.3302 86.4768 98.4014C86.4768 99.6979 79.1293 100.369 72.103 100.369Z" fill="url(#paint19_linear_111_6684)"/>
<path d="M70.7456 98.4772C70.8866 98.3795 71.0366 98.2832 71.1971 98.188C71.3561 98.0929 71.5633 98.0071 71.8142 97.9303C72.0666 97.8536 72.3823 97.7911 72.7612 97.7427C73.1401 97.6943 73.6139 97.6688 74.1796 97.666C74.7348 97.6633 75.2555 97.681 75.7432 97.7191C76.2293 97.757 76.6584 97.8139 77.0289 97.8896C77.3979 97.9652 77.6993 98.0588 77.9316 98.17C78.1623 98.2815 78.2999 98.4092 78.3442 98.5531L79.9617 98.5695C80.079 98.5702 80.1829 98.5797 80.2718 98.5982C80.3622 98.6167 80.4059 98.64 80.4061 98.6683L80.4067 98.8017L78.3273 98.7817C78.2543 98.945 78.0685 99.0944 77.7698 99.23C77.4725 99.3656 77.0924 99.483 76.6295 99.5823L75.8721 99.4768C75.8044 99.4665 75.7487 99.4533 75.705 99.4372C75.6612 99.4213 75.6401 99.404 75.64 99.3851C75.6399 99.3594 75.6984 99.3302 75.8156 99.2974C75.9328 99.2644 76.065 99.2236 76.2122 99.175C76.3594 99.1266 76.5035 99.0693 76.6462 99.0031C76.7873 98.9371 76.8817 98.8582 76.9309 98.7663L72.0227 98.7176C71.8937 98.8126 71.7483 98.906 71.5892 98.9977C71.4287 99.0894 71.2169 99.1721 70.9525 99.2454C70.6881 99.3188 70.3589 99.3783 69.9649 99.4242C69.5694 99.4698 69.0745 99.4942 68.4757 99.4971C68.0258 99.4993 67.5879 99.4822 67.159 99.446C66.73 99.4096 66.349 99.3552 66.0162 99.2828C65.6833 99.2103 65.4105 99.1207 65.1964 99.014C64.9837 98.9071 64.8642 98.7845 64.8395 98.6458L63.5079 98.6322C63.3905 98.6314 63.2866 98.6222 63.1933 98.6044C63.1014 98.5866 63.0547 98.563 63.0545 98.5334L63.0539 98.4L64.8745 98.4174C64.955 98.2768 65.12 98.1543 65.3722 98.0501C65.6245 97.9457 65.9324 97.8529 66.2961 97.7717L66.9059 97.8555C67.0911 97.8816 67.183 97.912 67.1832 97.9471C67.1833 97.966 67.1458 97.9894 67.0692 98.0174C66.9911 98.0454 66.901 98.0789 66.7959 98.1178C66.6922 98.1568 66.5901 98.2023 66.4926 98.2548C66.3936 98.3071 66.3201 98.3663 66.2708 98.4327L70.7456 98.4772ZM66.2538 98.659C66.2903 98.7465 66.3719 98.8218 66.4956 98.8852C66.6193 98.9487 66.7731 99.0007 66.9583 99.0416C67.1436 99.0825 67.3514 99.1124 67.5817 99.1315C67.8134 99.1506 68.0557 99.1596 68.3085 99.1584C68.6034 99.1569 68.8606 99.1441 69.0802 99.1202C69.2983 99.0961 69.4906 99.0636 69.6575 99.0223C69.8228 98.981 69.9685 98.9333 70.0916 98.8787C70.2147 98.8241 70.3242 98.7651 70.4232 98.7012L66.2538 98.659ZM76.9388 98.5397C76.9022 98.4511 76.8131 98.3734 76.6743 98.3066C76.5356 98.24 76.3578 98.1838 76.1424 98.1385C75.927 98.093 75.6756 98.0592 75.3881 98.0371C75.1021 98.015 74.7861 98.0047 74.4401 98.0064C74.1331 98.0079 73.8669 98.0217 73.6458 98.0477C73.4248 98.0737 73.2324 98.1085 73.0686 98.1526C72.9063 98.1965 72.7667 98.2477 72.6541 98.3062C72.54 98.3647 72.4335 98.4272 72.336 98.4938L76.9388 98.5397Z" fill="#FCB048"/>
<path d="M72.1051 96.708C65.6999 96.708 59.0306 97.2726 57.9638 98.3654C58.0056 98.404 58.0444 98.4451 58.0804 98.4884C58.9796 97.7296 64.4865 96.9657 72.1051 96.9657C79.9193 96.9657 85.5145 97.7695 86.1923 98.5469C86.2255 98.5042 86.2611 98.4634 86.2997 98.425C85.4186 97.2935 78.6241 96.708 72.1051 96.708Z" fill="url(#paint20_linear_111_6684)"/>
<path d="M61.1834 95.0311V98.2225C61.1834 99.2537 67.6149 100.09 75.5487 100.09C83.4824 100.09 89.914 99.2538 89.914 98.2225V95.0311H61.1834Z" fill="url(#paint21_linear_111_6684)"/>
<path d="M89.9137 95.031C89.9137 96.0622 83.4821 96.8982 75.5484 96.8982C67.6146 96.8982 61.1831 96.0622 61.1831 95.031C61.1831 93.9997 67.6146 93.1638 75.5484 93.1638C83.4821 93.1638 89.9137 93.9997 89.9137 95.031Z" fill="url(#paint22_linear_111_6684)"/>
<path d="M75.5488 97.0271C68.5225 97.0271 61.1752 96.3549 61.1752 95.0584C61.1752 94.9872 61.2005 94.862 61.2716 94.862C61.3427 94.862 61.3121 94.9599 61.3121 95.0311C61.3121 95.8533 67.159 96.7694 75.5488 96.7694C83.9386 96.7694 89.7855 95.8533 89.7855 95.0311C89.7855 94.9599 89.7976 94.8932 89.8687 94.8932C89.9398 94.8932 89.9226 94.9882 89.9226 95.0594C89.9226 96.3559 82.5752 97.0271 75.5488 97.0271Z" fill="url(#paint23_linear_111_6684)"/>
<path d="M74.1913 95.1352C74.3322 95.0374 74.4822 94.9411 74.6427 94.8459C74.8018 94.7509 75.009 94.665 75.2599 94.5882C75.5122 94.5115 75.8279 94.4491 76.2069 94.4007C76.5857 94.3523 77.0596 94.3267 77.6253 94.324C78.1805 94.3212 78.7012 94.3389 79.1888 94.377C79.675 94.4149 80.1041 94.4719 80.4746 94.5475C80.8436 94.6231 81.1449 94.7167 81.3772 94.8279C81.6079 94.9395 81.7455 95.0671 81.7898 95.211L83.4073 95.2274C83.5247 95.2281 83.6285 95.2376 83.7174 95.2561C83.8078 95.2746 83.8515 95.2979 83.8517 95.3262L83.8523 95.4596L81.7729 95.4395C81.7 95.6029 81.5141 95.7524 81.2154 95.8879C80.9181 96.0236 80.538 96.1409 80.0751 96.2403L79.3178 96.1348C79.25 96.1244 79.1943 96.1112 79.1506 96.0951C79.1069 96.0792 79.0858 96.0619 79.0857 96.043C79.0855 96.0173 79.1441 95.988 79.2613 95.9552C79.3784 95.9223 79.5106 95.8815 79.6578 95.8329C79.805 95.7844 79.9492 95.7272 80.0918 95.661C80.2329 95.595 80.3274 95.516 80.3765 95.4242L75.4683 95.3755C75.3394 95.4705 75.1939 95.5639 75.0348 95.6556C74.8743 95.7473 74.6626 95.83 74.3981 95.9033C74.1337 95.9767 73.8045 96.0362 73.4105 96.082C73.015 96.1277 72.5201 96.1521 71.9213 96.155C71.4714 96.1572 71.0335 96.1401 70.6045 96.1039C70.1756 96.0675 69.7946 96.0131 69.4618 95.9407C69.1289 95.8682 68.8561 95.7785 68.6419 95.6719C68.4293 95.565 68.3098 95.4424 68.2851 95.3037L66.9535 95.29C66.8361 95.2893 66.7323 95.2801 66.6389 95.2623C66.547 95.2445 66.5003 95.2208 66.5001 95.1913L66.4995 95.0578L68.3201 95.0752C68.4007 94.9347 68.5655 94.8122 68.8178 94.7079C69.07 94.6035 69.378 94.5108 69.7417 94.4295L70.3515 94.5133C70.5367 94.5394 70.6287 94.5699 70.6288 94.6049C70.6289 94.6239 70.5914 94.6472 70.5148 94.6753C70.4367 94.7033 70.3466 94.7368 70.2414 94.7756C70.1378 94.8146 70.0357 94.8602 69.9382 94.9126C69.8391 94.9649 69.7657 95.0241 69.7164 95.0905L74.1913 95.1352ZM69.6995 95.317C69.736 95.4045 69.8176 95.4797 69.9413 95.5431C70.065 95.6067 70.2187 95.6587 70.404 95.6996C70.5892 95.7405 70.797 95.7703 71.0273 95.7894C71.2591 95.8085 71.5014 95.8175 71.7542 95.8163C72.0491 95.8148 72.3063 95.8021 72.5258 95.7781C72.7439 95.754 72.9363 95.7215 73.1031 95.6802C73.2684 95.639 73.4141 95.5912 73.5372 95.5366C73.6604 95.4821 73.7699 95.4229 73.8689 95.3591L69.6995 95.317ZM80.3845 95.1977C80.3479 95.1091 80.2588 95.0314 80.1201 94.9646C79.9813 94.898 79.8035 94.8418 79.5881 94.7965C79.3728 94.751 79.1213 94.7172 78.8338 94.6951C78.5479 94.673 78.2318 94.6627 77.8858 94.6644C77.5789 94.6659 77.3126 94.6797 77.0916 94.7057C76.8705 94.7317 76.6781 94.7665 76.5143 94.8106C76.352 94.8545 76.2124 94.9057 76.0998 94.9642C75.9858 95.0226 75.8792 95.0851 75.7817 95.1517L80.3845 95.1977Z" fill="#FCB048"/>
<path d="M75.5507 93.3657C69.1455 93.3657 62.4762 93.9302 61.4094 95.0231C61.4512 95.0617 61.49 95.1028 61.526 95.1461C62.4252 94.3873 67.9322 93.6234 75.5507 93.6234C83.3649 93.6234 88.9601 94.4271 89.6379 95.2046C89.6712 95.1619 89.7068 95.1211 89.7453 95.0827C88.8642 93.9512 82.0697 93.3657 75.5507 93.3657Z" fill="url(#paint24_linear_111_6684)"/>
<path d="M63.2745 91.679V94.8704C63.2745 95.9017 69.706 96.7376 77.6398 96.7376C85.5735 96.7376 92.005 95.9017 92.005 94.8704V91.679H63.2745Z" fill="url(#paint25_linear_111_6684)"/>
<path d="M92.0049 91.6789C92.0049 92.7101 85.5734 93.5461 77.6396 93.5461C69.7059 93.5461 63.2743 92.7101 63.2743 91.6789C63.2743 90.6476 69.7059 89.8117 77.6396 89.8117C85.5734 89.8117 92.0049 90.6476 92.0049 91.6789Z" fill="url(#paint26_linear_111_6684)"/>
<path d="M77.64 93.6749C70.6137 93.6749 63.2664 93.0027 63.2664 91.7063C63.2664 91.635 63.2917 91.5099 63.3628 91.5099C63.4339 91.5099 63.4033 91.6078 63.4033 91.679C63.4033 92.5012 69.2501 93.4173 77.64 93.4173C86.0298 93.4173 91.8767 92.5012 91.8767 91.679C91.8767 91.6078 91.8888 91.541 91.9599 91.541C92.031 91.541 92.0139 91.636 92.0139 91.7072C92.0139 93.0038 84.6664 93.6749 77.64 93.6749Z" fill="url(#paint27_linear_111_6684)"/>
<path d="M76.2825 91.7831C76.4234 91.6853 76.5734 91.589 76.734 91.4938C76.893 91.3988 77.1002 91.3129 77.3511 91.2362C77.6035 91.1594 77.9191 91.097 78.298 91.0486C78.6769 91.0002 79.1508 90.9746 79.7165 90.9719C80.2717 90.9691 80.7923 90.9868 81.28 91.0249C81.7662 91.0628 82.1952 91.1198 82.5657 91.1954C82.9347 91.2711 83.2361 91.3647 83.4683 91.4759C83.6991 91.5874 83.8367 91.715 83.8809 91.8589L85.4985 91.8753C85.6158 91.876 85.7197 91.8856 85.8086 91.904C85.8989 91.9225 85.9427 91.9458 85.9428 91.9741L85.9435 92.1075L83.8641 92.0875C83.7911 92.2509 83.6053 92.4003 83.3066 92.5358C83.0093 92.6715 82.6292 92.7888 82.1663 92.8882L81.409 92.7827C81.3412 92.7723 81.2855 92.7591 81.2418 92.7431C81.1981 92.7271 81.1769 92.7098 81.1769 92.6909C81.1767 92.6652 81.2353 92.636 81.3525 92.6031C81.4696 92.5702 81.6019 92.5294 81.7491 92.4808C81.8963 92.4324 82.0405 92.375 82.1831 92.3089C82.3242 92.2429 82.4186 92.164 82.4678 92.0721L77.5596 92.0234C77.4307 92.1184 77.2851 92.2117 77.1261 92.3035C76.9656 92.3952 76.7538 92.4778 76.4894 92.5512C76.2249 92.6245 75.8957 92.6841 75.5018 92.7299C75.1063 92.7756 74.6114 92.7999 74.0126 92.8028C73.5627 92.8051 73.1248 92.788 72.6959 92.7517C72.2668 92.7153 71.8859 92.6609 71.5531 92.5886C71.2202 92.516 70.9474 92.4264 70.7332 92.3197C70.5206 92.2129 70.4011 92.0902 70.3764 91.9515L69.0448 91.9379C68.9274 91.9371 68.8235 91.9279 68.7302 91.9101C68.6383 91.8923 68.5915 91.8687 68.5914 91.8391L68.5908 91.7057L70.4114 91.7231C70.4919 91.5825 70.6568 91.46 70.9091 91.3558C71.1614 91.2514 71.4693 91.1586 71.8331 91.0774L72.4429 91.1612C72.628 91.1873 72.72 91.2177 72.7201 91.2528C72.7202 91.2717 72.6827 91.2951 72.6061 91.3231C72.528 91.3511 72.4379 91.3846 72.3328 91.4235C72.2292 91.4625 72.127 91.508 72.0295 91.5605C71.9305 91.6127 71.8571 91.672 71.8077 91.7384L76.2825 91.7831ZM71.7907 91.9649C71.8272 92.0524 71.9088 92.1276 72.0325 92.191C72.1562 92.2546 72.3099 92.3066 72.4952 92.3475C72.6805 92.3883 72.8883 92.4182 73.1185 92.4373C73.3503 92.4564 73.5927 92.4655 73.8454 92.4642C74.1403 92.4628 74.3975 92.45 74.6171 92.426C74.8351 92.4019 75.0275 92.3694 75.1943 92.3281C75.3596 92.2868 75.5054 92.2391 75.6284 92.1845C75.7516 92.13 75.8611 92.0709 75.9601 92.007L71.7907 91.9649ZM82.4756 91.8456C82.4391 91.757 82.3499 91.6793 82.2112 91.6125C82.0725 91.5459 81.8947 91.4897 81.6793 91.4444C81.4639 91.3989 81.2124 91.3651 80.925 91.343C80.639 91.3209 80.323 91.3106 79.9769 91.3123C79.67 91.3138 79.4037 91.3276 79.1827 91.3535C78.9617 91.3796 78.7692 91.4144 78.6055 91.4585C78.4432 91.5024 78.3035 91.5536 78.1909 91.612C78.0769 91.6705 77.9704 91.733 77.8729 91.7996L82.4756 91.8456Z" fill="#FCB048"/>
<path d="M77.6419 90.0141C71.2366 90.0141 64.5674 90.5787 63.5006 91.6715C63.5424 91.7101 63.5811 91.7512 63.6172 91.7945C64.5164 91.0358 70.0234 90.2718 77.6419 90.2718C85.456 90.2718 91.0513 91.0756 91.7291 91.853C91.7623 91.8104 91.798 91.7695 91.8365 91.7311C90.9554 90.5996 84.1609 90.0141 77.6419 90.0141Z" fill="url(#paint28_linear_111_6684)"/>
<path d="M61.7312 88.0625V91.2538C61.7312 92.2851 68.1627 93.121 76.0964 93.121C84.0302 93.121 90.4617 92.2851 90.4617 91.2538V88.0625H61.7312Z" fill="url(#paint29_linear_111_6684)"/>
<path d="M90.4615 88.0623C90.4615 89.0935 84.0299 89.9295 76.0962 89.9295C68.1624 89.9295 61.7309 89.0935 61.7309 88.0623C61.7309 87.031 68.1624 86.1951 76.0962 86.1951C84.0299 86.1951 90.4615 87.031 90.4615 88.0623Z" fill="url(#paint30_linear_111_6684)"/>
<path d="M76.0964 90.0583C69.0701 90.0583 61.7228 89.3861 61.7228 88.0896C61.7228 88.0184 61.7482 87.8933 61.8193 87.8933C61.8903 87.8933 61.8597 87.9912 61.8597 88.0624C61.8597 88.8846 67.7065 89.8007 76.0964 89.8007C84.4863 89.8007 90.3331 88.8846 90.3331 88.0624C90.3331 87.9912 90.3452 87.9245 90.4163 87.9245C90.4874 87.9245 90.4703 88.0194 90.4703 88.0907C90.4703 89.3871 83.1228 90.0583 76.0964 90.0583Z" fill="url(#paint31_linear_111_6684)"/>
<path d="M74.7391 88.1665C74.88 88.0687 75.03 87.9724 75.1906 87.8772C75.3496 87.7822 75.5568 87.6963 75.8077 87.6196C76.0601 87.5428 76.3757 87.4804 76.7547 87.432C77.1336 87.3836 77.6074 87.3581 78.1731 87.3553C78.7283 87.3526 79.249 87.3702 79.7367 87.4083C80.2228 87.4462 80.6519 87.5032 81.0224 87.5788C81.3914 87.6545 81.6928 87.7481 81.925 87.8593C82.1557 87.9708 82.2933 88.0984 82.3376 88.2423L83.9552 88.2586C84.0725 88.2594 84.1764 88.2689 84.2652 88.2874C84.3556 88.3059 84.3994 88.3291 84.3995 88.3574L84.4002 88.4909L82.3207 88.4708C82.2478 88.6342 82.062 88.7836 81.7632 88.9192C81.466 89.0548 81.0859 89.1722 80.623 89.2715L79.8656 89.166C79.7979 89.1556 79.7422 89.1424 79.6984 89.1264C79.6547 89.1104 79.6336 89.0931 79.6335 89.0742C79.6333 89.0486 79.6919 89.0193 79.8091 88.9865C79.9262 88.9535 80.0585 88.9127 80.2057 88.8642C80.3529 88.8157 80.497 88.7585 80.6396 88.6923C80.7808 88.6263 80.8751 88.5474 80.9243 88.4555L76.0161 88.4067C75.8872 88.5018 75.7417 88.5951 75.5827 88.6869C75.4221 88.7786 75.2104 88.8612 74.946 88.9346C74.6815 89.0079 74.3523 89.0674 73.9583 89.1133C73.5628 89.159 73.068 89.1833 72.4692 89.1862C72.0193 89.1884 71.5814 89.1714 71.1524 89.1351C70.7234 89.0987 70.3425 89.0443 70.0096 88.972C69.6768 88.8994 69.404 88.8098 69.1898 88.7031C68.9771 88.5963 68.8576 88.4736 68.8329 88.3349L67.5013 88.3212C67.384 88.3205 67.2801 88.3113 67.1867 88.2935C67.0949 88.2757 67.0481 88.2521 67.048 88.2225L67.0473 88.0891L68.8679 88.1065C68.9485 87.9659 69.1134 87.8434 69.3657 87.7392C69.6179 87.6348 69.9259 87.542 70.2896 87.4608L70.8994 87.5446C71.0846 87.5707 71.1765 87.6012 71.1767 87.6362C71.1767 87.6551 71.1392 87.6785 71.0627 87.7065C70.9845 87.7345 70.8944 87.768 70.7893 87.8068C70.6857 87.8458 70.5836 87.8914 70.486 87.9439C70.387 87.9962 70.3136 88.0555 70.2642 88.1218L74.7391 88.1665ZM70.2473 88.3482C70.2838 88.4357 70.3654 88.511 70.4891 88.5744C70.6128 88.6379 70.7665 88.69 70.9518 88.7309C71.1371 88.7717 71.3449 88.8016 71.5751 88.8207C71.8069 88.8398 72.0492 88.8488 72.302 88.8476C72.5969 88.8461 72.8541 88.8333 73.0737 88.8094C73.2917 88.7853 73.4841 88.7528 73.6509 88.7115C73.8162 88.6702 73.962 88.6225 74.085 88.5679C74.2082 88.5133 74.3177 88.4543 74.4167 88.3904L70.2473 88.3482ZM80.9322 88.229C80.8957 88.1403 80.8065 88.0627 80.6678 87.9959C80.529 87.9293 80.3512 87.8731 80.1358 87.8278C79.9205 87.7823 79.669 87.7485 79.3816 87.7264C79.0956 87.7043 78.7796 87.694 78.4335 87.6957C78.1266 87.6972 77.8604 87.711 77.6393 87.7369C77.4183 87.763 77.2258 87.7979 77.062 87.8419C76.8997 87.8858 76.7601 87.937 76.6475 87.9955C76.5335 88.0539 76.4269 88.1165 76.3295 88.1831L80.9322 88.229Z" fill="#FCB048"/>
<path d="M76.0986 86.3973C69.6934 86.3973 63.0241 86.9618 61.9573 88.0547C61.9991 88.0932 62.0379 88.1344 62.0739 88.1777C62.9731 87.4189 68.48 86.655 76.0986 86.655C83.9127 86.655 89.508 87.4587 90.1858 88.2362C90.219 88.1935 90.2546 88.1527 90.2932 88.1143C89.4121 86.9827 82.6176 86.3973 76.0986 86.3973Z" fill="url(#paint32_linear_111_6684)"/>
<path d="M57.7377 84.7104V87.9017C57.7377 88.933 64.1692 89.769 72.103 89.769C80.0367 89.769 86.4683 88.933 86.4683 87.9017V84.7104H57.7377Z" fill="url(#paint33_linear_111_6684)"/>
<path d="M86.4681 84.7102C86.4681 85.7414 80.0365 86.5774 72.1028 86.5774C64.169 86.5774 57.7374 85.7414 57.7374 84.7102C57.7374 83.679 64.169 82.843 72.1028 82.843C80.0365 82.843 86.4681 83.679 86.4681 84.7102Z" fill="url(#paint34_linear_111_6684)"/>
<path d="M72.103 86.7063C65.0766 86.7063 57.7293 86.0341 57.7293 84.7376C57.7293 84.6664 57.7547 84.5412 57.8258 84.5412C57.8969 84.5412 57.8663 84.6391 57.8663 84.7103C57.8663 85.5326 63.7132 86.4487 72.103 86.4487C80.4928 86.4487 86.3396 85.5326 86.3396 84.7103C86.3396 84.6391 86.3518 84.5724 86.4229 84.5724C86.494 84.5724 86.4768 84.6674 86.4768 84.7386C86.4768 86.0352 79.1293 86.7063 72.103 86.7063Z" fill="url(#paint35_linear_111_6684)"/>
<path d="M70.7456 84.8142C70.8866 84.7165 71.0366 84.6201 71.1971 84.5249C71.3561 84.4299 71.5633 84.344 71.8142 84.2673C72.0666 84.1905 72.3823 84.1281 72.7612 84.0797C73.1401 84.0312 73.6139 84.0057 74.1796 84.0029C74.7348 84.0002 75.2555 84.0179 75.7432 84.056C76.2293 84.0939 76.6584 84.1508 77.0289 84.2265C77.3979 84.3021 77.6993 84.3957 77.9316 84.5069C78.1623 84.6184 78.2999 84.7461 78.3442 84.8899L79.9617 84.9063C80.079 84.907 80.1829 84.9166 80.2718 84.9351C80.3622 84.9535 80.4059 84.9768 80.4061 85.0051L80.4067 85.1385L78.3273 85.1185C78.2543 85.2818 78.0685 85.4313 77.7698 85.5668C77.4725 85.7025 77.0924 85.8198 76.6295 85.9192L75.8721 85.8137C75.8044 85.8033 75.7487 85.7901 75.705 85.7741C75.6612 85.7581 75.6401 85.7408 75.64 85.7219C75.6399 85.6962 75.6984 85.667 75.8156 85.6342C75.9328 85.6012 76.065 85.5604 76.2122 85.5118C76.3594 85.4634 76.5035 85.4061 76.6462 85.3399C76.7873 85.2739 76.8817 85.195 76.9309 85.1032L72.0227 85.0544C71.8937 85.1495 71.7483 85.2428 71.5892 85.3345C71.4287 85.4263 71.2169 85.5089 70.9525 85.5822C70.6881 85.6556 70.3589 85.7151 69.9649 85.7609C69.5694 85.8067 69.0745 85.831 68.4757 85.8339C68.0258 85.8361 67.5879 85.819 67.159 85.7828C66.73 85.7464 66.349 85.692 66.0162 85.6196C65.6833 85.5471 65.4105 85.4574 65.1964 85.3508C64.9837 85.2439 64.8642 85.1213 64.8395 84.9826L63.5079 84.9689C63.3905 84.9682 63.2866 84.959 63.1933 84.9412C63.1014 84.9234 63.0547 84.8998 63.0545 84.8702L63.0539 84.7368L64.8745 84.7542C64.955 84.6136 65.12 84.4911 65.3722 84.3868C65.6245 84.2825 65.9324 84.1897 66.2961 84.1084L66.9059 84.1923C67.0911 84.2184 67.183 84.2488 67.1832 84.2839C67.1833 84.3028 67.1458 84.3262 67.0692 84.3542C66.9911 84.3822 66.901 84.4157 66.7959 84.4545C66.6922 84.4935 66.5901 84.5391 66.4926 84.5916C66.3936 84.6439 66.3201 84.7032 66.2708 84.7695L70.7456 84.8142ZM66.2538 84.996C66.2903 85.0835 66.3719 85.1588 66.4956 85.2221C66.6193 85.2856 66.7731 85.3377 66.9583 85.3785C67.1436 85.4194 67.3514 85.4493 67.5817 85.4684C67.8134 85.4875 68.0557 85.4965 68.3085 85.4953C68.6034 85.4938 68.8606 85.4811 69.0802 85.4571C69.2983 85.433 69.4906 85.4005 69.6575 85.3592C69.8228 85.3179 69.9685 85.2702 70.0916 85.2156C70.2147 85.161 70.3242 85.1019 70.4232 85.0381L66.2538 84.996ZM76.9388 84.8767C76.9022 84.788 76.8131 84.7103 76.6743 84.6436C76.5356 84.577 76.3578 84.5208 76.1424 84.4755C75.927 84.43 75.6756 84.3962 75.3881 84.3741C75.1021 84.3519 74.7861 84.3416 74.4401 84.3434C74.1331 84.3449 73.8669 84.3587 73.6458 84.3846C73.4248 84.4107 73.2324 84.4455 73.0686 84.4896C72.9063 84.5335 72.7667 84.5847 72.6541 84.6431C72.54 84.7016 72.4335 84.7641 72.336 84.8307L76.9388 84.8767Z" fill="#FCB048"/>
<path d="M72.1051 83.045C65.6999 83.045 59.0306 83.6095 57.9638 84.7023C58.0056 84.7409 58.0444 84.782 58.0804 84.8253C58.9796 84.0665 64.4865 83.3026 72.1051 83.3026C79.9193 83.3026 85.5145 84.1063 86.1923 84.8838C86.2255 84.8412 86.2611 84.8003 86.2997 84.7619C85.4186 83.6304 78.6241 83.045 72.1051 83.045Z" fill="url(#paint36_linear_111_6684)"/>
<path d="M61.1834 81.3678V84.5592C61.1834 85.5905 67.6149 86.4264 75.5487 86.4264C83.4824 86.4264 89.914 85.5905 89.914 84.5592V81.3678H61.1834Z" fill="url(#paint37_linear_111_6684)"/>
<path d="M89.9137 81.3677C89.9137 82.3989 83.4821 83.2349 75.5484 83.2349C67.6146 83.2349 61.1831 82.3989 61.1831 81.3677C61.1831 80.3365 67.6146 79.5004 75.5484 79.5004C83.4821 79.5005 89.9137 80.3365 89.9137 81.3677Z" fill="url(#paint38_linear_111_6684)"/>
<path d="M75.5488 83.3637C68.5225 83.3637 61.1752 82.6915 61.1752 81.395C61.1752 81.3238 61.2005 81.1987 61.2716 81.1987C61.3427 81.1987 61.3121 81.2966 61.3121 81.3677C61.3121 82.19 67.159 83.1061 75.5488 83.1061C83.9386 83.1061 89.7855 82.19 89.7855 81.3677C89.7855 81.2965 89.7976 81.2298 89.8687 81.2298C89.9398 81.2298 89.9226 81.3248 89.9226 81.396C89.9226 82.6926 82.5752 83.3637 75.5488 83.3637Z" fill="url(#paint39_linear_111_6684)"/>
<path d="M74.1913 81.4716C74.3322 81.3739 74.4822 81.2775 74.6427 81.1823C74.8018 81.0873 75.009 81.0014 75.2599 80.9247C75.5122 80.848 75.8279 80.7855 76.2069 80.7371C76.5857 80.6887 77.0596 80.6632 77.6253 80.6604C78.1805 80.6577 78.7012 80.6754 79.1888 80.7134C79.675 80.7514 80.1041 80.8083 80.4746 80.8839C80.8436 80.9596 81.1449 81.0532 81.3772 81.1644C81.6079 81.2759 81.7455 81.4036 81.7898 81.5474L83.4073 81.5638C83.5247 81.5646 83.6285 81.5741 83.7174 81.5926C83.8078 81.611 83.8515 81.6344 83.8517 81.6627L83.8523 81.7961L81.7729 81.776C81.7 81.9394 81.5141 82.0888 81.2154 82.2244C80.9181 82.3601 80.538 82.4774 80.0751 82.5767L79.3178 82.4712C79.25 82.4609 79.1943 82.4477 79.1506 82.4316C79.1069 82.4157 79.0858 82.3983 79.0857 82.3794C79.0855 82.3538 79.1441 82.3246 79.2613 82.2917C79.3784 82.2587 79.5106 82.218 79.6578 82.1694C79.805 82.121 79.9492 82.0637 80.0918 81.9975C80.2329 81.9315 80.3274 81.8526 80.3765 81.7607L75.4683 81.7119C75.3394 81.807 75.1939 81.9003 75.0348 81.9921C74.8743 82.0838 74.6626 82.1665 74.3981 82.2398C74.1337 82.3131 73.8045 82.3726 73.4105 82.4185C73.015 82.4642 72.5201 82.4885 71.9213 82.4915C71.4714 82.4937 71.0335 82.4766 70.6045 82.4403C70.1756 82.404 69.7946 82.3496 69.4618 82.2772C69.1289 82.2047 68.8561 82.115 68.6419 82.0083C68.4293 81.9015 68.3098 81.7788 68.2851 81.6402L66.9535 81.6265C66.8361 81.6257 66.7323 81.6166 66.6389 81.5987C66.547 81.5809 66.5003 81.5573 66.5001 81.5277L66.4995 81.3943L68.3201 81.4116C68.4007 81.2711 68.5655 81.1486 68.8178 81.0444C69.07 80.94 69.378 80.8472 69.7417 80.766L70.3515 80.8498C70.5367 80.8759 70.6287 80.9063 70.6288 80.9413C70.6289 80.9603 70.5914 80.9837 70.5148 81.0117C70.4367 81.0397 70.3466 81.0732 70.2414 81.112C70.1378 81.151 70.0357 81.1966 69.9382 81.2491C69.8391 81.3014 69.7657 81.3606 69.7164 81.427L74.1913 81.4716ZM69.6995 81.6534C69.736 81.7409 69.8176 81.8161 69.9413 81.8795C70.065 81.9431 70.2187 81.9951 70.404 82.036C70.5892 82.0768 70.797 82.1067 71.0273 82.1258C71.2591 82.1449 71.5014 82.1539 71.7542 82.1527C72.0491 82.1513 72.3063 82.1384 72.5258 82.1145C72.7439 82.0904 72.9363 82.0579 73.1031 82.0166C73.2684 81.9753 73.4141 81.9276 73.5372 81.873C73.6604 81.8184 73.7699 81.7593 73.8689 81.6955L69.6995 81.6534ZM80.3845 81.5342C80.3479 81.4455 80.2588 81.3678 80.1201 81.3011C79.9813 81.2345 79.8035 81.1782 79.5881 81.1329C79.3728 81.0874 79.1213 81.0536 78.8338 81.0315C78.5479 81.0094 78.2318 80.9991 77.8858 81.0008C77.5789 81.0023 77.3126 81.0161 77.0916 81.042C76.8705 81.0682 76.6781 81.103 76.5143 81.147C76.352 81.1909 76.2124 81.2421 76.0998 81.3005C75.9858 81.359 75.8792 81.4216 75.7817 81.4881L80.3845 81.5342Z" fill="#FCB048"/>
<path d="M75.5507 79.7029C69.1455 79.7029 62.4762 80.2675 61.4094 81.3603C61.4512 81.3988 61.49 81.44 61.526 81.4833C62.4252 80.7245 67.9322 79.9605 75.5507 79.9605C83.3649 79.9605 88.9601 80.7643 89.6379 81.5417C89.6712 81.4991 89.7068 81.4583 89.7453 81.4199C88.8642 80.2883 82.0697 79.7029 75.5507 79.7029Z" fill="url(#paint40_linear_111_6684)"/>
<path d="M59.3911 78.0157V81.2071C59.3911 82.2384 65.8226 83.0743 73.7564 83.0743C81.6901 83.0743 88.1216 82.2384 88.1216 81.2071V78.0157H59.3911Z" fill="url(#paint41_linear_111_6684)"/>
<path d="M88.1215 78.0156C88.1215 79.0468 81.69 79.8828 73.7562 79.8828C65.8225 79.8828 59.3909 79.0468 59.3909 78.0156C59.3909 76.9844 65.8225 76.1484 73.7562 76.1484C81.6899 76.1484 88.1215 76.9844 88.1215 78.0156Z" fill="url(#paint42_linear_111_6684)"/>
<path d="M73.7565 80.0117C66.7301 80.0117 59.3828 79.3395 59.3828 78.043C59.3828 77.9718 59.4082 77.8466 59.4793 77.8466C59.5504 77.8466 59.5198 77.9445 59.5198 78.0157C59.5198 78.8379 65.3666 79.754 73.7565 79.754C82.1463 79.754 87.9931 78.838 87.9931 78.0157C87.9931 77.9445 88.0052 77.8778 88.0763 77.8778C88.1474 77.8778 88.1303 77.9728 88.1303 78.044C88.1303 79.3405 80.7828 80.0117 73.7565 80.0117Z" fill="url(#paint43_linear_111_6684)"/>
<path d="M72.3992 78.1197C72.5401 78.022 72.6901 77.9257 72.8507 77.8305C73.0097 77.7355 73.2169 77.6495 73.4678 77.5728C73.7202 77.4961 74.0359 77.4337 74.4148 77.3853C74.7937 77.3369 75.2675 77.3114 75.8332 77.3086C76.3884 77.3058 76.9091 77.3235 77.3968 77.3615C77.883 77.3995 78.312 77.4564 78.6825 77.5321C79.0515 77.6077 79.3529 77.7013 79.5851 77.8125C79.8159 77.9241 79.9534 78.0517 79.9978 78.1956L81.6153 78.212C81.7327 78.2127 81.8365 78.2222 81.9254 78.2407C82.0157 78.2592 82.0595 78.2825 82.0596 78.3108L82.0603 78.4442L79.9808 78.4241C79.9079 78.5875 79.7221 78.7369 79.4233 78.8725C79.1261 79.0082 78.746 79.1255 78.2831 79.2249L77.5257 79.1194C77.458 79.109 77.4022 79.0958 77.3585 79.0797C77.3148 79.0639 77.2937 79.0465 77.2936 79.0276C77.2935 79.0019 77.352 78.9727 77.4692 78.9398C77.5864 78.9069 77.7186 78.8661 77.8658 78.8175C78.013 78.769 78.1572 78.7118 78.2997 78.6456C78.4409 78.5796 78.5353 78.5007 78.5845 78.4088L73.6763 78.3601C73.5474 78.4551 73.4019 78.5484 73.2428 78.6402C73.0823 78.7319 72.8706 78.8146 72.6061 78.8879C72.3417 78.9612 72.0125 79.0207 71.6185 79.0666C71.223 79.1123 70.7281 79.1366 70.1293 79.1396C69.6794 79.1417 69.2415 79.1247 68.8125 79.0884C68.3835 79.052 68.0027 78.9977 67.6698 78.9253C67.3369 78.8527 67.0642 78.7631 66.85 78.6564C66.6373 78.5496 66.5178 78.4269 66.4931 78.2883L65.1615 78.2745C65.0441 78.2738 64.9403 78.2646 64.8469 78.2468C64.755 78.2291 64.7082 78.2054 64.7081 78.1758L64.7075 78.0424L66.5281 78.0598C66.6087 77.9193 66.7736 77.7968 67.0258 77.6926C67.2781 77.5882 67.5861 77.4953 67.9498 77.4141L68.5596 77.498C68.7447 77.524 68.8367 77.5545 68.8368 77.5895C68.8369 77.6085 68.7995 77.6318 68.7228 77.6598C68.6447 77.6879 68.5546 77.7214 68.4495 77.7602C68.3459 77.7992 68.2437 77.8448 68.1462 77.8972C68.0472 77.9495 67.9738 78.0088 67.9244 78.0751L72.3992 78.1197ZM67.9074 78.3015C67.9439 78.389 68.0255 78.4643 68.1492 78.5277C68.2729 78.5912 68.4266 78.6433 68.6119 78.6841C68.7972 78.725 69.005 78.7549 69.2353 78.774C69.467 78.7931 69.7094 78.8021 69.9621 78.8009C70.257 78.7994 70.5142 78.7866 70.7338 78.7627C70.9518 78.7386 71.1443 78.7061 71.3111 78.6647C71.4764 78.6235 71.6221 78.5757 71.7452 78.5212C71.8683 78.4666 71.9778 78.4075 72.0768 78.3437L67.9074 78.3015ZM78.5924 78.1822C78.5558 78.0936 78.4667 78.0159 78.3279 77.9491C78.1892 77.8825 78.0114 77.8263 77.796 77.781C77.5806 77.7355 77.3292 77.7017 77.0417 77.6796C76.7557 77.6575 76.4397 77.6472 76.0936 77.6489C75.7867 77.6504 75.5204 77.6642 75.2994 77.6901C75.0784 77.7162 74.8859 77.751 74.7221 77.7951C74.5598 77.839 74.4202 77.8902 74.3076 77.9486C74.1936 78.0071 74.087 78.0696 73.9896 78.1362L78.5924 78.1822Z" fill="#FCB048"/>
<path d="M73.7585 76.3506C67.3533 76.3506 60.684 76.9151 59.6172 78.0079C59.6589 78.0465 59.6977 78.0876 59.7338 78.1309C60.633 77.3721 66.14 76.6082 73.7585 76.6082C81.5727 76.6082 87.1679 77.412 87.8457 78.1894C87.879 78.1468 87.9146 78.106 87.9531 78.0675C87.0719 76.936 80.2775 76.3506 73.7585 76.3506Z" fill="url(#paint44_linear_111_6684)"/>
<path d="M92.2081 80.2652L89.6117 82.1151C88.7727 82.7128 91.8205 88.4467 96.4191 94.9221C101.018 101.398 105.426 106.162 106.265 105.565L108.861 103.715L92.2081 80.2652Z" fill="url(#paint45_linear_111_6684)"/>
<path d="M108.861 103.715C108.022 104.313 103.614 99.5478 99.0155 93.0724C94.4169 86.597 91.3691 80.8631 92.2081 80.2654C93.0471 79.6677 97.4551 84.4324 102.054 90.9078C106.652 97.3832 109.7 103.117 108.861 103.715Z" fill="url(#paint46_linear_111_6684)"/>
<path d="M98.9107 93.1472C94.8381 87.4124 91.1263 81.026 92.1811 80.2745C92.239 80.2332 92.3555 80.1814 92.3967 80.2394C92.4379 80.2975 92.3405 80.3292 92.2826 80.3705C91.6137 80.8471 94.2574 86.1502 99.1204 92.9978C103.983 99.8455 108.118 104.087 108.787 103.61C108.844 103.569 108.906 103.54 108.947 103.598C108.988 103.656 108.901 103.697 108.843 103.738C107.788 104.49 102.983 98.882 98.9107 93.1472Z" fill="url(#paint47_linear_111_6684)"/>
<path d="M99.6632 90.9424C99.8245 91.0008 99.9897 91.0675 100.16 91.1433C100.33 91.218 100.52 91.3373 100.728 91.4976C100.936 91.6591 101.17 91.8806 101.429 92.1618C101.688 92.443 101.984 92.8149 102.314 93.275C102.638 93.7266 102.925 94.1618 103.177 94.5819C103.428 95.0006 103.63 95.3839 103.783 95.7301C103.936 96.0751 104.034 96.3753 104.078 96.6294C104.121 96.8824 104.097 97.0686 104.006 97.1882L104.93 98.5178C104.997 98.6141 105.05 98.7044 105.086 98.7876C105.124 98.8721 105.13 98.9213 105.107 98.9378L104.999 99.0157L103.81 97.3068C103.635 97.342 103.406 97.277 103.122 97.1117C102.84 96.9478 102.524 96.7056 102.175 96.3853L101.821 95.706C101.791 95.6447 101.769 95.5915 101.757 95.5465C101.744 95.5017 101.746 95.4744 101.762 95.4633C101.782 95.4483 101.84 95.4792 101.935 95.5558C102.029 95.6323 102.139 95.7166 102.264 95.8086C102.389 95.9007 102.519 95.9851 102.656 96.0632C102.791 96.1401 102.91 96.1714 103.013 96.1583L100.208 92.124C100.056 92.0739 99.8956 92.0093 99.7288 91.9327C99.5611 91.8548 99.3711 91.7299 99.1582 91.5566C98.9452 91.3832 98.706 91.149 98.4403 90.854C98.1739 90.5577 97.8673 90.1679 97.5178 89.6809C97.2552 89.315 97.0153 88.9477 96.7961 88.5766C96.5771 88.2053 96.4005 87.8629 96.2665 87.5493C96.1326 87.2355 96.0474 86.9609 96.01 86.7243C95.9737 86.4888 96.0042 86.3202 96.1027 86.2196L95.342 85.1248C95.2746 85.0286 95.2219 84.9385 95.1822 84.852C95.1435 84.7667 95.1356 84.7148 95.1596 84.6975L95.2677 84.6197L96.3089 86.1157C96.4699 86.1 96.6652 86.1636 96.8962 86.309C97.1273 86.4544 97.3813 86.652 97.6582 86.9018L97.9435 87.4481C98.0296 87.6143 98.0581 87.707 98.0297 87.7275C98.0143 87.7385 97.9736 87.7215 97.9064 87.6752C97.8384 87.6277 97.7589 87.5735 97.6663 87.5103C97.5745 87.4483 97.4783 87.3914 97.3791 87.3422C97.2791 87.2916 97.1883 87.2661 97.1057 87.2643L99.6632 90.9424ZM96.9118 87.3817C96.8618 87.4622 96.8479 87.5725 96.868 87.7102C96.888 87.8479 96.9347 88.0035 97.0089 88.1785C97.083 88.3534 97.1791 88.5403 97.2971 88.7393C97.4159 88.9396 97.549 89.1425 97.6965 89.3481C97.8686 89.588 98.0281 89.7905 98.1749 89.9558C98.3209 90.1198 98.4589 90.258 98.5891 90.3702C98.7185 90.4812 98.8418 90.5725 98.9576 90.6413C99.0733 90.7102 99.1849 90.7653 99.2942 90.8091L96.9118 87.3817ZM103.202 96.0335C103.253 95.9523 103.265 95.8345 103.239 95.6825C103.212 95.5307 103.155 95.353 103.067 95.1509C102.979 94.9488 102.861 94.7239 102.712 94.4765C102.564 94.2302 102.39 93.9664 102.188 93.685C102.009 93.4353 101.843 93.226 101.694 93.0606C101.544 92.8953 101.405 92.7584 101.274 92.6503C101.144 92.5433 101.021 92.459 100.909 92.401C100.795 92.3418 100.682 92.2911 100.572 92.2501L103.202 96.0335Z" fill="#FCB048"/>
<path d="M101.89 91.0267C98.1777 85.7988 93.8527 80.6827 92.3453 80.4454C92.3381 80.5019 92.3271 80.5574 92.3128 80.6119C93.4513 80.9059 97.2648 84.9578 101.681 91.176C106.21 97.5538 108.799 102.586 108.56 103.59C108.614 103.593 108.667 103.598 108.721 103.607C109.131 102.232 105.669 96.3474 101.89 91.0267Z" fill="url(#paint48_linear_111_6684)"/>
<defs>
<linearGradient id="paint0_linear_111_6684" x1="78.9685" y1="55.9409" x2="64.5043" y2="99.0277" gradientUnits="userSpaceOnUse">
<stop stop-color="#AA80F9"/>
<stop offset="0.9964" stop-color="#6165D7"/>
</linearGradient>
<linearGradient id="paint1_linear_111_6684" x1="92.8516" y1="77.6177" x2="30.8539" y2="102.946" gradientUnits="userSpaceOnUse">
<stop stop-color="#FF9085"/>
<stop offset="1" stop-color="#FB6FBB"/>
</linearGradient>
<linearGradient id="paint2_linear_111_6684" x1="50.2562" y1="24.5586" x2="36.3747" y2="46.8761" gradientUnits="userSpaceOnUse">
<stop stop-color="#FF9085"/>
<stop offset="1" stop-color="#FB6FBB"/>
</linearGradient>
<linearGradient id="paint3_linear_111_6684" x1="38.8047" y1="23.6479" x2="29.0649" y2="52.6612" gradientUnits="userSpaceOnUse">
<stop stop-color="#AA80F9"/>
<stop offset="0.9964" stop-color="#6165D7"/>
</linearGradient>
<linearGradient id="paint4_linear_111_6684" x1="1.65333" y1="43.6818" x2="77.6024" y2="74.7102" gradientUnits="userSpaceOnUse">
<stop stop-color="#FF9085"/>
<stop offset="1" stop-color="#FB6FBB"/>
</linearGradient>
<linearGradient id="paint5_linear_111_6684" x1="18.1596" y1="31.2059" x2="72.5037" y2="90.9945" gradientUnits="userSpaceOnUse">
<stop offset="0.0036" stop-color="#26264F"/>
<stop offset="1" stop-color="#444B8C"/>
</linearGradient>
<linearGradient id="paint6_linear_111_6684" x1="17.4539" y1="60.1961" x2="85.6302" y2="58.2995" gradientUnits="userSpaceOnUse">
<stop stop-color="#444B8C"/>
<stop offset="0.9964" stop-color="#26264F"/>
</linearGradient>
<linearGradient id="paint7_linear_111_6684" x1="65.7033" y1="76.4378" x2="24.3737" y2="42.6766" gradientUnits="userSpaceOnUse">
<stop stop-color="#444B8C"/>
<stop offset="0.9964" stop-color="#26264F"/>
</linearGradient>
<linearGradient id="paint8_linear_111_6684" x1="48.6758" y1="93.6638" x2="47.5449" y2="102.262" gradientUnits="userSpaceOnUse">
<stop stop-color="#444B8C"/>
<stop offset="0.9964" stop-color="#26264F"/>
</linearGradient>
<linearGradient id="paint9_linear_111_6684" x1="35.0564" y1="72.4731" x2="-5.87472" y2="121.869" gradientUnits="userSpaceOnUse">
<stop offset="0.0036" stop-color="#F36F56"/>
<stop offset="1" stop-color="#FFC444"/>
</linearGradient>
<linearGradient id="paint10_linear_111_6684" x1="47.5767" y1="82.8475" x2="6.64562" y2="132.243" gradientUnits="userSpaceOnUse">
<stop offset="0.0036" stop-color="#F36F56"/>
<stop offset="1" stop-color="#FFC444"/>
</linearGradient>
<linearGradient id="paint11_linear_111_6684" x1="22.2231" y1="84.1538" x2="95.3244" y2="11.1691" gradientUnits="userSpaceOnUse">
<stop stop-color="#FFC444"/>
<stop offset="0.9964" stop-color="#F36F56"/>
</linearGradient>
<linearGradient id="paint12_linear_111_6684" x1="30.6268" y1="92.5707" x2="103.728" y2="19.5862" gradientUnits="userSpaceOnUse">
<stop stop-color="#FFC444"/>
<stop offset="0.9964" stop-color="#F36F56"/>
</linearGradient>
<linearGradient id="paint13_linear_111_6684" x1="59.275" y1="104.255" x2="92.3278" y2="104.255" gradientUnits="userSpaceOnUse">
<stop stop-color="#F57E53"/>
<stop offset="0.0045" stop-color="#F58152"/>
<stop offset="0.042" stop-color="#F99A4D"/>
<stop offset="0.084" stop-color="#FCAD49"/>
<stop offset="0.1333" stop-color="#FEBA46"/>
<stop offset="0.1962" stop-color="#FFC244"/>
<stop offset="0.3183" stop-color="#FFC444"/>
<stop offset="0.455" stop-color="#FDB946"/>
<stop offset="0.6941" stop-color="#F99C4C"/>
<stop offset="0.9964" stop-color="#F36F56"/>
</linearGradient>
<linearGradient id="paint14_linear_111_6684" x1="75.9531" y1="100.526" x2="77.7011" y2="115.136" gradientUnits="userSpaceOnUse">
<stop stop-color="#FFDB44"/>
<stop offset="1" stop-color="#FEEF06"/>
</linearGradient>
<linearGradient id="paint15_linear_111_6684" x1="75.8776" y1="99.8739" x2="76.4145" y2="104.361" gradientUnits="userSpaceOnUse">
<stop stop-color="#FFDB44"/>
<stop offset="1" stop-color="#FEEF06"/>
</linearGradient>
<linearGradient id="paint16_linear_111_6684" x1="76.3808" y1="103.891" x2="75.8459" y2="99.4197" gradientUnits="userSpaceOnUse">
<stop offset="0.0036" stop-color="#F36F56"/>
<stop offset="0.3059" stop-color="#F99C4C"/>
<stop offset="0.545" stop-color="#FDB946"/>
<stop offset="0.6817" stop-color="#FFC444"/>
<stop offset="0.8038" stop-color="#FFC244"/>
<stop offset="0.8667" stop-color="#FEBA46"/>
<stop offset="0.916" stop-color="#FCAD49"/>
<stop offset="0.958" stop-color="#F99A4D"/>
<stop offset="0.9955" stop-color="#F58152"/>
<stop offset="1" stop-color="#F57E53"/>
</linearGradient>
<linearGradient id="paint17_linear_111_6684" x1="55.2816" y1="100.902" x2="88.3344" y2="100.902" gradientUnits="userSpaceOnUse">
<stop stop-color="#F57E53"/>
<stop offset="0.0045" stop-color="#F58152"/>
<stop offset="0.042" stop-color="#F99A4D"/>
<stop offset="0.084" stop-color="#FCAD49"/>
<stop offset="0.1333" stop-color="#FEBA46"/>
<stop offset="0.1962" stop-color="#FFC244"/>
<stop offset="0.3183" stop-color="#FFC444"/>
<stop offset="0.455" stop-color="#FDB946"/>
<stop offset="0.6941" stop-color="#F99C4C"/>
<stop offset="0.9964" stop-color="#F36F56"/>
</linearGradient>
<linearGradient id="paint18_linear_111_6684" x1="71.9596" y1="97.1733" x2="73.7076" y2="111.783" gradientUnits="userSpaceOnUse">
<stop stop-color="#FFDB44"/>
<stop offset="1" stop-color="#FEEF06"/>
</linearGradient>
<linearGradient id="paint19_linear_111_6684" x1="71.8841" y1="96.5216" x2="72.421" y2="101.009" gradientUnits="userSpaceOnUse">
<stop stop-color="#FFDB44"/>
<stop offset="1" stop-color="#FEEF06"/>
</linearGradient>
<linearGradient id="paint20_linear_111_6684" x1="72.3874" y1="100.538" x2="71.8524" y2="96.0673" gradientUnits="userSpaceOnUse">
<stop offset="0.0036" stop-color="#F36F56"/>
<stop offset="0.3059" stop-color="#F99C4C"/>
<stop offset="0.545" stop-color="#FDB946"/>
<stop offset="0.6817" stop-color="#FFC444"/>
<stop offset="0.8038" stop-color="#FFC244"/>
<stop offset="0.8667" stop-color="#FEBA46"/>
<stop offset="0.916" stop-color="#FCAD49"/>
<stop offset="0.958" stop-color="#F99A4D"/>
<stop offset="0.9955" stop-color="#F58152"/>
<stop offset="1" stop-color="#F57E53"/>
</linearGradient>
<linearGradient id="paint21_linear_111_6684" x1="58.7273" y1="97.5604" x2="91.7801" y2="97.5604" gradientUnits="userSpaceOnUse">
<stop stop-color="#F57E53"/>
<stop offset="0.0045" stop-color="#F58152"/>
<stop offset="0.042" stop-color="#F99A4D"/>
<stop offset="0.084" stop-color="#FCAD49"/>
<stop offset="0.1333" stop-color="#FEBA46"/>
<stop offset="0.1962" stop-color="#FFC244"/>
<stop offset="0.3183" stop-color="#FFC444"/>
<stop offset="0.455" stop-color="#FDB946"/>
<stop offset="0.6941" stop-color="#F99C4C"/>
<stop offset="0.9964" stop-color="#F36F56"/>
</linearGradient>
<linearGradient id="paint22_linear_111_6684" x1="75.4053" y1="93.8311" x2="77.1533" y2="108.441" gradientUnits="userSpaceOnUse">
<stop stop-color="#FFDB44"/>
<stop offset="1" stop-color="#FEEF06"/>
</linearGradient>
<linearGradient id="paint23_linear_111_6684" x1="75.33" y1="93.1796" x2="75.8668" y2="97.6666" gradientUnits="userSpaceOnUse">
<stop stop-color="#FFDB44"/>
<stop offset="1" stop-color="#FEEF06"/>
</linearGradient>
<linearGradient id="paint24_linear_111_6684" x1="75.833" y1="97.1961" x2="75.298" y2="92.725" gradientUnits="userSpaceOnUse">
<stop offset="0.0036" stop-color="#F36F56"/>
<stop offset="0.3059" stop-color="#F99C4C"/>
<stop offset="0.545" stop-color="#FDB946"/>
<stop offset="0.6817" stop-color="#FFC444"/>
<stop offset="0.8038" stop-color="#FFC244"/>
<stop offset="0.8667" stop-color="#FEBA46"/>
<stop offset="0.916" stop-color="#FCAD49"/>
<stop offset="0.958" stop-color="#F99A4D"/>
<stop offset="0.9955" stop-color="#F58152"/>
<stop offset="1" stop-color="#F57E53"/>
</linearGradient>
<linearGradient id="paint25_linear_111_6684" x1="60.8183" y1="94.2083" x2="93.8712" y2="94.2083" gradientUnits="userSpaceOnUse">
<stop stop-color="#F57E53"/>
<stop offset="0.0045" stop-color="#F58152"/>
<stop offset="0.042" stop-color="#F99A4D"/>
<stop offset="0.084" stop-color="#FCAD49"/>
<stop offset="0.1333" stop-color="#FEBA46"/>
<stop offset="0.1962" stop-color="#FFC244"/>
<stop offset="0.3183" stop-color="#FFC444"/>
<stop offset="0.455" stop-color="#FDB946"/>
<stop offset="0.6941" stop-color="#F99C4C"/>
<stop offset="0.9964" stop-color="#F36F56"/>
</linearGradient>
<linearGradient id="paint26_linear_111_6684" x1="77.4965" y1="90.4789" x2="79.2445" y2="105.089" gradientUnits="userSpaceOnUse">
<stop stop-color="#FFDB44"/>
<stop offset="1" stop-color="#FEEF06"/>
</linearGradient>
<linearGradient id="paint27_linear_111_6684" x1="77.4212" y1="89.8275" x2="77.958" y2="94.3144" gradientUnits="userSpaceOnUse">
<stop stop-color="#FFDB44"/>
<stop offset="1" stop-color="#FEEF06"/>
</linearGradient>
<linearGradient id="paint28_linear_111_6684" x1="77.9241" y1="93.8445" x2="77.3892" y2="89.3734" gradientUnits="userSpaceOnUse">
<stop offset="0.0036" stop-color="#F36F56"/>
<stop offset="0.3059" stop-color="#F99C4C"/>
<stop offset="0.545" stop-color="#FDB946"/>
<stop offset="0.6817" stop-color="#FFC444"/>
<stop offset="0.8038" stop-color="#FFC244"/>
<stop offset="0.8667" stop-color="#FEBA46"/>
<stop offset="0.916" stop-color="#FCAD49"/>
<stop offset="0.958" stop-color="#F99A4D"/>
<stop offset="0.9955" stop-color="#F58152"/>
<stop offset="1" stop-color="#F57E53"/>
</linearGradient>
<linearGradient id="paint29_linear_111_6684" x1="59.275" y1="90.5917" x2="92.3278" y2="90.5917" gradientUnits="userSpaceOnUse">
<stop stop-color="#F57E53"/>
<stop offset="0.0045" stop-color="#F58152"/>
<stop offset="0.042" stop-color="#F99A4D"/>
<stop offset="0.084" stop-color="#FCAD49"/>
<stop offset="0.1333" stop-color="#FEBA46"/>
<stop offset="0.1962" stop-color="#FFC244"/>
<stop offset="0.3183" stop-color="#FFC444"/>
<stop offset="0.455" stop-color="#FDB946"/>
<stop offset="0.6941" stop-color="#F99C4C"/>
<stop offset="0.9964" stop-color="#F36F56"/>
</linearGradient>
<linearGradient id="paint30_linear_111_6684" x1="75.9531" y1="86.8624" x2="77.7011" y2="101.472" gradientUnits="userSpaceOnUse">
<stop stop-color="#FFDB44"/>
<stop offset="1" stop-color="#FEEF06"/>
</linearGradient>
<linearGradient id="paint31_linear_111_6684" x1="75.8776" y1="86.2109" x2="76.4145" y2="90.6978" gradientUnits="userSpaceOnUse">
<stop stop-color="#FFDB44"/>
<stop offset="1" stop-color="#FEEF06"/>
</linearGradient>
<linearGradient id="paint32_linear_111_6684" x1="76.3809" y1="90.2277" x2="75.8459" y2="85.7566" gradientUnits="userSpaceOnUse">
<stop offset="0.0036" stop-color="#F36F56"/>
<stop offset="0.3059" stop-color="#F99C4C"/>
<stop offset="0.545" stop-color="#FDB946"/>
<stop offset="0.6817" stop-color="#FFC444"/>
<stop offset="0.8038" stop-color="#FFC244"/>
<stop offset="0.8667" stop-color="#FEBA46"/>
<stop offset="0.916" stop-color="#FCAD49"/>
<stop offset="0.958" stop-color="#F99A4D"/>
<stop offset="0.9955" stop-color="#F58152"/>
<stop offset="1" stop-color="#F57E53"/>
</linearGradient>
<linearGradient id="paint33_linear_111_6684" x1="55.2816" y1="87.2396" x2="88.3344" y2="87.2396" gradientUnits="userSpaceOnUse">
<stop stop-color="#F57E53"/>
<stop offset="0.0045" stop-color="#F58152"/>
<stop offset="0.042" stop-color="#F99A4D"/>
<stop offset="0.084" stop-color="#FCAD49"/>
<stop offset="0.1333" stop-color="#FEBA46"/>
<stop offset="0.1962" stop-color="#FFC244"/>
<stop offset="0.3183" stop-color="#FFC444"/>
<stop offset="0.455" stop-color="#FDB946"/>
<stop offset="0.6941" stop-color="#F99C4C"/>
<stop offset="0.9964" stop-color="#F36F56"/>
</linearGradient>
<linearGradient id="paint34_linear_111_6684" x1="71.9597" y1="83.5103" x2="73.7077" y2="98.1203" gradientUnits="userSpaceOnUse">
<stop stop-color="#FFDB44"/>
<stop offset="1" stop-color="#FEEF06"/>
</linearGradient>
<linearGradient id="paint35_linear_111_6684" x1="71.8841" y1="82.8588" x2="72.421" y2="87.3458" gradientUnits="userSpaceOnUse">
<stop stop-color="#FFDB44"/>
<stop offset="1" stop-color="#FEEF06"/>
</linearGradient>
<linearGradient id="paint36_linear_111_6684" x1="72.3874" y1="86.8753" x2="71.8524" y2="82.4042" gradientUnits="userSpaceOnUse">
<stop offset="0.0036" stop-color="#F36F56"/>
<stop offset="0.3059" stop-color="#F99C4C"/>
<stop offset="0.545" stop-color="#FDB946"/>
<stop offset="0.6817" stop-color="#FFC444"/>
<stop offset="0.8038" stop-color="#FFC244"/>
<stop offset="0.8667" stop-color="#FEBA46"/>
<stop offset="0.916" stop-color="#FCAD49"/>
<stop offset="0.958" stop-color="#F99A4D"/>
<stop offset="0.9955" stop-color="#F58152"/>
<stop offset="1" stop-color="#F57E53"/>
</linearGradient>
<linearGradient id="paint37_linear_111_6684" x1="58.7273" y1="83.8971" x2="91.7801" y2="83.8971" gradientUnits="userSpaceOnUse">
<stop stop-color="#F57E53"/>
<stop offset="0.0045" stop-color="#F58152"/>
<stop offset="0.042" stop-color="#F99A4D"/>
<stop offset="0.084" stop-color="#FCAD49"/>
<stop offset="0.1333" stop-color="#FEBA46"/>
<stop offset="0.1962" stop-color="#FFC244"/>
<stop offset="0.3183" stop-color="#FFC444"/>
<stop offset="0.455" stop-color="#FDB946"/>
<stop offset="0.6941" stop-color="#F99C4C"/>
<stop offset="0.9964" stop-color="#F36F56"/>
</linearGradient>
<linearGradient id="paint38_linear_111_6684" x1="75.4053" y1="80.1678" x2="77.1533" y2="94.7778" gradientUnits="userSpaceOnUse">
<stop stop-color="#FFDB44"/>
<stop offset="1" stop-color="#FEEF06"/>
</linearGradient>
<linearGradient id="paint39_linear_111_6684" x1="75.33" y1="79.5163" x2="75.8668" y2="84.0032" gradientUnits="userSpaceOnUse">
<stop stop-color="#FFDB44"/>
<stop offset="1" stop-color="#FEEF06"/>
</linearGradient>
<linearGradient id="paint40_linear_111_6684" x1="75.833" y1="83.5332" x2="75.298" y2="79.0622" gradientUnits="userSpaceOnUse">
<stop offset="0.0036" stop-color="#F36F56"/>
<stop offset="0.3059" stop-color="#F99C4C"/>
<stop offset="0.545" stop-color="#FDB946"/>
<stop offset="0.6817" stop-color="#FFC444"/>
<stop offset="0.8038" stop-color="#FFC244"/>
<stop offset="0.8667" stop-color="#FEBA46"/>
<stop offset="0.916" stop-color="#FCAD49"/>
<stop offset="0.958" stop-color="#F99A4D"/>
<stop offset="0.9955" stop-color="#F58152"/>
<stop offset="1" stop-color="#F57E53"/>
</linearGradient>
<linearGradient id="paint41_linear_111_6684" x1="56.9349" y1="80.545" x2="89.9877" y2="80.545" gradientUnits="userSpaceOnUse">
<stop stop-color="#F57E53"/>
<stop offset="0.0045" stop-color="#F58152"/>
<stop offset="0.042" stop-color="#F99A4D"/>
<stop offset="0.084" stop-color="#FCAD49"/>
<stop offset="0.1333" stop-color="#FEBA46"/>
<stop offset="0.1962" stop-color="#FFC244"/>
<stop offset="0.3183" stop-color="#FFC444"/>
<stop offset="0.455" stop-color="#FDB946"/>
<stop offset="0.6941" stop-color="#F99C4C"/>
<stop offset="0.9964" stop-color="#F36F56"/>
</linearGradient>
<linearGradient id="paint42_linear_111_6684" x1="73.6131" y1="76.8156" x2="75.3611" y2="91.4257" gradientUnits="userSpaceOnUse">
<stop stop-color="#FFDB44"/>
<stop offset="1" stop-color="#FEEF06"/>
</linearGradient>
<linearGradient id="paint43_linear_111_6684" x1="73.5377" y1="76.1642" x2="74.0745" y2="80.6512" gradientUnits="userSpaceOnUse">
<stop stop-color="#FFDB44"/>
<stop offset="1" stop-color="#FEEF06"/>
</linearGradient>
<linearGradient id="paint44_linear_111_6684" x1="74.0407" y1="80.1809" x2="73.5058" y2="75.7098" gradientUnits="userSpaceOnUse">
<stop offset="0.0036" stop-color="#F36F56"/>
<stop offset="0.3059" stop-color="#F99C4C"/>
<stop offset="0.545" stop-color="#FDB946"/>
<stop offset="0.6817" stop-color="#FFC444"/>
<stop offset="0.8038" stop-color="#FFC244"/>
<stop offset="0.8667" stop-color="#FEBA46"/>
<stop offset="0.916" stop-color="#FCAD49"/>
<stop offset="0.958" stop-color="#F99A4D"/>
<stop offset="0.9955" stop-color="#F58152"/>
<stop offset="1" stop-color="#F57E53"/>
</linearGradient>
<linearGradient id="paint45_linear_111_6684" x1="88.7273" y1="79.7261" x2="107.925" y2="106.675" gradientUnits="userSpaceOnUse">
<stop stop-color="#F57E53"/>
<stop offset="0.0045" stop-color="#F58152"/>
<stop offset="0.042" stop-color="#F99A4D"/>
<stop offset="0.084" stop-color="#FCAD49"/>
<stop offset="0.1333" stop-color="#FEBA46"/>
<stop offset="0.1962" stop-color="#FFC244"/>
<stop offset="0.3183" stop-color="#FFC444"/>
<stop offset="0.455" stop-color="#FDB946"/>
<stop offset="0.6941" stop-color="#F99C4C"/>
<stop offset="0.9964" stop-color="#F36F56"/>
</linearGradient>
<linearGradient id="paint46_linear_111_6684" x1="101.428" y1="91.1779" x2="90.5362" y2="101.05" gradientUnits="userSpaceOnUse">
<stop stop-color="#FFDB44"/>
<stop offset="1" stop-color="#FEEF06"/>
</linearGradient>
<linearGradient id="paint47_linear_111_6684" x1="101.914" y1="90.7388" x2="98.569" y2="93.7705" gradientUnits="userSpaceOnUse">
<stop stop-color="#FFDB44"/>
<stop offset="1" stop-color="#FEEF06"/>
</linearGradient>
<linearGradient id="paint48_linear_111_6684" x1="98.938" y1="93.4768" x2="102.271" y2="90.4559" gradientUnits="userSpaceOnUse">
<stop offset="0.0036" stop-color="#F36F56"/>
<stop offset="0.3059" stop-color="#F99C4C"/>
<stop offset="0.545" stop-color="#FDB946"/>
<stop offset="0.6817" stop-color="#FFC444"/>
<stop offset="0.8038" stop-color="#FFC244"/>
<stop offset="0.8667" stop-color="#FEBA46"/>
<stop offset="0.916" stop-color="#FCAD49"/>
<stop offset="0.958" stop-color="#F99A4D"/>
<stop offset="0.9955" stop-color="#F58152"/>
<stop offset="1" stop-color="#F57E53"/>
</linearGradient>
</defs>
</svg>
