<svg width="126" height="137" viewBox="0 0 126 137" fill="none" xmlns="http://www.w3.org/2000/svg">
<path d="M114.561 58.0082C111.437 37.5616 98.6292 12.4414 73.3266 9.81254C73.3266 9.81254 54.1156 7.47582 35.1778 11.0173C23.9382 13.1193 14.0827 19.3762 7.84661 28.3689C1.6104 37.3616 -0.472673 48.327 2.05541 58.7811C3.69738 65.5712 4.80696 72.5987 4.50241 79.5759C3.97246 91.719 4.27735 103.054 16.062 110.296C26.5844 116.762 39.8269 122.465 52.4604 123.464C61.0461 124.142 70.6744 123.044 78.9494 120.809C121.12 109.417 117.684 78.4549 114.561 58.0082Z" fill="#F1EAFF"/>
<path d="M83.8629 20.246L83.7708 20.2707C83.8949 20.5033 83.9973 20.7515 84.0683 21.0166L104.784 98.3294C104.863 98.6245 104.901 98.9223 104.904 99.2155C104.91 100.077 104.597 100.9 104.054 101.541L104.056 101.542L104.031 101.569C104.006 101.598 103.98 101.625 103.955 101.653C103.918 101.693 103.881 101.732 103.842 101.77C103.814 101.798 103.786 101.824 103.757 101.851C103.718 101.887 103.678 101.923 103.637 101.957C103.607 101.983 103.576 102.008 103.545 102.032C103.503 102.065 103.46 102.097 103.416 102.129C103.384 102.152 103.352 102.175 103.319 102.197C103.273 102.227 103.227 102.256 103.18 102.284C103.146 102.304 103.113 102.325 103.078 102.344C103.028 102.371 102.977 102.397 102.925 102.422C102.892 102.439 102.859 102.456 102.825 102.472C102.767 102.498 102.708 102.521 102.648 102.544C102.618 102.556 102.589 102.569 102.558 102.58C102.467 102.613 102.375 102.642 102.28 102.668L47.1098 117.45C45.721 117.823 44.294 117.303 43.4389 116.248L42.1249 116.601C41.1327 116.866 40.1209 116.679 39.3122 116.166C39.0426 115.995 38.7956 115.788 38.5794 115.549C38.2911 115.231 38.0576 114.858 37.8984 114.439C37.8559 114.328 37.8187 114.213 37.7872 114.096L39.044 118.786C39.5483 120.668 41.5002 121.795 43.3817 121.291L106.412 104.402C108.294 103.898 109.421 101.946 108.916 100.064L88.2005 22.751C87.6963 20.8691 85.7444 19.7419 83.8629 20.246Z" fill="#4B2770"/>
<path d="M78.7996 19.446C78.8118 19.4692 78.823 19.493 78.8348 19.5166C78.8735 19.5947 78.9096 19.6745 78.9427 19.7563C78.9544 19.7849 78.9663 19.8131 78.9772 19.8421C79.0169 19.9475 79.0533 20.0549 79.083 20.1658C79.0831 20.1662 79.0833 20.1666 79.0834 20.167L99.7993 97.4797C99.7995 97.4803 99.7995 97.4808 99.7997 97.4814C99.8345 97.6114 99.8597 97.7416 99.8792 97.8718C99.8838 97.9028 99.8857 97.9337 99.8894 97.9648C99.9021 98.0685 99.911 98.1718 99.9144 98.2749C99.9152 98.3018 99.9149 98.3284 99.9151 98.3552C99.9162 98.4674 99.9122 98.5788 99.9027 98.6895C99.9014 98.7047 99.9001 98.7197 99.8987 98.7349C99.8861 98.8622 99.8673 98.9881 99.8412 99.1124C99.8411 99.1125 99.8411 99.1128 99.8411 99.113L99.845 99.1119L104.055 101.541C104.597 100.901 104.91 100.077 104.904 99.2158C104.901 98.9227 104.864 98.6249 104.785 98.3297L84.0686 21.0168C83.9975 20.7517 83.8952 20.5036 83.7711 20.2709C83.0135 18.8507 81.3486 18.0783 79.7309 18.5118L78.4171 18.8638C78.424 18.8723 78.4296 18.8818 78.4364 18.8902C78.5734 19.0621 78.6953 19.2477 78.7996 19.446Z" fill="#FBD6C0"/>
<path d="M99.8409 99.1126C99.8409 99.1128 99.8408 99.1128 99.8408 99.113C99.8248 99.1891 99.8062 99.2644 99.7852 99.3391C99.7829 99.3475 99.7802 99.3559 99.7779 99.3643C99.7156 99.5808 99.6334 99.7899 99.5322 99.9898C99.5224 100.009 99.5124 100.029 99.5022 100.048C99.4702 100.108 99.4375 100.168 99.402 100.227C99.396 100.237 99.3892 100.247 99.383 100.257C99.3189 100.36 99.2492 100.46 99.1748 100.557C99.1496 100.59 99.1246 100.623 99.0983 100.655C99.0647 100.695 99.0306 100.735 98.9952 100.774C98.9584 100.815 98.9201 100.854 98.8814 100.893C98.8449 100.93 98.8086 100.967 98.7704 101.002C98.7108 101.057 98.6492 101.111 98.5856 101.162C98.5559 101.186 98.5254 101.208 98.4949 101.231C98.4387 101.274 98.3811 101.314 98.3222 101.353C98.2956 101.371 98.2696 101.389 98.2424 101.406C98.1576 101.459 98.0704 101.508 97.9806 101.554C97.9594 101.565 97.9374 101.574 97.9159 101.585C97.8406 101.621 97.7636 101.655 97.6849 101.686C97.6573 101.697 97.6299 101.708 97.6018 101.718C97.5017 101.755 97.4 101.79 97.295 101.818L43.4388 116.248C44.294 117.303 45.721 117.822 47.1097 117.45L102.28 102.668C102.375 102.642 102.467 102.613 102.558 102.58C102.589 102.569 102.618 102.556 102.648 102.544C102.708 102.521 102.767 102.498 102.825 102.472C102.859 102.456 102.892 102.439 102.925 102.422C102.977 102.397 103.028 102.371 103.078 102.344C103.113 102.324 103.146 102.304 103.18 102.284C103.227 102.256 103.273 102.227 103.319 102.197C103.352 102.175 103.384 102.152 103.416 102.129C103.46 102.097 103.503 102.065 103.545 102.032C103.576 102.008 103.607 101.983 103.637 101.957C103.678 101.923 103.718 101.887 103.757 101.851C103.786 101.824 103.815 101.798 103.842 101.77C103.881 101.732 103.918 101.692 103.955 101.653C103.98 101.625 104.006 101.598 104.031 101.569L104.056 101.542L104.054 101.54L99.8447 99.1115L99.8409 99.1126Z" fill="#F9C5AC"/>
<path d="M38.5793 115.549C38.7955 115.788 39.0426 115.995 39.3122 116.166C40.1209 116.679 41.1327 116.866 42.1248 116.6L97.2951 101.818C97.4 101.79 97.5018 101.755 97.6019 101.718C97.6299 101.708 97.6574 101.697 97.685 101.686C97.7637 101.655 97.8407 101.621 97.916 101.585C97.9375 101.574 97.9595 101.565 97.9807 101.554C98.0705 101.508 98.1577 101.459 98.2424 101.406C98.2696 101.389 98.2956 101.371 98.3222 101.353C98.3811 101.314 98.4387 101.274 98.4949 101.231C98.5255 101.208 98.556 101.186 98.5857 101.162C98.6494 101.111 98.7108 101.057 98.7705 101.002C98.8087 100.967 98.845 100.93 98.8815 100.893C98.9202 100.854 98.9584 100.815 98.9952 100.774C99.0306 100.735 99.0648 100.695 99.0983 100.655C99.1246 100.623 99.1496 100.59 99.1748 100.557C99.2493 100.46 99.3189 100.36 99.3831 100.257C99.3892 100.247 99.396 100.237 99.4021 100.227C99.4375 100.168 99.4702 100.109 99.5023 100.048C99.5125 100.029 99.5224 100.009 99.5323 99.9899C99.6335 99.7899 99.7156 99.5808 99.7779 99.3644C99.7803 99.3559 99.783 99.3476 99.7853 99.3391C99.8062 99.2644 99.8249 99.1891 99.8409 99.113C99.8409 99.1127 99.841 99.1124 99.8411 99.112C99.8672 98.9878 99.886 98.8619 99.8985 98.7345C99.9 98.7194 99.9014 98.7043 99.9026 98.6892C99.9121 98.5785 99.9161 98.4671 99.915 98.3549C99.9147 98.3281 99.9152 98.3014 99.9143 98.2745C99.9109 98.1715 99.902 98.0681 99.8893 97.9645C99.8855 97.9334 99.8837 97.9025 99.8791 97.8715C99.8596 97.7413 99.8343 97.6111 99.7996 97.481C99.7994 97.4805 99.7994 97.48 99.7992 97.4794L79.0833 20.1667C79.0832 20.1663 79.0831 20.1659 79.083 20.1655C79.0532 20.0545 79.0168 19.9472 78.9772 19.8417C78.9663 19.8128 78.9543 19.7845 78.9427 19.756C78.9095 19.6742 78.8735 19.5943 78.8347 19.5163C78.823 19.4927 78.8118 19.4689 78.7995 19.4457C78.6953 19.2474 78.5734 19.0618 78.4363 18.89C78.4181 18.8671 78.3991 18.8451 78.3804 18.8229C78.3287 18.7613 78.2751 18.7017 78.2196 18.644C78.1974 18.6209 78.1756 18.5975 78.1528 18.5751C78.0773 18.5006 77.9996 18.4286 77.9181 18.3613C77.7647 18.2346 77.6028 18.1187 77.431 18.0194C77.3327 17.9627 77.2317 17.9105 77.1284 17.8634C76.7153 17.6745 76.265 17.5636 75.8014 17.5443C75.6855 17.5396 75.5688 17.5405 75.4516 17.5474C75.2172 17.5611 74.9809 17.5987 74.7457 17.6617L54.236 23.1572C56.4784 23.916 58.6296 24.9349 60.6677 26.1811L71.9826 23.1493C73.7427 22.6777 75.5715 23.7749 76.0593 25.5954L94.466 94.2901C94.9538 96.1105 93.9186 97.9752 92.1585 98.4468L44.8878 111.113C43.1277 111.585 41.2989 110.487 40.8111 108.667L40.5663 107.754C39.0109 107.642 37.4617 107.448 35.9295 107.162L37.7872 114.096C37.8187 114.213 37.8559 114.328 37.8983 114.439C38.0576 114.857 38.2911 115.231 38.5793 115.549Z" fill="#8659A0"/>
<path d="M22.9268 39.8325L41.1368 107.793C41.9826 107.842 42.8299 107.865 43.6774 107.863C43.2732 107.658 42.9535 107.291 42.827 106.819C42.5911 105.938 43.1134 105.034 43.9934 104.798C44.8734 104.562 45.778 105.084 46.0139 105.965C46.2138 106.711 45.8678 107.473 45.222 107.832C49.4293 107.667 53.6137 106.872 57.5803 105.438C67.6955 101.781 76.0761 93.7722 80.147 83.8172C83.9247 74.5792 83.6409 64.3591 80.8324 54.9024C78.3406 46.5119 74.0103 38.3651 67.9138 32.0378C65.8918 29.9392 63.6707 28.1019 61.2899 26.5746L24.8521 36.3381C23.3798 36.7326 22.5162 38.3002 22.9268 39.8325Z" fill="#764494"/>
<path d="M70.1169 65.4998L67.4513 69.8241C67.2075 70.2198 67.1738 70.7101 67.3614 71.1354L67.4695 71.3803L69.4122 75.7836C69.7666 76.5869 69.3149 77.4333 68.5872 77.6898C68.5265 77.7111 68.464 77.7284 68.3998 77.7412C68.3035 77.7605 68.2036 77.7696 68.1012 77.7675C67.9986 77.7654 67.8936 77.752 67.787 77.7261L62.851 76.5263C62.3994 76.4165 61.9227 76.5361 61.5763 76.8459L57.7903 80.2325C57.6813 80.3301 57.5641 80.4067 57.4425 80.4638C57.3817 80.4924 57.3198 80.5161 57.2572 80.535C57.2249 80.5448 57.1922 80.5499 57.1596 80.5572C57.2216 80.7595 57.3221 80.9387 57.4555 81.0849L57.4883 81.1196C57.5439 81.1765 57.6041 81.2284 57.6679 81.2748L57.7067 81.302L57.7264 81.3152L57.7664 81.3404C57.8203 81.3731 57.8763 81.4023 57.9339 81.4278L57.9774 81.446C58.0212 81.4637 58.0658 81.4792 58.1112 81.4925C58.1414 81.5013 58.1719 81.5092 58.2027 81.5161L58.2258 81.521L58.2723 81.5298L58.3426 81.5401L58.3898 81.545L58.4609 81.5494C58.5164 81.5514 58.5721 81.5502 58.6278 81.5455L58.6517 81.5434L58.6965 81.5381L58.7254 81.5339L58.7709 81.5261L58.7946 81.5214C59.0241 81.4736 59.2482 81.3655 59.4459 81.1888L63.2319 77.8021C63.2536 77.7828 63.2757 77.7641 63.2984 77.7463C63.3436 77.7105 63.3907 77.6778 63.4395 77.6482C63.5369 77.5889 63.6407 77.5419 63.7483 77.508C63.7753 77.4995 63.8024 77.4918 63.8298 77.485C63.8571 77.4781 63.8847 77.4721 63.9124 77.4669C64.0373 77.4434 64.1655 77.4368 64.2936 77.4477C64.3221 77.4502 64.3506 77.4535 64.379 77.4577C64.4216 77.464 64.4642 77.4722 64.5066 77.4826L69.4426 78.6823C69.647 78.732 69.8456 78.7356 70.0312 78.7021L70.0554 78.6975C70.0874 78.6911 70.1192 78.6835 70.1504 78.675L70.1737 78.6683L70.2199 78.6539C70.2887 78.631 70.3551 78.6029 70.4187 78.57C70.454 78.5518 70.4884 78.532 70.5219 78.5109L70.5812 78.4715C70.6135 78.4488 70.6449 78.4249 70.6752 78.3997L70.711 78.3689C70.7993 78.2903 70.8778 78.201 70.9443 78.1035L70.9703 78.064L70.995 78.0237L71.0184 77.9826C71.0449 77.9341 71.0686 77.8841 71.0894 77.8328L71.1065 77.7884C71.1555 77.6544 71.1845 77.5119 71.1901 77.3651L71.191 77.316L71.1908 77.2913L71.1891 77.2419C71.1878 77.217 71.1859 77.1922 71.1832 77.1672C71.1779 77.1173 71.1697 77.067 71.1587 77.0168L71.1529 76.9916C71.1329 76.9077 71.1047 76.8236 71.0678 76.7399L69.1251 72.3366L69.0171 72.0917C68.8295 71.6664 68.8631 71.1761 69.107 70.7804L71.7726 66.456C72.3868 65.4596 71.592 64.1913 70.4277 64.3096L70.2589 64.3268C70.3794 64.6954 70.3526 65.1173 70.1169 65.4998Z" fill="#4C2771"/>
<path d="M70.2587 64.3267C70.0651 63.7347 69.4894 63.2805 68.7719 63.3535L63.7565 63.8634L63.7184 63.8673C63.2561 63.9143 62.8002 63.7308 62.4993 63.3765L59.6104 59.9746L59.2108 59.5041C58.4531 58.6119 57.0015 58.9759 56.7544 60.12L55.6819 65.0858C55.5838 65.5402 55.2684 65.9171 54.8386 66.0938L54.705 66.1484C55.2479 67.198 55.9951 68.1371 56.8947 68.9264C59.6987 71.3869 63.8748 72.476 67.4693 71.3804L67.3613 71.1355C67.1737 70.7102 67.2073 70.2199 67.4512 69.8242L70.1168 65.4999C70.3525 65.1174 70.3793 64.6955 70.2587 64.3267Z" fill="#FFD95A"/>
<path d="M49.9673 70.5517L54.3579 73.1069C54.4584 73.1653 54.55 73.2352 54.6315 73.3144C54.876 73.5519 55.0294 73.8731 55.0558 74.2207L55.4408 79.2866C55.4566 79.4943 55.5151 79.6818 55.603 79.8469C55.6179 79.875 55.6346 79.9014 55.6512 79.928C55.7198 80.0377 55.8018 80.1354 55.8954 80.2202C56.2323 80.5255 56.7065 80.6588 57.1594 80.5571C57.192 80.5498 57.2247 80.5447 57.257 80.535C57.3196 80.516 57.3815 80.4923 57.4423 80.4637C57.564 80.4066 57.6811 80.33 57.7901 80.2325L61.5761 76.8458C61.9225 76.536 62.3992 76.4165 62.8508 76.5262L67.7868 77.726C67.8934 77.7519 67.9985 77.7653 68.101 77.7674C68.2035 77.7696 68.3034 77.7604 68.3997 77.7412C68.4638 77.7284 68.5263 77.7111 68.587 77.6897C69.3147 77.4333 69.7664 76.5868 69.412 75.7836L67.4693 71.3802C63.8748 72.4758 59.6987 71.3867 56.8947 68.9262C55.9951 68.1368 55.25 67.1973 54.7071 66.1476L51.2773 67.5574L50.1405 68.0247C49.9376 68.1081 49.769 68.2284 49.6359 68.3727C49.4584 68.565 49.3436 68.8 49.2938 69.0471C49.2689 69.1707 49.2602 69.2973 49.2681 69.4231C49.2759 69.5489 49.3002 69.674 49.3413 69.7944C49.3823 69.9148 49.4401 70.0306 49.515 70.138C49.6271 70.2991 49.7776 70.4413 49.9673 70.5517Z" fill="#FBBB2D"/>
<path d="M22.4043 39.9722C21.9165 38.1518 22.9517 36.2871 24.7119 35.8155L60.6677 26.1812C58.6296 24.9349 56.4783 23.916 54.236 23.1572L19.5753 32.4445C17.6938 32.9487 16.567 34.9009 17.0713 36.7827L35.9294 107.162C37.4617 107.448 39.0108 107.642 40.5663 107.754L22.4044 39.9722L22.4043 39.9722Z" fill="#764494"/>
<path d="M80.8324 54.9024C83.6409 64.3592 83.9247 74.5792 80.1471 83.8172C76.0762 93.7722 67.6956 101.781 57.5804 105.438C53.6138 106.872 49.4294 107.667 45.2221 107.832C45.1061 107.896 44.9816 107.949 44.8476 107.985C44.4395 108.095 44.027 108.039 43.6774 107.863C42.8299 107.865 41.9827 107.843 41.1368 107.793L41.3335 108.527C41.7441 110.06 43.2758 110.985 44.748 110.591L92.0187 97.9247C93.4909 97.5302 94.3545 95.9627 93.9439 94.4303L75.5372 25.7356C75.1267 24.2033 73.5949 23.2775 72.1227 23.672L61.29 26.5746C63.6708 28.1019 65.8918 29.9392 67.9139 32.0378C74.0103 38.3652 78.3406 46.512 80.8324 54.9024Z" fill="#8659A0"/>
<path d="M22.4043 39.9724L40.811 108.667C41.2988 110.488 43.1276 111.585 44.8878 111.113L92.1584 98.447C93.9186 97.9754 94.9538 96.1108 94.466 94.2903L76.0593 25.5956C75.5715 23.7752 73.7426 22.6779 71.9825 23.1496L24.7119 35.8157C22.9517 36.2873 21.9166 38.152 22.4043 39.9724ZM72.1225 23.6719C73.5947 23.2775 75.1264 24.2032 75.537 25.7355L93.9437 94.4303C94.3543 95.9626 93.4907 97.5301 92.0185 97.9246L44.7478 110.591C43.2756 110.985 41.7439 110.06 41.3333 108.527L22.9266 39.8325C22.516 38.3001 23.3797 36.7325 24.8519 36.3381L72.1225 23.6719Z" fill="#FFD95A"/>
<path d="M63.7185 63.8672L63.7566 63.8633L60.8665 60.4601C60.5294 60.0632 60.0551 59.9161 59.6105 59.9745L62.4994 63.3764C62.8002 63.7307 63.2562 63.9143 63.7185 63.8672Z" fill="#4C2771"/>
<path d="M24.8109 39.5813C25.0468 40.4616 25.9514 40.984 26.8314 40.7482C27.7114 40.5124 28.2337 39.6077 27.9978 38.7274C27.762 37.8472 26.8573 37.3248 25.9773 37.5606C25.0973 37.7964 24.575 38.7011 24.8109 39.5813Z" fill="#FFD95A"/>
<path d="M72.6135 28.4811C73.4936 28.2452 74.0158 27.3405 73.7799 26.4603C73.544 25.58 72.6395 25.0576 71.7594 25.2934C70.8794 25.5292 70.3571 26.434 70.593 27.3142C70.8289 28.1944 71.7335 28.7169 72.6135 28.4811Z" fill="#FFD95A"/>
<path d="M45.2219 107.832C45.8677 107.473 46.2138 106.711 46.0138 105.964C45.778 105.084 44.8733 104.562 43.9933 104.798C43.1132 105.033 42.5911 105.938 42.8269 106.818C42.9534 107.29 43.2731 107.658 43.6774 107.862C44.0268 108.039 44.4394 108.094 44.8475 107.985C44.9814 107.949 45.1059 107.896 45.2219 107.832Z" fill="#FFD95A"/>
<path d="M90.6296 95.718C91.5097 95.4822 92.0319 94.5774 91.796 93.6972C91.5602 92.817 90.6556 92.2946 89.7755 92.5304C88.8955 92.7662 88.3733 93.6709 88.6091 94.5511C88.845 95.4314 89.7496 95.9538 90.6296 95.718Z" fill="#FFD95A"/>
<path d="M30.5173 57.1072C31.3445 60.7391 33.5151 68.4991 34.7816 72.002C35.3779 73.6513 36.0315 75.3014 37.0411 76.7352C37.6198 77.5572 38.5224 78.3729 39.5013 78.145C40.2181 77.9781 40.6963 77.2943 40.961 76.6074C41.0334 76.4196 41.0949 76.2288 41.1468 76.0357C41.4374 74.955 41.4293 73.8005 41.3583 72.6764C41.1506 69.3887 39.3271 61.9737 38.5208 58.7797C37.5075 54.7658 36.2938 50.7182 33.9573 47.3009C33.5947 46.7706 33.1932 46.2454 32.6466 45.9079C32.1001 45.5704 31.3762 45.4533 30.8147 45.7653C29.1784 46.6743 29.4851 49.6265 29.5727 51.1511C29.6882 53.1614 30.0709 55.1473 30.5173 57.1072Z" fill="white"/>
<path d="M42.7166 83.4326C42.1984 82.9346 41.4869 82.5954 40.7721 82.6707C39.0581 82.8514 38.9894 85.0642 38.9952 86.3682C39.0034 88.2041 39.4364 90.0187 40.0554 91.7387C40.493 92.9547 41.0489 94.1732 41.9857 95.0591C42.0104 95.0824 42.0352 95.1055 42.0603 95.1283C42.638 95.6524 43.4321 96.046 44.1851 95.8431C44.779 95.6831 45.2312 95.1724 45.4597 94.6012C45.6881 94.03 45.7229 93.4012 45.7188 92.786C45.701 90.1721 45.0239 87.5817 43.897 85.2231C43.587 84.5746 43.2349 83.9308 42.7166 83.4326Z" fill="white"/>
</svg>
