<svg width="88" height="102" viewBox="0 0 88 102" fill="none" xmlns="http://www.w3.org/2000/svg">
<path d="M42.2969 59.5513C42.2969 59.5513 33.1041 65.3171 31.738 67.7728C30.3717 70.2286 30.5852 72.4711 30.5852 72.4711L38.2219 74.9381L46.0123 62.1747L42.2969 59.5513Z" fill="#549389"/>
<path d="M44.2676 54.8716C44.2676 54.8716 43.3439 52.3096 44.7294 50.4948C46.1148 48.6801 47.678 47.9685 47.678 47.9685C47.678 47.9685 60.8225 43.8053 64.1265 44.588C67.4304 45.3708 67.8213 48.6445 67.8213 48.6445L61.2355 55.7072L44.2676 54.8716Z" fill="#60412C"/>
<path opacity="0.11" d="M46.0122 101.864C69.2014 101.864 88 99.8458 88 97.3564C88 94.867 69.2014 92.8489 46.0122 92.8489C22.823 92.8489 4.0244 94.867 4.0244 97.3564C4.0244 99.8458 22.823 101.864 46.0122 101.864Z" fill="#7F6E65"/>
<path d="M40.5661 73.4226C40.5661 73.4226 30.0389 73.1876 24.532 77.6794C19.025 82.1712 14.505 94.7015 14.0055 94.5629C13.506 94.4245 9.41355 94.491 10.0441 95.2293C10.6747 95.9676 17.0164 99.5957 17.8598 99.3404C18.7031 99.0851 24.6405 96.5177 26.4291 94.7023C28.2177 92.8869 29.8374 90.6054 29.8374 90.6054L42.4446 90.3829L45.7595 81.3407L40.5661 73.4226Z" fill="#EFAA75"/>
<path opacity="0.57" d="M39.3003 73.4379C39.3003 73.4379 37.2613 75.4405 35.889 80.9764C34.9377 84.8141 35.2299 85.755 33.2229 86.8727C31.2158 87.9905 29.2478 88.7818 28.7881 87.5462C28.3284 86.3107 27.8044 84.4935 27.8044 84.4935L28.5478 88.1454L27.3174 87.5288C27.3174 87.5288 29.3078 88.8856 28.7653 90.5464C28.2229 92.2071 24.6273 96.0502 24.6273 96.0502C24.6273 96.0502 26.4961 94.6649 28.0009 92.9607C29.5057 91.2564 29.8372 90.6053 29.8372 90.6053L31.3232 90.5791L37.5401 90.6386C37.5401 90.6386 42.2384 83.8116 42.3454 83.1692C42.4524 82.5268 41.3798 74.4494 41.3798 74.4494L39.3003 73.4379Z" fill="#E28140"/>
<path d="M59.0986 51.4278C59.0986 51.4278 58.3927 50.4958 58.0077 49.2103C57.6227 47.9249 57.6548 46.1253 57.6548 46.1253L49.9865 48.7766C49.9865 48.7766 50.4357 52.3277 50.2431 53.0347C50.0505 53.7417 49.5052 54.1594 49.5052 54.1594C49.5052 54.1594 51.4945 55.6055 52.0399 55.7984C52.5854 55.9912 57.7832 54.4487 58.0719 54.1917C58.3606 53.9346 59.5918 52.2313 59.5918 52.2313L59.0986 51.4278Z" fill="#F4C092"/>
<path d="M50.243 53.0348C50.243 53.0348 49.3949 54.4489 53.5408 54.1275C57.6867 53.8061 59.0985 51.4281 59.0985 51.4281C59.0985 51.4281 62.5693 52.468 64.9729 55.1938C67.3765 57.9196 70.1239 70.0204 71.0984 74.5662C72.3177 80.2544 70.5849 86.3868 70.5849 86.3868C70.5849 86.3868 68.0822 98.2828 52.8739 94.6193C38.7512 91.2173 37.1696 83.7849 38.7244 76.0123C39.4767 72.2512 43.826 64.5396 43.826 64.5396C43.826 64.5396 46.5853 55.67 47.4195 54.5773C48.2536 53.4848 50.243 53.0348 50.243 53.0348Z" fill="#F2F9F8"/>
<path d="M68.4087 86.4401C68.4087 86.4401 70.0738 94.9165 58.3828 95.5947C46.6917 96.273 44.9588 94.8652 43.7047 95.4409C42.4507 96.0166 43.9967 96.4688 39.4575 98.331C34.9183 100.193 33.0475 100.353 33.0475 100.353C33.0475 100.353 32.5529 101.572 30.9 101.513C29.2472 101.454 22.1951 97.6785 22.8701 97.2153C23.5452 96.7524 26.7323 97.1096 27.4445 96.9819C28.1567 96.8543 34.008 81.8643 44.3427 80.3282C54.6775 78.792 67.6012 79.9893 68.4087 86.4401Z" fill="#F4C092"/>
<path opacity="0.63" d="M43.7045 95.4411C43.7045 95.4411 45.4479 93.6887 45.3704 91.822C45.2927 89.9553 45.0839 89.2348 45.0839 89.2348C45.0839 89.2348 45.7646 91.0088 45.8615 92.175C45.9583 93.341 45.6251 94.4127 45.6251 94.4127L47.489 93.753L46.016 95.4383L43.7045 95.4411Z" fill="#E28140"/>
<path opacity="0.63" d="M50.2498 51.428C50.2498 51.428 51.6949 52.368 54.3659 51.5968C57.037 50.8255 57.8465 48.5266 57.8465 48.5266L57.7116 47.5079C57.7116 47.5079 55.8733 48.5228 53.6878 49.0474C51.5023 49.5721 50.0707 49.4964 50.0707 49.4964L50.2498 51.428Z" fill="#E28140"/>
<path d="M36.1222 32.6161C36.1222 32.6161 36.3267 34.6411 36.0843 36.0324C35.8421 37.4237 34.0808 40.469 36.8108 44.1903C39.5408 47.9116 45.6666 50.3956 53.165 49.2197C60.6634 48.0439 63.8896 43.4779 65.1232 41.4721C66.3568 39.4664 66.8433 38.2673 66.8433 38.2673C66.8433 38.2673 67.9853 39.6067 69.4279 39.233C70.8706 38.8592 73.5209 37.2018 73.9237 33.6229C74.3263 30.0439 72.0267 29.7709 71.3184 29.4945C70.6102 29.2181 70.1624 29.3342 70.1624 29.3342C70.1624 29.3342 75.8551 21.2338 70.7949 12.3249C65.7346 3.41602 51.4313 1.73891 41.774 8.73711C32.1169 15.7353 33.8131 23.9486 34.5394 26.2132C35.2659 28.4776 36.0476 31.3277 36.1222 32.6161Z" fill="#F4C092"/>
<path opacity="0.63" d="M72.1296 34.5521C72.1296 34.5521 72.7553 33.3548 71.5694 32.4632C70.3835 31.5717 68.3976 34.0193 68.2289 35.2685C68.0603 36.5177 69.0374 37.6294 70.1201 36.2453C71.2027 34.8611 71.1106 34.1705 70.9437 33.6605C70.7768 33.1505 70.6134 33.0297 70.6134 33.0297C70.6134 33.0297 71.1991 32.6972 71.6892 33.2985C72.1795 33.8997 72.1296 34.5521 72.1296 34.5521Z" fill="#E28140"/>
<path opacity="0.63" d="M47.9074 35.795C47.9074 35.795 48.3668 34.8694 46.4787 34.8008C44.6793 34.7352 44.3035 35.1384 44.3374 35.4751C44.3713 35.8119 44.0637 35.9406 43.9823 35.8727C43.8245 35.7407 43.7209 35.768 43.9706 34.9366C44.2203 34.1051 46.2146 33.7262 47.3588 34.2006C48.503 34.6751 48.6425 35.3522 48.3305 35.6855C48.0182 36.0189 47.9074 35.795 47.9074 35.795Z" fill="#E28140"/>
<path d="M39.5683 28.6689C39.5683 28.6689 40.7222 28.5471 41.18 30.1829C41.6378 31.8186 41.9811 33.6966 40.9259 34.2003C39.8706 34.7041 38.6904 33.6276 38.3344 32.249C37.9784 30.8706 37.8466 29.4692 38.5162 29.0479C39.1858 28.6265 39.5683 28.6689 39.5683 28.6689Z" fill="#3F2F29"/>
<path opacity="0.81" d="M59.8832 27.9793C59.8832 27.9793 58.9893 25.6992 57.9017 25.2897C56.8141 24.8804 55.5773 25.076 55.3895 24.9652C55.2016 24.8543 55.0842 24.1937 55.5342 23.9841C55.9843 23.7745 58.0888 24.1646 59.0356 25.2617C59.9823 26.3589 60.1284 28.5304 59.8832 27.9793Z" fill="#E28140"/>
<path opacity="0.81" d="M36.9761 27.9593C36.9761 27.9593 37.0667 26.4606 38.2705 25.8298C39.4743 25.199 40.1122 25.614 40.4541 25.4989C40.796 25.3838 40.8504 24.6698 40.5971 24.5627C40.3438 24.4555 38.3344 24.4842 37.3974 25.7371C36.4604 26.9898 36.9333 28.2551 36.9761 27.9593Z" fill="#E28140"/>
<path opacity="0.23" d="M55.6601 35.4087C55.6601 35.4087 58.7891 35.1331 59.3526 36.1621C59.9162 37.1911 57.8389 37.6374 56.4013 37.6654C54.9637 37.6933 53.5607 37.5718 53.3414 36.5835C53.1224 35.5951 55.0595 35.4386 55.6601 35.4087Z" fill="#ED3737"/>
<path opacity="0.23" d="M38.4166 35.2481C38.4166 35.2481 40.9985 35.1039 41.5077 36.1459C42.017 37.188 40.3137 37.5444 39.1234 37.5128C37.9331 37.4814 36.7653 37.3032 36.5432 36.3157C36.3211 35.3283 37.9201 35.253 38.4166 35.2481Z" fill="#ED3737"/>
<path opacity="0.32" d="M38.3516 30.3707C38.5144 30.7698 39.1282 30.896 39.7223 30.6529C40.3166 30.4097 40.6663 29.8891 40.5035 29.4901C40.3407 29.0911 39.7271 28.9647 39.1328 29.2078C38.5385 29.4509 38.1888 29.9715 38.3516 30.3707Z" fill="white"/>
<path d="M39.4023 30.5205C39.3194 30.1993 38.9922 30.0064 38.6715 30.0894C38.3509 30.1725 38.1581 30.5002 38.2412 30.8212C38.3241 31.1424 38.6513 31.3355 38.9719 31.2523C39.2925 31.1693 39.4852 30.8416 39.4023 30.5205Z" fill="white"/>
<path d="M39.4343 31.6372C39.4101 31.543 39.3142 31.4865 39.2202 31.5108C39.1262 31.5351 39.0697 31.6312 39.094 31.7253C39.1182 31.8195 39.2141 31.876 39.3081 31.8517C39.4023 31.8274 39.4587 31.7313 39.4343 31.6372Z" fill="white"/>
<path d="M58.6437 31.9153C58.6437 31.9153 59.2047 30.3879 58.3967 29.1087C57.5888 27.8294 55.1863 28.186 54.9406 30.9342C54.6949 33.6824 55.5795 34.4367 56.5394 34.4539C57.4992 34.471 58.4571 33.2571 58.6437 31.9153Z" fill="#3F2F29"/>
<path opacity="0.32" d="M56.0885 29.2623C55.9973 29.6837 56.432 30.1355 57.0592 30.2718C57.6866 30.408 58.2691 30.1768 58.3602 29.7554C58.4513 29.3341 58.0167 28.8822 57.3894 28.746C56.7622 28.6097 56.1796 28.8409 56.0885 29.2623Z" fill="white"/>
<path d="M56.5032 30.3792C56.5224 30.048 56.2698 29.7639 55.9392 29.7447C55.6085 29.7255 55.3249 29.9784 55.3057 30.3096C55.2866 30.6408 55.5391 30.9249 55.8697 30.9441C56.2004 30.9633 56.484 30.7104 56.5032 30.3792Z" fill="white"/>
<path d="M56.1925 31.4527C56.198 31.3556 56.1241 31.2723 56.0271 31.2667C55.9303 31.261 55.847 31.3352 55.8415 31.4323C55.8358 31.5293 55.9098 31.6127 56.0068 31.6182C56.1037 31.6238 56.1869 31.5497 56.1925 31.4527Z" fill="white"/>
<path d="M50.0707 38.0175C50.0707 38.0175 48.2745 39.5787 45.9799 39.3599C43.6854 39.1409 43.4305 37.6818 42.6656 38.2289C41.9008 38.7761 42.4107 42.4605 46.7448 42.4971C51.0789 42.5336 52.2322 37.6688 50.0707 38.0175Z" fill="#B53C3C"/>
<path d="M49.505 41.476C49.505 41.476 48.2744 40.5275 46.6355 40.7464C44.9966 40.9652 44.0678 41.6767 44.0678 41.6767C44.0678 41.6767 45.2607 42.4974 47.0088 42.3424C48.7571 42.1873 49.505 41.476 49.505 41.476Z" fill="#EF3F3F"/>
<path d="M39.7183 72.9309C39.7183 72.9309 30.0144 72.9533 24.6273 76.7962C19.2402 80.6391 13.8403 93.9471 13.8403 93.9471C13.8403 93.9471 16.0429 95.8686 17.8193 96.936C19.5956 98.0034 20.7324 98.4305 20.7324 98.4305C20.7324 98.4305 25.3408 96.0021 27.0205 94.3385C28.6192 92.755 29.8981 90.9936 29.8981 90.9936L30.7661 90.6215L38.8506 81.7777L39.7183 72.9309Z" fill="#D6782B"/>
<path d="M38.9844 73.8066C38.9844 73.8066 37.3228 76.4406 37.1453 78.4332C36.9678 80.4258 36.5937 82.2064 36.2571 83.1962C35.9206 84.186 32.1361 86.2613 31.7809 85.265C31.4256 84.2687 31.1059 81.7423 30.7152 81.0663C30.3244 80.3902 30.5376 83.5118 30.4664 84.7442C30.3954 85.9766 29.365 83.7705 29.294 83.8773C29.223 83.984 29.0453 83.486 29.4361 85.3006C29.8268 87.1152 30.0755 87.649 29.7203 87.5423C29.3651 87.4356 28.9743 87.2835 28.0151 84.7442C27.0559 82.205 24.6401 81.0663 25.031 81.7423C25.4217 82.4184 27.0559 83.5474 27.5533 84.7442C28.0508 85.9411 28.9388 87.8981 28.6191 87.9338C28.2993 87.9695 27.0204 87.4356 27.0204 87.7203C27.0204 88.0049 28.1928 89.0724 28.1573 89.4282C28.1218 89.784 28.9388 90.8871 27.5533 91.919C26.1679 92.9509 24.8276 92.8442 24.6274 93.2C24.4272 93.5558 24.3205 94.6232 24.1785 94.8012C24.0364 94.9792 22.1536 97.6353 21.3364 97.3568C20.5192 97.0784 18.4233 95.1926 17.8193 95.157C17.2154 95.1214 18.9562 96.5091 19.6312 97.0073C20.3062 97.5056 20.2077 98.207 20.2077 98.207L20.7326 98.4306C20.7326 98.4306 24.2043 96.6521 26.5894 94.7304C28.9746 92.8086 29.8981 90.9938 29.8981 90.9938L30.7662 90.6217L38.9846 82.4392L38.9844 73.8066Z" fill="#B75D1A"/>
<path d="M27.5532 96.0502C27.5532 96.0502 32.74 85.2826 39.561 81.3863C46.3821 77.49 62.049 78.9846 65.2996 80.9594C68.5502 82.9342 69.5537 86.9084 68.6551 90.4449C67.7564 93.9814 62.422 96.2777 57.8925 96.4913C53.3629 96.7048 45.9379 95.1331 45.5966 95.7708C45.2555 96.4084 45.263 95.8762 45.0497 96.0504C44.8365 96.2245 44.357 96.0504 44.357 96.0504C44.357 96.0504 44.4635 96.865 44.3038 96.865C44.144 96.865 43.4511 96.865 43.4511 96.865C43.4511 96.865 41.1597 98.3722 39.0814 99.3533C37.0032 100.334 34.4986 100.975 34.4986 100.975C34.4986 100.975 30.3953 97.612 27.5532 96.0502Z" fill="#E88934"/>
<path d="M39.7184 72.9309C39.7184 72.9309 40.0586 75.7288 49.1532 75.871C58.2478 76.0133 61.0188 76.8673 65.9214 78.5041C70.8239 80.1409 72.3871 80.7814 72.3871 81.7065C72.3871 82.6317 69.9386 91.7853 66.7221 93.3287C63.5056 94.8721 37.9953 82.4147 37.9953 82.4147C37.9953 82.4147 37.1046 77.3206 39.7184 72.9309Z" fill="#E88934"/>
<path d="M39.3004 73.438C39.3004 73.438 40.5534 76.3159 45.7592 76.3159C50.965 76.3159 56.3438 76.4323 61.5161 77.5969C66.6884 78.7615 72.1689 81.1812 72.358 81.9776C72.547 82.7741 71.898 85.7449 71.3219 85.7449C70.7459 85.7449 63.2215 81.2798 58.6387 80.3724C54.0559 79.465 47.1283 80.9521 43.3981 79.7283C39.6678 78.5044 38.2026 77.2235 38.2426 76.1559C38.2822 75.0883 38.7199 72.962 39.3004 73.438Z" fill="#682F09"/>
<path d="M40.5736 74.3147C40.5736 74.3147 40.0595 74.342 39.3479 75.7559C38.6365 77.1697 38.7351 78.1844 38.7351 78.1844L38.1153 77.3121C38.1153 77.3121 38.442 75.1954 39.0282 74.4749C39.6144 73.7544 39.9874 73.8077 39.9874 73.8077L40.5736 74.3147Z" fill="#AEBAB8"/>
<path d="M50.7517 76.1291L50.2456 80.5058H51.5245L51.9507 76.1291H50.7517Z" fill="#AEBAB8"/>
<path d="M66.2056 78.7982L64.6602 82.988L65.7525 83.495L67.4579 79.1985L66.2056 78.7982Z" fill="#E88934"/>
<path d="M37.9954 82.4145C37.9954 82.4145 39.7032 81.2081 41.3374 80.6388C42.9716 80.0694 43.7461 79.8317 43.7461 79.8317L42.8933 79.5569C42.8933 79.5569 40.016 80.6032 39.3445 80.8523C38.673 81.1014 38.026 79.6512 37.9258 78.6764C37.9283 80.5072 37.7795 81.984 37.9954 82.4145Z" fill="#9DA8A6"/>
<path d="M71.2724 85.8898C71.2724 85.8898 68.8699 94.1606 61.8357 95.5839C54.8016 97.0072 46.36 95.3639 46.0157 95.4384C45.6714 95.5128 45.4446 96.0101 45.4446 96.0101C45.4446 96.0101 45.1387 95.8686 45.032 95.8686C44.9253 95.8686 44.7122 96.0503 44.7122 96.0503L44.286 95.7973V96.4734L43.2558 96.7225C43.2558 96.7225 40.6816 98.5728 38.9845 99.1778C37.2874 99.7827 34.6585 100.743 34.6585 100.743C34.6585 100.743 34.2678 100.174 34.2323 100.067C34.1968 99.9606 34.2323 99.8182 34.5165 99.8895C34.8007 99.9606 35.8664 99.7828 35.1914 99.0355C34.5165 98.2883 31.1059 96.0541 30.5375 96.0503C29.969 96.0465 30.573 95.406 32.5269 96.4735C34.4808 97.541 35.6177 98.7864 36.3992 98.8932C37.1807 99.0001 38.8342 98.8932 38.9845 98.2883C39.1348 97.6834 37.733 96.9006 38.9845 97.0785C40.236 97.2564 40.5557 97.3276 40.8044 97.1852C41.0532 97.0427 42.6873 93.8959 42.6873 93.3167C42.6873 92.7373 41.7281 90.3178 40.5735 88.7521C39.4188 87.1865 39.561 86.8307 40.2005 87.3289C40.8399 87.8271 43.2295 90.7449 43.7044 91.9547C44.1793 93.1646 44.2503 94.8258 44.4635 93.4615C44.6767 92.097 43.8241 90.8546 44.1793 90.6218C44.5346 90.3891 45.3703 91.8222 45.3703 91.8222C45.3703 91.8222 45.2366 93.2908 45.3474 92.3382C45.4582 91.3855 46.3819 89.9644 46.3819 89.9644C46.3819 89.9644 46.5239 90.8873 46.5239 91.4567C46.5239 92.026 50.3208 92.026 50.8025 91.6702C51.2843 91.3144 52.3501 92.01 52.3501 92.3383C52.3501 92.6667 57.3948 95.2285 62.1553 92.5954C66.9158 89.9623 68.4902 84.7446 68.4902 84.7446L71.2724 85.8898Z" fill="#D6782B"/>
<path d="M67.9756 84.139C67.9756 84.139 65.779 91.8223 59.2424 92.8491C52.7055 93.8759 46.1933 90.8543 45.5416 90.6216C44.8899 90.3888 43.7389 89.3258 43.746 89.9641C43.7532 90.6023 44.1408 91.2146 43.746 91.2428C43.3513 91.2711 42.4443 90.3829 42.4443 90.3829C42.4443 90.3829 41.3984 89.9995 41.6951 90.6216C41.9919 91.2436 41.1243 92.3379 41.1243 92.3379L35.1559 97.7188L33.8699 97.9719V98.4304L32.8094 99.6427L32.1981 99.1781L33.4902 98.2793C33.4902 98.2793 33.4143 97.4788 33.4902 97.4788C33.5661 97.4788 35.0316 97.3568 35.0316 97.3568C35.0316 97.3568 40.627 92.4411 40.9734 91.8909C41.3198 91.3408 41.6222 90.4566 41.4271 90.1103C41.2319 89.764 41.5862 89.4193 42.1458 89.6862C42.7054 89.9531 43.2382 90.5669 43.3182 90.4869C43.3981 90.4069 43.1055 89.2105 43.7048 89.235C44.304 89.2593 47.235 91.0474 49.7663 91.5545C52.2975 92.0616 56.324 93.0455 59.8646 92.0349C63.4051 91.0242 65.5398 88.0586 66.3125 86.6975C67.0851 85.3365 67.4582 83.8799 67.4582 83.8799L67.9756 84.139Z" fill="#B75D1A"/>
<path d="M62.4461 81.5838C62.4461 81.5838 61.6581 82.8807 62.6885 84.304C63.7187 85.7273 66.2057 86.8798 66.2057 86.8798L65.9746 87.5778C65.9746 87.5778 62.724 86.0655 61.9958 84.3398C61.2675 82.6141 61.9958 81.4066 61.9958 81.4066L62.4461 81.5838Z" fill="#B75D1A"/>
<path d="M59.9883 13.7806C59.9883 13.7806 61.8479 17.5511 57.6054 21.1271C53.363 24.7032 49.7927 23.9298 49.7927 23.9298C49.7927 23.9298 52.83 23.2622 54.2156 22.3014C55.6013 21.3407 56.5044 18.8904 56.5044 18.8904C56.5044 18.8904 54.9618 21.8743 50.5388 22.4081C46.1158 22.9419 43.8206 21.3407 43.8206 21.3407C43.8206 21.3407 47.5014 21.5542 49.2599 21.1271C51.0185 20.7002 51.6408 19.8462 51.6408 19.8462C51.6408 19.8462 50.1392 21.0738 47.5281 21.0738C44.9169 21.0738 44.1442 20.8869 44.1442 20.8869C44.1442 20.8869 48.0979 20.1229 49.3716 18.8904C50.6453 17.6578 51.1328 16.1633 51.1328 16.1633C51.1328 16.1633 49.6151 19.1166 46.3113 20.0418C43.0074 20.9669 40.5889 20.0062 36.5226 21.9277C32.4563 23.8491 33.9468 28.6666 33.9468 28.6666C33.9468 28.6666 30.2359 24.8632 32.0833 20.024C33.9306 15.1848 36.8195 13.7804 36.8195 13.7804C36.8195 13.7804 34.5523 14.829 32.7405 18.1914C30.9286 21.5541 31.1951 22.5148 31.1951 22.5148C31.1951 22.5148 29.3558 19.8995 31.1813 15.4161C33.0068 10.9327 38.2222 7.83696 38.2222 7.83696C38.2222 7.83696 36.1244 8.98457 35.325 9.06459C34.5257 9.14461 34.8757 8.44489 34.8757 8.44489C34.8757 8.44489 36.1508 9.0468 37.643 6.84066C39.1351 4.63452 44.2145 -1.5568 55.3167 0.364663C66.4189 2.28612 66.7386 5.27501 66.7386 5.27501V2.07257C66.7386 2.07257 67.5379 3.14 67.6446 3.99404C67.7511 4.84807 67.6446 5.54191 67.6446 5.54191C67.6446 5.54191 68.5438 5.27501 70.2524 5.75545C71.9609 6.23574 72.5471 7.03643 72.5471 7.03643C72.5471 7.03643 71.2682 6.44929 70.682 6.44929C70.0957 6.44929 68.9233 6.39593 68.9233 6.39593C68.9233 6.39593 74.1137 6.76953 75.755 13.9217C77.3963 21.0739 73.1035 25.2177 73.9709 28.0028C74.8383 30.7878 76.4541 29.3142 76.4541 29.3142C76.4541 29.3142 76.3837 31.8498 73.3463 30.9453C70.309 30.0408 69.8293 28.0675 69.8293 28.0675C69.8293 28.0675 70.309 29.447 70.6285 29.9307C70.9483 30.4145 71.533 30.7348 71.533 30.7348C71.533 30.7348 68.793 29.997 68.2098 26.9588C67.6265 23.9207 67.4845 21.2164 66.987 18.9391C66.4896 16.6618 62.4398 14.0288 62.4398 14.0288C62.4398 14.0288 65.6726 16.2171 66.472 19.4196C67.2714 22.622 66.845 26.5182 66.845 26.5182C66.845 26.5182 65.726 22.4618 64.8733 20.1134C64.0207 17.7648 62.3155 16.0036 62.3155 16.0036C62.3155 16.0036 64.1451 18.7255 64.3937 19.7931C64.6424 20.8606 64.7844 22.4262 64.7844 22.4262C64.7844 22.4262 62.6883 20.1134 61.7646 17.9428C60.8413 15.7719 59.9883 13.7806 59.9883 13.7806Z" fill="#FFEC9C"/>
<path d="M66.5608 6.84053C66.5608 6.84053 65.7791 4.63439 63.5944 3.40677C61.4097 2.17914 57.2244 1.96559 57.2244 1.96559C57.2244 1.96559 62.0757 2.6861 63.541 4.02058C65.0065 5.3549 65.7791 7.00945 65.7791 7.00945C65.7791 7.00945 64.7134 5.72849 63.3012 5.1947C61.8889 4.66091 60.7167 4.60756 60.7167 4.60756C60.7167 4.60756 63.0347 5.40809 63.6742 5.88853C64.3136 6.36882 65.0596 7.0093 65.0596 7.0093C65.0596 7.0093 63.8774 6.07524 58.8331 6.12859C53.7889 6.18194 48.8332 8.74389 48.8332 8.74389C48.8332 8.74389 55.1213 7.19603 58.2119 7.14268C61.3026 7.08933 65.033 7.78316 65.033 7.78316C65.033 7.78316 65.7257 8.2636 65.7257 9.17082C65.7257 10.0782 65.7257 10.8254 65.7257 10.8254C65.7257 10.8254 66.4184 9.65111 66.2586 9.06398C66.0987 8.47684 65.6724 7.99655 65.6724 7.99655C65.6724 7.99655 67.2711 8.04989 69.3495 9.75796C71.4276 11.4659 71.3744 16.2162 71.3744 16.2162C71.3744 16.2162 72.1736 12.6046 70.6461 10.2205C69.1186 7.83634 66.1699 7.48054 66.1699 7.48054C66.1699 7.48054 69.2523 6.69779 71.5835 8.65482C73.9145 10.6118 74.3409 11.9284 74.3409 11.9284C74.3409 11.9284 73.204 9.33086 70.9304 7.69408C68.6567 6.0573 67.1291 6.8045 67.1291 6.8045C67.1291 6.8045 67.4311 6.23513 68.266 6.02174C69.1009 5.80835 69.9179 5.86171 69.9179 5.86171C69.9179 5.86171 67.5621 5.24598 66.5608 6.84053Z" fill="#EFD462"/>
<path d="M38.2218 7.8371C38.2218 7.8371 41.9058 3.88748 45.7426 3.14014C49.5794 2.39296 51.4445 2.76654 51.4445 2.76654C51.4445 2.76654 47.4357 1.5413 42.9449 3.64725C38.4541 5.75321 36.8407 8.5295 36.8407 8.5295L38.2218 7.8371Z" fill="#EFD462"/>
<path d="M73.9708 14.1354C73.9708 14.1354 75.4779 18.2275 74.341 21.7146C73.2041 25.2017 71.6411 25.7244 71.6766 28.3986C71.7121 31.0728 74.6252 31.1533 74.6252 31.1533C74.6252 31.1533 69.6872 31.5353 69.7937 27.6568C69.9002 23.7783 74.9506 24.6679 73.9708 14.1354Z" fill="#EFD462"/>
<path d="M62.4399 14.0286C62.4399 14.0286 66.1999 16.3789 66.9221 18.6998C67.6443 21.0206 67.6656 23.9845 67.9834 25.6696C68.3012 27.3548 68.4558 27.8313 68.4558 27.8313C68.4558 27.8313 67.9907 22.0347 67.671 19.446C67.3512 16.8574 64.0208 14.8024 64.0208 14.8024C64.0208 14.8024 66.8717 16.0567 67.671 17.1508C68.4702 18.2449 68.6568 19.099 68.6568 19.099C68.6568 19.099 68.7367 17.738 67.2714 16.0299C65.8058 14.3221 62.4399 14.0286 62.4399 14.0286Z" fill="#EFD462"/>
<path d="M60.2373 11.2264C60.2373 11.2264 59.0915 11.6533 60.2373 14.9892C61.383 18.325 64.7845 22.426 64.7845 22.426C64.7845 22.426 61.9424 17.7646 60.9566 15.0959C59.9708 12.4273 60.2373 11.2264 60.2373 11.2264Z" fill="#EFD462"/>
<path d="M59.1181 13.4946C59.1181 13.4946 58.0612 18.6977 54.8991 21.047C51.737 23.3964 46.1449 22.2367 46.1449 22.2367C46.1449 22.2367 52.0572 22.6954 55.0416 19.7394C58.026 16.7834 59.1181 13.4946 59.1181 13.4946Z" fill="#EFD462"/>
<path d="M59.7281 9.22473C59.7281 9.22473 55.5161 8.61982 53.3244 12.3916C51.1327 16.1634 50.5743 19.6861 44.9611 20.5045C39.348 21.323 37.8294 20.823 35.6445 22.523C33.4597 24.223 33.7009 26.1224 33.7009 26.1224C33.7009 26.1224 33.0867 22.7018 35.7244 21.0472C38.3622 19.3927 44.7568 19.9798 47.2081 18.6988C49.6595 17.4179 50.7785 15.0695 50.7785 15.0695C50.7785 15.0695 48.2257 17.845 46.1448 18.3786C44.0639 18.9124 41.3995 18.859 41.3995 18.859C41.3995 18.859 45.1298 18.6188 46.9948 17.5247C48.8599 16.4306 50.6642 11.4134 53.9585 9.75884C57.2532 8.1038 59.7281 9.22473 59.7281 9.22473Z" fill="#EFD462"/>
<path d="M31.1947 22.5148C31.1947 22.5148 32.591 16.5038 36.4847 13.9673C40.3782 11.4307 42.6163 10.2922 42.6163 10.2922C42.6163 10.2922 37.2018 11.2885 33.6388 14.918C30.0756 18.5474 30.8146 21.9331 31.1947 22.5148Z" fill="#EFD462"/>
<path opacity="0.17" d="M44.0679 1.96559C44.0679 1.96559 37.4725 4.23064 44.7479 9.54475C52.0231 14.8587 59.9882 13.7803 59.9882 13.7803C59.9882 13.7803 56.8686 16.3499 56.3859 16.8259C55.903 17.3019 54.899 15.7011 54.5484 15.5763C54.1979 15.4515 52.7766 17.0461 51.9242 16.8259C51.0719 16.6056 51.4867 16.0836 51.1328 15.5763C50.7786 15.069 47.8744 16.9532 47.1637 16.914C46.4533 16.8748 47.9453 13.8146 47.7322 14.1348C47.519 14.4551 44.7452 15.5587 44.1427 15.5762C43.5402 15.5936 45.1033 13.3875 44.7481 13.4944C44.3928 13.6011 40.2438 15.3091 40.7552 14.4551C41.2665 13.6011 43.3981 11.8931 42.9717 11.9643C42.5455 12.0354 37.7286 13.3719 38.222 12.4625C38.7155 11.5529 40.0291 10.539 39.8307 10.291C39.6324 10.0428 36.7191 11.2526 37.2876 10.2919C37.856 9.33119 39.8307 7.62328 39.8307 7.62328C39.8307 7.62328 38.8032 6.32199 38.7872 6.33628C38.771 6.35041 41.1852 2.85519 44.0679 1.96559Z" fill="#FFFA89"/>
<path opacity="0.17" d="M65.9021 15.7692C65.9021 15.7692 68.0789 16.5402 71.5652 14.6705C75.0515 12.8008 73.9709 10.2922 73.9709 10.2922C73.9709 10.2922 75.2115 12.7475 75.4779 14.9892C75.7444 17.2309 75.9576 18.6185 75.4779 17.818C74.9984 17.0173 74.1039 15.2565 74.0715 15.5766C74.0392 15.8965 73.9325 18.9389 73.6128 18.672C73.2931 18.4051 72.2273 16.4923 72.0141 16.9149C71.8009 17.3377 71.8543 19.6124 71.4279 18.6886C71.0017 17.7647 70.3023 16.3146 70.2522 16.8261C70.2023 17.3377 70.0212 19.3028 69.792 18.9073C69.5628 18.5118 68.8701 17.1046 68.8701 17.4881C68.8701 17.8715 68.6577 20.9298 68.6577 20.9298C68.6577 20.9298 67.7623 17.2201 65.9021 15.7692Z" fill="#FFFA89"/>
<path d="M45.1736 65.208C45.1736 65.208 39.7433 76.6588 38.1154 77.3115C36.4874 77.9644 36.9138 72.9307 36.9138 72.9307L43.1696 63.3707L45.1736 65.208Z" fill="#68ADA3"/>
<path d="M50.243 53.0348C50.243 53.0348 48.9037 54.0704 49.0637 55.0492C49.2234 56.028 51.4792 57.3171 53.9302 56.8285C56.3812 56.34 58.8538 54.5335 59.4474 53.3592C60.0412 52.1849 59.5402 51.5806 59.5402 51.5806L59.0985 51.4281L58.3402 50.0987C58.3402 50.0987 59.0819 49.2449 60.4673 49.5141C61.8528 49.7832 61.1601 50.1472 62.1725 50.0987C63.185 50.0501 64.1442 48.4608 65.5831 48.2947C67.0219 48.1286 67.4577 49.7044 67.4577 49.7044C67.4577 49.7044 57.27 59.4973 52.2608 59.5507C47.2516 59.604 43.9747 55.9227 44.0678 55.8153C44.1608 55.7078 43.9659 53.4661 43.9659 53.4661C43.9659 53.4661 44.767 50.635 45.0668 50.7777C45.3665 50.9206 46.772 49.9159 47.4648 50.9705C48.1576 52.025 48.5306 52.452 49.0635 52.5587C49.5964 52.6654 50.243 53.0348 50.243 53.0348Z" fill="#845F46"/>
<path d="M52.474 67.1843C52.474 67.1843 46.7483 79.604 48.2612 80.5453C49.7741 81.4868 53.5811 78.8671 57.993 80.0703C62.4049 81.2735 63.9725 81.8861 66.2056 82.4144C68.5375 82.9661 70.429 83.3391 71.7612 83.5772C72.8245 83.7674 73.7431 82.8216 73.526 81.7618L68.2097 55.8147L52.474 67.1843Z" fill="#68ADA3"/>
<path d="M62.2562 44.996C62.2562 44.996 68.7271 44.6708 65.8495 48.2943C62.972 51.9178 55.4582 57.9074 52.3675 57.8748C49.2767 57.8424 49.8629 56.9339 48.0512 55.7068C46.2393 54.4798 46.0263 56.5337 44.694 54.0924C43.3616 51.6511 47.2 49.3961 47.2 49.3961L45.8335 49.2041C45.8335 49.2041 43.2349 50.9219 43.0598 52.9854C42.8846 55.049 42.8846 55.049 42.8846 55.049C42.8846 55.049 41.1785 55.6834 40.5737 57.875C39.9691 60.0663 43.0953 62.0562 43.0953 62.0562C43.0953 62.0562 42.3428 66.0443 48.4743 67.9657C54.6058 69.8872 58.1587 65.902 58.8335 65.1902C59.5083 64.4786 60.0057 60.9204 62.9899 60.5644C65.974 60.2086 67.5208 58.5299 67.458 57.8748C67.3951 57.2197 72.884 56.5638 70.8589 49.7041C68.834 42.8443 62.8963 44.3701 62.8963 44.3701L62.2562 44.996Z" fill="#A07F68"/>
<path d="M42.8846 55.0493C42.8846 55.0493 43.344 56.5795 44.3744 56.971C45.4048 57.3626 46.0731 57.1488 46.7869 57.6826C47.5007 58.2164 47.3942 60.4581 50.2718 60.4937C53.1494 60.5293 53.8448 59.355 53.9589 59.6752C54.073 59.9955 52.1192 61.3476 49.3481 61.0629C46.577 60.7782 46.6837 58.7145 45.9731 58.4298C45.2626 58.1451 44.5521 58.7501 43.2375 57.7182C41.9231 56.6863 42.3707 55.3401 42.3707 55.3401L42.8846 55.0493Z" fill="#845F46"/>
<path d="M68.3742 45.631C68.3742 45.631 69.9884 47.5058 65.7963 52.2383C61.6043 56.9709 56.3109 61.3831 53.6465 62.0236C50.9821 62.6641 49.6269 62.0592 49.5052 62.1659C49.3835 62.2726 50.9385 63.5108 54.5485 62.3224C58.1584 61.134 63.2741 56.6506 66.6845 53.1279C70.095 49.6053 69.5696 47.7081 69.5302 46.8775C69.4909 46.0468 68.3742 45.631 68.3742 45.631Z" fill="#845F46"/>
<path d="M67.5385 57.7183C67.5385 57.7183 59.844 60.3865 57.8465 62.3435C55.849 64.3005 55.667 67.2665 51.0175 67.1827C46.368 67.0989 45.9728 64.3005 46.1505 64.5141C46.3282 64.7276 47.6185 66.7619 50.982 66.6011C54.3454 66.4403 55.9557 61.5252 59.899 59.8884C63.8423 58.2516 68.466 57.1642 68.466 57.1642L67.5385 57.7183Z" fill="#845F46"/>
<path d="M43.0951 62.0563C43.0951 62.0563 45.653 62.237 47.1807 63.5891C48.7083 64.9412 48.726 65.8841 50.378 65.9732C52.0299 66.0621 53.0246 65.0836 52.9003 65.2438C52.7759 65.4039 51.6699 66.7536 49.3478 66.0979C47.0256 65.4421 47.4649 64.2475 45.5997 63.7137C43.7346 63.1799 43.1693 63.3709 43.1693 63.3709C43.1693 63.3709 42.9354 62.3737 43.0951 62.0563Z" fill="#845F46"/>
<path d="M65.2736 62.1742C65.2736 62.1742 65.1494 70.0942 63.3762 71.0089C61.603 71.9236 49.4215 74.5159 49.4215 74.5159L49.1242 75.3396L49.7526 77.2931L57.1989 80.4267C57.1989 80.4267 58.4936 81.114 64.66 80.6408C70.8264 80.1679 72.8936 78.6762 72.8936 78.6762L72.5966 77.226L65.2736 62.1742Z" fill="#4D9186"/>
<path d="M60.3577 79.528L30.135 71.5995L37.5819 86.0097L60.3577 79.528Z" fill="#6D6762"/>
<path d="M12.8821 79.7374L38.3588 87.2596L26.2898 64.378C26.0029 63.8339 25.4779 63.4562 24.8715 63.3572L0.578207 57.6886C0.157022 57.62 -0.149076 58.0798 0.076179 58.4428L12.141 79.1724C12.3105 79.4456 12.5743 79.6466 12.8821 79.7374Z" fill="#3F3934"/>
<path d="M38.3586 87.2597L60.3453 80.7921C60.5357 80.7369 60.6666 80.5622 60.6666 80.3636V79.9525C60.6666 79.6539 60.3792 79.4395 60.0935 79.5251L37.582 86.0097L38.3586 87.2597Z" fill="#3F3934"/>
<path d="M35.8185 73.5094L45.2464 75.9823L37.582 77.8845L32.4818 76.1179L31.738 74.7076L35.8185 73.5094Z" fill="#898684"/>
<path d="M9.82659 61.0087C9.82659 61.0087 24.1519 64.1773 24.9117 64.7398C25.6713 65.3023 33.9306 81.0093 33.9306 81.0093C33.9306 81.0093 24.9117 65.4381 24.5319 65.0577C24.1519 64.6772 9.82659 61.0087 9.82659 61.0087Z" fill="white"/>
<path d="M13.2197 62.9666C13.4611 63.532 13.4424 64.0823 13.1777 64.1957C12.9131 64.309 12.5028 63.9426 12.2614 63.3772C12.02 62.8118 12.0389 62.2615 12.3034 62.1482C12.568 62.0346 12.9782 62.4012 13.2197 62.9666Z" fill="white"/>
<path opacity="0.11" d="M17.7845 63.0902L12.9195 79.5063L17.7845 81.0097L23.0988 64.5625L17.7845 63.0902Z" fill="white"/>
<path d="M56.1535 77.4099C56.1535 77.4099 54.9435 78.9403 53.4479 79.5214C51.9523 80.1025 50.2514 79.9732 48.7386 80.0639C47.2259 80.1546 46.438 79.3005 47.976 78.8949C49.5139 78.4893 50.2644 78.2744 50.2631 78.2366C50.2618 78.1988 48.9241 78.1672 48.1015 78.3847C47.279 78.6022 46.01 79.4421 44.8965 79.5944C43.7829 79.7465 43.4387 79.1926 44.3897 78.5176C45.3406 77.8427 46.271 77.612 46.271 77.612C46.271 77.612 44.7302 77.9773 43.8147 78.6132C42.8993 79.2491 42.4193 77.9071 43.3368 77.3089C44.2543 76.7106 44.7898 76.5409 44.7898 76.5409C44.7898 76.5409 45.3738 75.691 46.2022 75.6427C47.0306 75.5945 47.0214 75.3306 47.9575 75.2601C48.8935 75.1896 53.2163 74.5157 53.2163 74.5157L56.1535 77.4099Z" fill="#F4C092"/>
<path d="M69.5818 56.3551C69.5818 56.3551 74.1112 63.7707 73.9709 73.5094C73.8306 83.2482 54.5484 79.7282 54.5484 79.7282C54.5484 79.7282 53.2086 79.1744 52.9109 76.8356C52.6132 74.4968 52.9109 73.3697 52.9109 73.3697C52.9109 73.3697 64.2301 72.5035 65.2226 71.5999C66.2149 70.6963 64.3724 62.3476 65.8191 59.681C67.2657 57.0143 69.5818 56.3551 69.5818 56.3551Z" fill="#68ADA3"/>
<path d="M30.135 71.5994C30.135 71.5994 30.683 70.6179 33.096 71.3195C35.5089 72.0212 36.1116 73.1673 36.1116 73.1673C36.1116 73.1673 32.7079 76.5462 32.0315 75.2637C31.355 73.9813 30.135 71.5994 30.135 71.5994Z" fill="#F4C092"/>
</svg>
