<svg width="123" height="118" viewBox="0 0 123 118" fill="none" xmlns="http://www.w3.org/2000/svg">
<path d="M114.27 36.7886C105.872 17.6301 86.7936 -3.55695 61.3966 0.505444C61.3966 0.505444 42.0249 3.25686 24.4575 11.68C14.0313 16.6791 6.0435 25.3751 2.30586 35.7956C-1.43186 46.2161 -0.597823 57.4756 4.60551 67.0272C7.98508 73.2311 10.9068 79.8064 12.4345 86.7032C15.0933 98.7064 18.3559 109.701 31.7585 113.688C43.7255 117.249 58.1493 119.35 70.7479 117.015C79.3098 115.428 88.425 111.832 95.9212 107.479C134.124 85.2979 122.669 55.9472 114.27 36.7886Z" fill="#F4F7FA"/>
<mask id="mask0_111_5804" style="mask-type:luminance" maskUnits="userSpaceOnUse" x="-9" y="7" width="71" height="77">
<path d="M44.664 7.74276L-8.53882 22.0324L7.95261 83.6281L61.1555 69.3385L44.664 7.74276Z" fill="white"/>
</mask>
<g mask="url(#mask0_111_5804)">
<path d="M63.9908 91.6469C64.8729 91.5927 66.7445 90.697 67.1363 90.2623C69.7439 87.3695 74.9774 82.2705 75.0149 78.1544C75.0213 77.4513 71.9378 76.5907 71.5432 75.9185C69.7107 74.8923 69.0113 74.65 67.7489 72.8178C64.022 67.4088 73.9742 58.3938 63.3886 54.2765C55.6347 51.2606 48.7573 53.5407 50.4467 41.2926C52.1362 29.0446 43.9087 5.96429 30.3374 13.6733C22.5488 18.0976 29.4032 29.0714 25.043 36.5317C20.8997 43.6208 23.5966 49.8684 31.085 54.7947C38.5735 59.7209 34.183 62.8247 31.4454 69.6424C28.1569 77.8319 40.9292 80.1824 46.9188 80.7644C51.7421 81.2328 63.7053 85.6817 63.9908 91.6469Z" fill="url(#paint0_linear_111_5804)"/>
<mask id="mask1_111_5804" style="mask-type:luminance" maskUnits="userSpaceOnUse" x="23" y="12" width="53" height="80">
<path d="M63.9908 91.6469C64.8729 91.5927 66.7445 90.697 67.1363 90.2623C69.7439 87.3695 74.9774 82.2705 75.0149 78.1544C75.0213 77.4513 71.9378 76.5907 71.5432 75.9185C69.7107 74.8923 69.0113 74.65 67.7489 72.8178C64.022 67.4088 73.9742 58.3938 63.3886 54.2765C55.6347 51.2606 48.7573 53.5407 50.4467 41.2926C52.1362 29.0446 43.9087 5.96429 30.3374 13.6733C22.5488 18.0976 29.4032 29.0714 25.043 36.5317C20.8997 43.6208 23.5966 49.8684 31.085 54.7947C38.5735 59.7209 34.183 62.8247 31.4454 69.6424C28.1569 77.8319 40.9292 80.1824 46.9188 80.7644C51.7421 81.2328 63.7053 85.6817 63.9908 91.6469Z" fill="white"/>
</mask>
<g mask="url(#mask1_111_5804)">
<path d="M70.9428 84.5604L71.0363 84.3974C45.9354 69.9903 32.1106 42.2402 34.0551 10.1661L33.8674 10.1548C32.9459 25.3557 35.6877 40.146 41.7964 52.9269C48.2184 66.3637 58.2971 77.3023 70.9428 84.5604Z" fill="#FCFDFE"/>
<path d="M29.6962 72.8904C37.3666 70.934 49.9203 71.7119 57.6805 74.6248L57.7465 74.4489C49.9559 71.5246 37.3518 70.7439 29.6499 72.7084L29.6962 72.8904Z" fill="#FCFDFE"/>
<path d="M66.0463 81.6829L66.1814 81.552C63.1849 78.4537 61.8703 73.9576 62.2744 68.1889C62.5707 63.959 63.7669 59.156 65.8299 53.9131L65.655 53.8444C63.585 59.1051 62.3845 63.9268 62.0869 68.1758C61.6789 74 63.011 78.5445 66.0463 81.6829Z" fill="#FCFDFE"/>
<path d="M41.0048 51.067L41.1464 50.9433C35.7998 44.8149 27.5091 42.7137 21.4955 42.0301L21.4742 42.217C27.4548 42.8967 35.6978 44.9839 41.0048 51.067Z" fill="#FCFDFE"/>
<path d="M35.3323 33.325L35.5202 33.324C35.4797 24.156 41.2739 16.4695 44.7313 12.7037L44.5929 12.5765C41.1169 16.3627 35.2915 24.0928 35.3323 33.325Z" fill="#FCFDFE"/>
</g>
<path d="M58.1996 84.9116C58.9015 84.581 60.1378 83.2431 60.3164 82.7615C61.505 79.5567 64.1201 73.7006 62.8154 70.3327C62.5926 69.7575 59.7981 70.057 59.2581 69.6371C57.4304 69.3954 56.7813 69.4249 55.1572 68.3412C50.3624 65.1415 55.5563 54.5609 45.5856 54.6411C38.2822 54.6998 33.4117 58.7915 30.8166 48.2579C28.2216 37.7243 14.0231 21.5794 5.45331 32.2703C0.535067 38.4058 9.68627 45.1268 8.54954 52.6243C7.46933 59.7489 11.696 63.9666 19.4026 65.5514C27.1093 67.1363 24.5346 71.092 24.5131 77.5389C24.4873 85.283 35.6686 83.0526 40.7432 81.5823C44.8297 80.3983 56.0317 80.1413 58.1996 84.9116Z" fill="url(#paint1_linear_111_5804)"/>
<mask id="mask2_111_5804" style="mask-type:luminance" maskUnits="userSpaceOnUse" x="3" y="28" width="61" height="57">
<path d="M58.1996 84.9114C58.9015 84.5808 60.1377 83.2429 60.3164 82.7613C61.505 79.5565 64.1201 73.7004 62.8155 70.3325C62.5926 69.7573 59.7981 70.0568 59.2582 69.6369C57.4304 69.3953 56.7813 69.4248 55.1572 68.341C50.3624 65.1414 55.5564 54.5608 45.5856 54.641C38.2822 54.6998 33.4117 58.7915 30.8167 48.2579C28.2216 37.7243 14.0231 21.5796 5.45331 32.2705C0.53505 38.406 9.68625 45.127 8.54951 52.6245C7.46928 59.749 11.696 63.9667 19.4026 65.5515C27.1092 67.1363 24.5345 71.092 24.513 77.5389C24.4872 85.283 35.6685 83.0525 40.7431 81.5822C44.8297 80.3982 56.0317 80.1411 58.1996 84.9114Z" fill="white"/>
</mask>
<g mask="url(#mask2_111_5804)">
<path d="M61.5689 76.8726L61.5923 76.7093C36.4472 73.1141 16.17 54.9814 7.35085 28.2045L7.19409 28.2562C11.3738 40.9465 18.4079 52.113 27.5361 60.5483C37.1326 69.4165 48.901 75.0613 61.5689 76.8726Z" fill="#FCFDFE"/>
<path d="M24.1375 80.7564C29.7604 76.6737 40.2542 73.2361 47.5301 73.0936L47.5269 72.9288C40.2225 73.0719 29.6867 76.5235 24.0407 80.623L24.1375 80.7564Z" fill="#FCFDFE"/>
<path d="M56.6414 76.1253L56.7091 75.9747C53.2589 74.4211 50.7276 71.1818 49.1857 66.3468C48.055 62.8015 47.4728 58.4969 47.4552 53.552L47.2901 53.5528C47.3079 58.5144 47.8927 62.8358 49.0285 66.397C50.5852 71.2785 53.1465 74.5516 56.6414 76.1253Z" fill="#FCFDFE"/>
<path d="M26.2893 59.2919L26.3648 59.1452C20.015 55.885 12.57 56.8625 7.44245 58.2566L7.48566 58.4158C12.585 57.0293 19.9867 56.0558 26.2893 59.2919Z" fill="#FCFDFE"/>
<path d="M15.9068 46.6625L16.0598 46.6006C13.0522 39.1368 15.2864 30.9867 16.8858 26.7929L16.7316 26.7341C15.1236 30.9506 12.8781 39.1463 15.9068 46.6625Z" fill="#FCFDFE"/>
</g>
</g>
<path d="M120.278 63.3461L102.993 28.8262C99.5617 21.9732 91.4329 19.3751 85.0969 23.2102L82.2339 24.9432C81.2059 25.5655 80.0966 26.0404 78.9354 26.3548L72.0083 28.2302L43.5056 35.9468L35.9997 37.9789C34.7174 38.326 33.3913 38.5008 32.057 38.4977L28.3032 38.489C19.7942 38.4693 12.8199 45.58 13.1555 54.1034L14.8841 98.0145C15.1732 105.358 20.8795 110.92 28.1438 111.006C36.2245 111.102 43.0846 104.222 43.1345 96.127L43.2121 83.5565C43.2281 80.9487 44.9478 78.6004 47.403 77.8187L88.5394 64.7211C90.7636 64.013 93.1243 64.9627 94.3164 67.0365L100.016 76.9509C103.646 83.2651 111.477 84.6891 116.932 80.1252L116.932 80.1252C121.695 76.1395 123.106 68.9939 120.278 63.3461Z" fill="url(#paint2_linear_111_5804)"/>
<path opacity="0.3" d="M76.9229 47.5423L53.8963 54.4176C51.8463 55.0297 49.653 53.5731 49.0072 51.1613L44.8374 35.5884L75.2602 27.3407L79.2682 42.3091C79.8889 44.6272 78.8429 46.969 76.9229 47.5423Z" fill="url(#paint3_linear_111_5804)"/>
<path opacity="0.3" d="M104.298 73.6483C103.496 70.9423 104.418 69.1901 103.025 65.0989C102.374 63.1864 100.523 57.7497 96.1179 55.9025C91.8972 54.1328 87.3559 56.5066 81.4822 59.5767C73.9138 63.5327 74.7418 65.3771 69.3004 67.6729C61.3675 71.02 57.4172 68.0237 51.9313 71.5728C49.1963 73.3422 47.4239 75.8706 46.2467 78.3449C46.6099 78.1342 46.9955 77.9573 47.4039 77.8274L88.5399 64.7311C90.7641 64.023 93.1248 64.9727 94.3169 67.0463L100.016 76.9601C102.962 82.0835 108.673 83.9865 113.637 82.0837C107.304 79.3529 105.063 76.226 104.298 73.6483Z" fill="url(#paint4_linear_111_5804)"/>
<path d="M44.8492 52.1667C46.6616 58.9359 42.6415 66.0903 35.7776 68.1746C28.8093 70.2905 21.5722 66.39 19.7096 59.4333C17.847 52.4766 22.1058 45.2533 29.1246 43.3263C36.0384 41.4281 43.0368 45.3975 44.8492 52.1667Z" fill="url(#paint5_linear_111_5804)"/>
<path d="M63.295 64.4926C64.76 69.9636 61.6045 75.7933 56.1881 77.5325C50.7054 79.293 44.9974 76.2021 43.4998 70.6093C42.0022 65.0163 45.3092 59.1398 50.8247 57.5019C56.2735 55.8838 61.8301 59.0215 63.295 64.4926Z" fill="url(#paint6_linear_111_5804)"/>
<path d="M61.4086 65.0753C62.5912 69.4919 60.0378 74.1917 55.6669 75.5849C51.253 76.9918 46.6669 74.4981 45.4631 70.0024C44.2593 65.5068 46.9111 60.7766 51.3463 59.4491C55.7382 58.1346 60.226 60.6587 61.4086 65.0753Z" fill="url(#paint7_linear_111_5804)"/>
<path d="M59.8524 65.5897C60.6761 68.6662 58.9018 71.9444 55.856 72.9224C52.773 73.9123 49.5632 72.1743 48.7211 69.0293C47.879 65.8843 49.7385 62.5799 52.84 61.6588C55.904 60.7489 59.0286 62.5133 59.8524 65.5897Z" fill="url(#paint8_linear_111_5804)"/>
<path d="M58.7915 65.9175C59.4565 68.4011 58.0207 71.0438 55.5628 71.8272C53.0808 72.6184 50.502 71.2161 49.825 68.6881C49.1481 66.1601 50.6393 63.5002 53.1333 62.7538C55.6029 62.0147 58.1265 63.434 58.7915 65.9175Z" fill="url(#paint9_linear_111_5804)"/>
<path d="M92.4127 55.3742C93.8242 60.6459 90.937 66.214 85.9111 67.8278C80.826 69.4607 75.4907 66.4333 74.0489 61.0486C72.607 55.6639 75.6296 50.054 80.7452 48.5348C85.8012 47.0333 91.0011 50.1025 92.4127 55.3742Z" fill="url(#paint10_linear_111_5804)"/>
<path d="M90.6611 55.9154C91.8005 60.1707 89.4644 64.6594 85.4088 65.9521C81.3148 67.257 77.0277 64.815 75.8686 60.4863C74.7096 56.1576 77.1336 51.6417 81.2474 50.4105C85.3225 49.1908 89.5217 51.66 90.6611 55.9154Z" fill="url(#paint11_linear_111_5804)"/>
<path d="M90.0407 56.1582C90.8644 59.2346 89.0901 62.5128 86.0443 63.4908C82.9613 64.4808 79.7515 62.7427 78.9094 59.5977C78.0673 56.4527 79.9269 53.1483 83.0283 52.2272C86.0924 51.3173 89.2169 53.0817 90.0407 56.1582Z" fill="url(#paint12_linear_111_5804)"/>
<path d="M88.9797 56.486C89.6447 58.9695 88.2088 61.6123 85.751 62.3957C83.269 63.1868 80.6901 61.7846 80.0132 59.2566C79.3363 56.7286 80.8275 54.0687 83.3214 53.3223C85.7911 52.583 88.3147 54.0024 88.9797 56.486Z" fill="url(#paint13_linear_111_5804)"/>
<path d="M42.8676 44.7637C42.0183 45.0018 41.144 44.5057 40.9163 43.6552L40.1918 40.9487C39.9641 40.0983 40.4704 39.2199 41.3212 38.9873L41.3212 38.9872C42.1704 38.755 43.0416 39.2542 43.2685 40.1018L43.9906 42.7991C44.2175 43.6467 43.7154 44.5261 42.8676 44.7637Z" fill="url(#paint14_linear_111_5804)"/>
<path d="M80.1795 34.272C79.4052 34.4891 78.6003 34.0071 78.383 33.1951L77.6912 30.6112C77.4739 29.7993 77.9274 28.9688 78.703 28.7567C79.4772 28.545 80.2794 29.0297 80.4961 29.8391L81.1856 32.4146C81.4022 33.224 80.9524 34.0554 80.1795 34.272Z" fill="url(#paint15_linear_111_5804)"/>
<path d="M31.3658 46.3924L28.7186 47.13C27.9385 47.3474 27.4718 48.147 27.6777 48.9157L28.4865 51.9369C28.5598 52.2108 28.7135 52.4552 28.9284 52.6395L30.5986 54.0727C30.9633 54.3857 31.4658 54.4923 31.9367 54.357L32.1988 54.2816C32.669 54.1465 33.0452 53.7878 33.2012 53.3264L33.9133 51.2205C34.0046 50.9504 34.0144 50.6612 33.9415 50.3889L33.1375 47.3856C32.9329 46.6214 32.1402 46.1766 31.3658 46.3924Z" fill="url(#paint16_linear_111_5804)"/>
<path d="M36.1727 64.3465L33.5393 65.1356C32.7632 65.3682 31.9662 64.9339 31.7604 64.1652L30.9516 61.144C30.8783 60.8701 30.8884 60.5783 30.9808 60.3051L31.6987 58.1815C31.8555 57.7177 32.2327 57.3567 32.7033 57.2199L32.9652 57.1437C33.4349 57.0071 33.9353 57.1123 34.2982 57.4236L35.9546 58.8448C36.167 59.0271 36.3192 59.2695 36.3921 59.5417L37.1962 62.545C37.4007 63.3092 36.943 64.1156 36.1727 64.3465Z" fill="url(#paint17_linear_111_5804)"/>
<path d="M22.916 57.0855L23.6218 59.721C23.829 60.4949 24.6371 60.9352 25.4255 60.7048L28.5112 59.8031C28.7899 59.7216 29.0406 59.5612 29.2319 59.3418L30.7181 57.6379C31.0425 57.266 31.1623 56.7627 31.0376 56.2972L30.9682 56.0378C30.8435 55.5722 30.4907 55.2056 30.0282 55.0612L27.9085 54.3996C27.6356 54.3145 27.3413 54.3116 27.0622 54.3914L23.9716 55.2751C23.1819 55.5009 22.7088 56.3115 22.916 57.0855Z" fill="url(#paint18_linear_111_5804)"/>
<path d="M41.1074 51.8578L41.7993 54.4418C42.0024 55.2006 41.551 55.9957 40.7898 56.2181L37.7857 57.0961C37.5124 57.1759 37.2236 57.1739 36.9554 57.0902L34.8629 56.4368C34.404 56.2935 34.0534 55.9284 33.9291 55.4642L33.8598 55.2057C33.7356 54.7415 33.8543 54.2407 34.176 53.8717L35.6431 52.1893C35.8311 51.9737 36.0774 51.817 36.3511 51.7387L39.36 50.8783C40.1223 50.6604 40.9042 51.099 41.1074 51.8578Z" fill="url(#paint19_linear_111_5804)"/>
<path d="M31.9933 46.3649L29.3462 47.1024C28.566 47.3199 28.0994 48.1195 28.3052 48.8882L29.114 51.9094C29.1874 52.1832 29.3411 52.4277 29.5559 52.612L31.2261 54.0452C31.5909 54.3582 32.0933 54.4648 32.5642 54.3294L32.8263 54.2541C33.2965 54.119 33.6727 53.7603 33.8287 53.2989L34.5408 51.193C34.6321 50.9229 34.642 50.6336 34.5691 50.3614L33.765 47.358C33.5604 46.5939 32.7677 46.1491 31.9933 46.3649Z" fill="url(#paint20_linear_111_5804)"/>
<path d="M36.8002 64.319L34.1669 65.1081C33.3907 65.3407 32.5938 64.9064 32.388 64.1377L31.5791 61.1165C31.5058 60.8427 31.5159 60.5508 31.6083 60.2777L32.3262 58.1541C32.483 57.6903 32.8603 57.3292 33.3308 57.1924L33.5927 57.1163C34.0624 56.9797 34.5629 57.0848 34.9257 57.3962L36.5821 58.8174C36.7946 58.9996 36.9467 59.242 37.0196 59.5142L37.8237 62.5176C38.0283 63.2818 37.5706 64.0881 36.8002 64.319Z" fill="url(#paint21_linear_111_5804)"/>
<path d="M23.5436 57.0577L24.2493 59.6933C24.4565 60.4672 25.2646 60.9075 26.0531 60.6771L29.1388 59.7753C29.4174 59.6939 29.6681 59.5334 29.8594 59.3141L31.3456 57.6101C31.67 57.2382 31.7898 56.735 31.6652 56.2694L31.5957 56.01C31.4711 55.5444 31.1183 55.1779 30.6557 55.0335L28.536 54.3719C28.2632 54.2867 27.9688 54.2838 27.6897 54.3637L24.5991 55.2474C23.8095 55.4731 23.3364 56.2838 23.5436 57.0577Z" fill="url(#paint22_linear_111_5804)"/>
<path d="M41.735 51.8303L42.4269 54.4143C42.6301 55.1731 42.1786 55.9682 41.4174 56.1907L38.4133 57.0686C38.14 57.1484 37.8512 57.1464 37.583 57.0627L35.4905 56.4093C35.0317 56.266 34.681 55.9009 34.5567 55.4367L34.4875 55.1781C34.3632 54.714 34.482 54.2131 34.8036 53.8442L36.2707 52.1618C36.4588 51.9462 36.7051 51.7895 36.9788 51.7112L39.9876 50.8509C40.75 50.633 41.5318 51.0716 41.735 51.8303Z" fill="url(#paint23_linear_111_5804)"/>
<path d="M83.2111 41.0237C84.9397 47.4797 91.2762 51.2144 97.2868 49.3888C103.214 47.5887 106.592 41.0452 104.907 34.751C103.222 28.4569 97.0765 24.6669 91.1065 26.3063C85.0523 27.9691 81.4826 34.5678 83.2111 41.0237Z" fill="url(#paint24_linear_111_5804)"/>
<path d="M95.0155 29.8221C95.4488 31.4406 94.5676 33.1024 93.0422 33.5352C91.5114 33.9696 89.9128 33.0022 89.4767 31.3732C89.0405 29.7442 89.9342 28.0789 91.4678 27.6551C92.996 27.2327 94.5821 28.2036 95.0155 29.8221Z" fill="url(#paint25_linear_111_5804)"/>
<path d="M98.8863 44.28C99.3197 45.8985 98.444 47.5811 96.9256 48.0398C95.4017 48.5001 93.8088 47.5538 93.3726 45.9248C92.9365 44.2958 93.8245 42.6094 95.3512 42.1597C96.8724 41.7115 98.4529 42.6614 98.8863 44.28Z" fill="url(#paint26_linear_111_5804)"/>
<path d="M86.5364 36.8664C88.0857 36.4242 89.6916 37.3894 90.1284 39.0209C90.5652 40.6523 89.6698 42.3408 88.1234 42.7937C86.5714 43.2483 84.9527 42.2867 84.5131 40.6446C84.0734 39.0025 84.9815 37.3103 86.5364 36.8664Z" fill="url(#paint27_linear_111_5804)"/>
<path d="M100.174 32.9793C101.675 32.5509 103.236 33.5064 103.666 35.1122C104.096 36.7179 103.234 38.3742 101.736 38.8129C100.233 39.2531 98.6593 38.3011 98.2266 36.685C97.7939 35.0689 98.6679 33.4092 100.174 32.9793Z" fill="url(#paint28_linear_111_5804)"/>
<path d="M95.643 29.7951C96.0763 31.4136 95.1951 33.0754 93.6697 33.5082C92.1389 33.9425 90.5404 32.9752 90.1042 31.3462C89.668 29.7172 90.5617 28.0519 92.0953 27.6281C93.6235 27.2058 95.2096 28.1766 95.643 29.7951Z" fill="url(#paint29_linear_111_5804)"/>
<path d="M99.5137 44.2525C99.947 45.871 99.0714 47.5537 97.553 48.0123C96.0291 48.4726 94.4362 47.5264 94 45.8973C93.5639 44.2683 94.4519 42.5819 95.9786 42.1322C97.4998 41.684 99.0803 42.634 99.5137 44.2525Z" fill="url(#paint30_linear_111_5804)"/>
<path d="M87.1638 36.8394C88.713 36.3972 90.319 37.3624 90.7558 38.9939C91.1927 40.6253 90.2972 42.3138 88.7508 42.7668C87.1988 43.2213 85.5802 42.2598 85.1405 40.6176C84.7008 38.9754 85.6089 37.2833 87.1638 36.8394Z" fill="url(#paint31_linear_111_5804)"/>
<path d="M100.801 32.952C102.302 32.5237 103.863 33.4792 104.293 35.085C104.723 36.6907 103.861 38.347 102.363 38.7857C100.86 39.2259 99.2867 38.2739 98.854 36.6578C98.4213 35.0417 99.2953 33.382 100.801 32.952Z" fill="url(#paint32_linear_111_5804)"/>
<path opacity="0.3" d="M30.5126 105.384C29.9466 102.32 33.8651 100.79 33.6721 96.7846C33.4076 91.2949 25.8684 90.4974 24.9909 84.7566C24.1328 79.1419 30.593 74.9878 28.6754 71.9504C27.723 70.4419 25.9505 71.1832 22.8334 69.5797C18.4515 67.3256 16.4407 63.0245 15.9188 61.7788C12.6709 54.0271 17.5006 46.26 18.3741 44.8553C19.855 42.4737 21.6346 40.6596 23.3752 39.2874C17.2736 41.3887 12.8899 47.2846 13.1574 54.0837L14.8851 98.0091C15.1741 105.355 20.8811 110.919 28.1466 111.005C30.4516 111.033 32.6564 110.491 34.6331 109.517C31.7226 108.108 30.7441 106.637 30.5126 105.384Z" fill="url(#paint33_linear_111_5804)"/>
<path opacity="0.3" d="M70.5906 43.5542C66.732 42.6005 65.3307 45.3479 62.4412 44.3198C59.0715 43.1208 59.8586 38.9865 56.4183 37.5776C53.5206 36.3908 51.7003 38.8072 47.8561 38.3744C47.1084 38.2902 46.2884 38.0977 45.4114 37.7316L49.0074 51.1613C49.6531 53.573 51.8465 55.0296 53.8965 54.4175L76.923 47.5424C77.4074 47.3977 77.8356 47.1401 78.196 46.7992C77.598 46.7495 76.9784 46.6462 76.3457 46.4698C73.502 45.6765 73.1888 44.1964 70.5906 43.5542Z" fill="url(#paint34_linear_111_5804)"/>
<path d="M100.722 29.5263C99.7402 25.8611 95.5945 23.9072 91.6041 25.1188C89.3316 25.8088 87.6139 27.378 86.7771 29.2385C86.7768 29.2381 86.7766 29.2377 86.7763 29.2373C86.7712 29.2488 86.7665 29.2606 86.7614 29.2722C86.7471 29.3047 86.7335 29.3375 86.7197 29.3701C86.6944 29.4297 86.6698 29.4894 86.6463 29.5496C86.6324 29.5851 86.6189 29.6207 86.6056 29.6564C86.5835 29.7161 86.5625 29.776 86.5421 29.8362C86.5305 29.8706 86.5186 29.9049 86.5075 29.9395C86.4854 30.0087 86.4649 30.0782 86.4452 30.1479C86.438 30.1732 86.4301 30.1982 86.4233 30.2235C86.3978 30.3176 86.3745 30.4123 86.3535 30.5074C86.3479 30.5326 86.3434 30.5581 86.3382 30.5833C86.3233 30.6544 86.3093 30.7256 86.2969 30.7972C86.2908 30.8322 86.2856 30.8674 86.2802 30.9026C86.2704 30.9656 86.2615 31.0287 86.2536 31.092C86.2491 31.1287 86.2448 31.1655 86.2409 31.2023C86.2341 31.2669 86.2286 31.3317 86.2239 31.3966C86.2214 31.4305 86.2185 31.4644 86.2165 31.4984C86.212 31.5796 86.2093 31.6611 86.208 31.7426C86.2077 31.7596 86.2067 31.7765 86.2065 31.7936C86.2058 31.8917 86.2077 31.9901 86.2118 32.0886C86.213 32.1176 86.2154 32.1466 86.217 32.1756C86.221 32.2459 86.2257 32.3163 86.2321 32.3867C86.2354 32.4225 86.2394 32.4584 86.2434 32.4942C86.2505 32.5591 86.2586 32.6239 86.2679 32.6888C86.2731 32.7252 86.2784 32.7616 86.2843 32.7979C86.2953 32.866 86.308 32.934 86.3214 33.002C86.3276 33.0337 86.3333 33.0653 86.3401 33.0969C86.3612 33.1959 86.3845 33.2948 86.4109 33.3936C87.0406 35.7455 89.0201 37.438 91.4523 37.9756C91.676 38.0251 91.9036 38.0648 92.1345 38.0944C92.2502 38.1093 92.3666 38.1216 92.4838 38.1313C93.3076 38.1996 94.1684 38.1401 95.0353 37.9343C95.1548 37.9059 95.2729 37.8748 95.3898 37.8417C95.4292 37.8305 95.4678 37.8177 95.507 37.806C95.584 37.7829 95.661 37.7598 95.7369 37.7346C95.7832 37.7192 95.8287 37.7025 95.8746 37.6863C95.9421 37.6626 96.0095 37.6389 96.0759 37.6136C96.1246 37.5951 96.1725 37.5755 96.2206 37.5561C96.2831 37.5309 96.3455 37.5056 96.4071 37.479C96.4562 37.4578 96.5048 37.4358 96.5533 37.4137C96.6126 37.3867 96.6715 37.3594 96.7298 37.3312C96.7786 37.3075 96.827 37.2834 96.8752 37.2588C96.9319 37.2299 96.9882 37.2005 97.044 37.1704C97.0919 37.1446 97.1396 37.1185 97.1867 37.0918C97.2416 37.0608 97.2958 37.029 97.3496 36.9968C97.396 36.9691 97.4424 36.9414 97.488 36.9129C97.5049 36.9024 97.5224 36.8926 97.5391 36.8819C97.5386 36.8816 97.5381 36.8812 97.5375 36.881C100.089 35.2607 101.478 32.352 100.722 29.5263Z" fill="url(#paint35_linear_111_5804)"/>
<path d="M100.169 29.6756C101.147 33.3313 98.5521 37.0993 94.5155 38.0576C90.6293 38.9801 86.8428 36.9365 85.929 33.5236C85.0153 30.1108 87.2703 26.4345 91.0928 25.2738C95.0631 24.0683 99.1898 26.0198 100.169 29.6756Z" fill="url(#paint36_linear_111_5804)"/>
<path d="M91.3345 28.0207L90.7873 30.2962L88.6803 31.1422C88.3764 31.2642 88.3327 31.6958 88.6066 31.874L90.5148 33.1151L90.6163 35.5012C90.6312 35.852 91.0255 36.04 91.2841 35.8179L93.0692 34.2848L95.3803 34.9581C95.7233 35.058 96.0216 34.7176 95.8837 34.3828L94.9506 32.117L96.2527 30.0855C96.4432 29.7883 96.2099 29.4042 95.8594 29.4357L93.4931 29.6482L92.0387 27.8441C91.8297 27.5848 91.4141 27.6897 91.3345 28.0207Z" fill="white"/>
<g opacity="0.2">
<path d="M95.8318 35.9984C94.4502 34.3177 94.8554 32.3131 93.3531 31.4006C91.8442 30.484 90.6409 32.0427 88.7741 31.4863C88.0601 31.2735 87.1897 30.7333 86.2906 29.3784C85.7112 30.6702 85.5519 32.1141 85.9293 33.5239C86.843 36.9366 90.6296 38.9799 94.5159 38.0571C95.4271 37.8407 96.2655 37.4804 97.0069 37.0087C96.4953 36.6991 96.118 36.3465 95.8318 35.9984Z" fill="url(#paint37_linear_111_5804)"/>
</g>
<path d="M82.3842 20.3668C82.4361 20.5608 82.4954 20.7507 82.5257 20.9452C82.5388 21.0291 82.5589 21.1099 82.5676 21.1929C82.5852 21.3597 82.6002 21.5251 82.602 21.691C82.6034 21.7738 82.6051 21.8565 82.6034 21.9391C82.6013 21.9937 82.5998 22.0492 82.5968 22.1041C82.5185 23.3955 81.9884 24.6388 81.1203 25.6931C81.1014 25.7159 81.0838 25.7383 81.0647 25.76C80.7644 26.1172 80.4255 26.4504 80.0516 26.7576C80.0285 26.7763 80.0055 26.7949 79.9815 26.8139C79.8164 26.9466 79.6447 27.0737 79.4664 27.1954C79.3908 27.2469 79.313 27.2979 79.2347 27.347C79.1824 27.3808 79.1299 27.4136 79.0762 27.4458C78.9966 27.4941 78.9156 27.5408 78.8334 27.5868C78.7791 27.617 78.7238 27.6474 78.6684 27.6769C77.9733 28.0464 77.2072 28.3332 76.388 28.5147C76.3271 28.5278 76.2662 28.5411 76.206 28.5531C76.1883 28.5568 76.1704 28.5595 76.1536 28.563C76.1488 28.5643 76.1437 28.5646 76.1388 28.5659C76.1002 28.5732 76.0619 28.5814 76.024 28.5874C76.0041 28.5907 75.9854 28.5947 75.9665 28.5976C75.9247 28.6047 75.882 28.612 75.8402 28.6191C75.8222 28.6218 75.804 28.6236 75.786 28.6263C75.7433 28.6337 75.6993 28.6402 75.6561 28.6456C75.64 28.6478 75.625 28.6498 75.6089 28.652C75.5628 28.6582 75.5166 28.6643 75.4692 28.6698C75.458 28.6707 75.4459 28.6719 75.4338 28.6731C75.3825 28.6795 75.3319 28.6848 75.2801 28.6894C75.2731 28.6902 75.2479 28.6234 75.2419 28.624C75.184 28.6292 75.1052 28.5561 75.0509 28.5706L75.05 28.5709C74.5884 28.6948 74.1056 28.6692 73.642 28.6263C73.6427 28.625 73.6518 28.6589 73.6525 28.6576C73.5077 28.6445 73.3682 28.6439 73.2255 28.623C73.0988 28.604 72.9757 28.591 72.8519 28.567C72.81 28.624 72.761 28.6895 72.7049 28.7555C71.7221 28.6129 70.8063 28.3017 70.0083 27.8444C70.0553 27.7247 70.0983 27.602 70.1339 27.4749C68.948 26.683 68.0739 25.5532 67.7106 24.1963C66.8394 20.9423 69.175 17.3881 73.0931 16.2083C73.221 16.1698 73.3147 16.1438 73.4422 16.1116C77.326 15.122 81.2652 16.8196 82.2714 20.1007L82.2724 20.1046C82.2836 20.1464 82.295 20.189 82.3064 20.2317L82.3116 20.2511C82.3227 20.2928 82.3728 20.3241 82.3842 20.3668Z" fill="url(#paint38_linear_111_5804)"/>
<path d="M81.8888 20.4755C82.8192 23.9504 80.177 27.5353 76.1387 28.5656C76.0454 28.5896 75.9506 28.6119 75.8555 28.6333C75.7691 28.6524 75.6825 28.6704 75.5963 28.6863C75.5085 28.7037 75.4201 28.719 75.3325 28.7333C75.3145 28.736 75.2968 28.7397 75.2785 28.7415C75.2217 28.7505 75.1659 28.7593 75.1086 28.7664C75.0524 28.7741 74.9973 28.7817 74.9407 28.7875C74.8602 28.7977 74.7793 28.8059 74.699 28.8129C74.6501 28.8167 74.6025 28.8212 74.5546 28.8247C74.0702 28.8591 73.5929 28.8542 73.129 28.8103C72.9861 28.7967 72.8456 28.7804 72.706 28.7597C71.7232 28.6171 70.8068 28.3039 70.0088 27.8466C68.6164 27.0521 67.5821 25.8245 67.1783 24.3164C66.307 21.0627 68.6425 17.5082 72.5606 16.3282C72.8654 16.236 73.1707 16.1613 73.4763 16.1031C76.7501 15.4727 79.9547 16.7234 81.3527 19.175C81.3529 19.1753 81.3531 19.1756 81.3533 19.1759C81.3884 19.2376 81.4226 19.2998 81.4554 19.363C81.4661 19.3834 81.4762 19.404 81.4866 19.4245C81.512 19.475 81.5375 19.5253 81.5614 19.5767C81.5967 19.652 81.6306 19.7281 81.6626 19.8054C81.6619 19.8067 81.6631 19.8073 81.6636 19.8093C81.6756 19.8383 81.6877 19.8683 81.6987 19.8976C81.7137 19.9341 81.7276 19.9709 81.7407 20.008C81.7558 20.0486 81.7711 20.0902 81.7842 20.1314C81.7885 20.1438 81.7931 20.1571 81.7974 20.1694C81.8134 20.2171 81.8283 20.2651 81.8422 20.3133C81.8587 20.3671 81.8742 20.4212 81.8888 20.4755Z" fill="url(#paint39_linear_111_5804)"/>
<path d="M81.8888 20.4755C82.8192 23.9504 80.177 27.5353 76.1387 28.5656C76.0454 28.5896 75.9506 28.6119 75.8555 28.6333C75.7691 28.6524 75.6825 28.6704 75.5963 28.6863C75.5085 28.7037 75.4201 28.719 75.3325 28.7333C75.3145 28.736 75.2968 28.7397 75.2785 28.7415C75.2217 28.7505 75.1659 28.7593 75.1086 28.7664C75.0524 28.7741 74.9973 28.7817 74.9407 28.7875C74.8602 28.7977 74.7793 28.8059 74.699 28.8129C74.6501 28.8167 74.6025 28.8212 74.5546 28.8247C74.0702 28.8591 73.5929 28.8542 73.129 28.8103C72.9861 28.7967 72.8456 28.7804 72.706 28.7597C71.7232 28.6171 70.8068 28.3039 70.0088 27.8466C68.6164 27.0521 67.5821 25.8245 67.1783 24.3164C66.307 21.0627 68.6425 17.5082 72.5606 16.3282C72.8654 16.236 73.1707 16.1613 73.4763 16.1031C76.7501 15.4727 79.9547 16.7234 81.3527 19.175C81.3529 19.1753 81.3531 19.1756 81.3533 19.1759C81.3884 19.2376 81.4226 19.2998 81.4554 19.363C81.4661 19.3834 81.4762 19.404 81.4866 19.4245C81.512 19.475 81.5375 19.5253 81.5614 19.5767C81.5967 19.652 81.6306 19.7281 81.6626 19.8054C81.6619 19.8067 81.6631 19.8073 81.6636 19.8093C81.6756 19.8383 81.6877 19.8683 81.6987 19.8976C81.7137 19.9341 81.7276 19.9709 81.7407 20.008C81.7558 20.0486 81.7711 20.0902 81.7842 20.1314C81.7885 20.1438 81.7931 20.1571 81.7974 20.1694C81.8134 20.2171 81.8283 20.2651 81.8422 20.3133C81.8587 20.3671 81.8742 20.4212 81.8888 20.4755Z" fill="url(#paint40_linear_111_5804)"/>
<path d="M69.744 21.9166C69.8142 20.99 70.3932 20.1827 71.267 19.9368C72.4208 19.612 73.6473 20.3876 73.9916 21.6734C73.6473 20.3877 74.3266 19.0756 75.5243 18.7384C76.4544 18.4766 77.4257 18.8778 77.9895 19.6749C80.0972 22.5321 75.366 26.8063 75.366 26.8063C75.366 26.8063 69.4303 25.2191 69.744 21.9166Z" fill="white"/>
<g opacity="0.3">
<path d="M73.659 27.4797C74.053 25.469 72.7182 24.004 73.5872 22.5333C74.483 21.0174 76.3885 21.7088 77.8872 20.2509C78.4751 19.6791 79.0512 18.7268 79.2205 17.0338C80.5235 17.8239 81.4952 19.0079 81.8884 20.4765C82.8404 24.032 80.0521 27.704 75.855 28.6351C74.9222 28.842 74.0013 28.8947 73.1277 28.8143C73.4209 28.3438 73.5783 27.8914 73.659 27.4797Z" fill="url(#paint41_linear_111_5804)"/>
</g>
<path d="M89.2295 4.60433C92.4499 3.84492 95.6548 5.07554 96.8386 7.40456C96.8402 7.40757 96.8417 7.41069 96.8432 7.41374C96.9077 7.54131 96.9661 7.67213 97.0182 7.80615C97.0216 7.81499 97.0251 7.8238 97.0285 7.83268C97.0524 7.8954 97.0749 7.95883 97.0959 8.02296C97.0998 8.03459 97.1034 8.04626 97.1072 8.05796C97.1281 8.1236 97.1481 8.18973 97.1661 8.25676C97.9344 11.1263 95.5888 14.087 91.9753 14.8593C91.8792 14.8798 91.7831 14.8983 91.6872 14.9153C91.6778 14.917 91.6685 14.9188 91.6591 14.9205C91.5682 14.9363 91.4775 14.9503 91.3869 14.963C91.3728 14.965 91.3587 14.9671 91.3446 14.969C91.2568 14.9809 91.1692 14.9912 91.0817 15.0002C91.0653 15.002 91.0488 15.0036 91.0323 15.0052C90.9463 15.0135 90.8606 15.0206 90.7751 15.0262C90.7578 15.0274 90.7405 15.0283 90.7232 15.0294C90.638 15.0344 90.5531 15.0385 90.4683 15.0408C90.4519 15.0413 90.4356 15.0415 90.4192 15.0419C90.335 15.0437 90.2509 15.0447 90.1673 15.044C90.1523 15.0438 90.1374 15.0434 90.1224 15.0432C90.047 15.0421 89.9719 15.04 89.897 15.0368C89.878 15.0359 89.859 15.0354 89.8401 15.0345C89.764 15.0308 89.6884 15.0256 89.6129 15.0197C89.5967 15.0185 89.5802 15.0179 89.5639 15.0165C89.5641 15.0163 89.5642 15.0161 89.5644 15.0158C86.9663 14.797 84.7854 13.3202 84.2093 11.1686C83.461 8.37349 85.688 5.43946 89.2295 4.60433Z" fill="url(#paint42_linear_111_5804)"/>
<path d="M83.5332 11.3503C84.2816 14.1451 87.7378 15.8016 91.2991 15.0403C94.9127 14.2678 97.2582 11.3071 96.4899 8.4377C95.7216 5.56832 92.1468 3.93847 88.5534 4.78606C85.0119 5.62141 82.7848 8.55545 83.5332 11.3503Z" fill="url(#paint43_linear_111_5804)"/>
<path d="M87.3401 9.38562C87.5598 10.2064 89.0377 11.9019 90.0542 12.9975C90.4776 13.4538 91.2276 13.2907 91.3743 12.709C91.7281 11.3068 92.1932 9.16246 91.9713 8.33389C91.629 7.05536 90.3085 6.26093 89.028 6.5581C87.754 6.85376 87.001 8.11906 87.3401 9.38562ZM88.4047 9.14386C88.2222 8.46236 88.6284 7.78259 89.3136 7.62512C90.0007 7.46728 90.7078 7.89423 90.8912 8.57922C91.0746 9.26416 90.6641 9.94493 89.976 10.0994C89.2899 10.2534 88.5871 9.82535 88.4047 9.14386Z" fill="white"/>
<g opacity="0.3">
<path d="M89.3784 14.0759C89.7529 12.3954 88.588 11.1576 89.3788 9.94547C90.1856 8.70871 91.835 9.31829 93.1342 8.16149C93.6387 7.71232 94.1331 6.95847 94.2884 5.60097C95.3729 6.27733 96.1725 7.25339 96.4898 8.43865C97.2582 11.308 94.9126 14.2689 91.299 15.0416C90.4786 15.217 89.6642 15.2641 88.8877 15.199C89.1554 14.8021 89.3014 14.4215 89.3784 14.0759Z" fill="url(#paint44_linear_111_5804)"/>
</g>
<path d="M79.395 55.3698L91.3467 53.5843L90.382 49.9821L78.7126 52.8218L79.395 55.3698Z" fill="url(#paint45_linear_111_5804)"/>
<path d="M90.5609 53.0264L89.9583 50.7765L79.1456 53.2179L79.5829 54.8511L90.5609 53.0264Z" fill="white"/>
<path d="M77.827 55.6015L81.1534 55.1041L78.9015 51.5592L76.8982 52.1326L77.827 55.6015Z" fill="url(#paint46_linear_111_5804)"/>
<path d="M80.4798 54.6993L78.8324 52.0861L77.2888 52.5003L77.9886 55.1138L80.4798 54.6993Z" fill="white"/>
<path d="M89.0082 52.943L90.0354 52.763L89.6198 51.2108L88.6034 51.4312L89.0082 52.943Z" fill="white"/>
<path d="M87.6988 53.1721L88.6563 53.0044L88.2552 51.5063L87.3077 51.7117L87.6988 53.1721Z" fill="white"/>
<path d="M86.4753 53.386L87.3702 53.2292L86.9826 51.7816L86.0972 51.9736L86.4753 53.386Z" fill="white"/>
<path d="M85.33 53.5862L86.168 53.4393L85.7931 52.039L84.9638 52.2188L85.33 53.5862Z" fill="white"/>
<path d="M84.2554 53.7742L85.042 53.6363L84.6789 52.2803L83.9006 52.449L84.2554 53.7742Z" fill="url(#paint47_linear_111_5804)"/>
<path d="M83.2447 53.9508L83.9843 53.8211L83.6324 52.5065L82.9005 52.6652L83.2447 53.9508Z" fill="url(#paint48_linear_111_5804)"/>
<path d="M82.2932 54.1173L82.9901 53.9952L82.6486 52.7196L81.959 52.8691L82.2932 54.1173Z" fill="url(#paint49_linear_111_5804)"/>
<path d="M81.3953 54.2745L82.053 54.1592L81.7213 52.9205L81.0706 53.0615L81.3953 54.2745Z" fill="url(#paint50_linear_111_5804)"/>
<path d="M41.5686 45.0264C41.5686 45.0264 39.7208 44.4988 38.3716 43.233C39.3107 41.25 39.573 39.0677 38.9818 36.9901C37.5642 32.0084 31.6802 29.1671 25.581 30.7093C19.3428 32.2866 15.2182 37.8168 16.4388 43.1328C16.4392 43.1346 16.4397 43.1364 16.44 43.1382C16.4553 43.2042 16.4712 43.2701 16.4881 43.336C16.4905 43.3456 16.4931 43.3552 16.4956 43.3648C16.5124 43.4294 16.5296 43.494 16.548 43.5584C16.6327 43.8561 16.7324 44.1454 16.8463 44.426C16.8951 44.5463 16.9466 44.6649 17.0005 44.7819C17.1084 45.016 17.2264 45.2435 17.354 45.4644C17.4178 45.5749 17.484 45.6836 17.5525 45.7907C17.5982 45.8621 17.6449 45.9327 17.6926 46.0026C18.8142 47.6443 20.4955 48.8653 22.4726 49.5702C22.5146 49.5852 22.5569 49.6 22.5992 49.6145C23.2765 49.847 23.9875 50.0194 24.7216 50.128C24.7675 50.1348 24.8135 50.1413 24.8595 50.1477C25.182 50.1917 25.5087 50.2235 25.839 50.2427C25.9805 50.2509 26.1227 50.2568 26.2654 50.2604C26.3606 50.2628 26.4559 50.2642 26.5516 50.2645C26.695 50.2649 26.839 50.2631 26.9834 50.2588C27.0797 50.256 27.1761 50.252 27.2728 50.2471C28.481 50.1851 29.7173 49.9569 30.9421 49.5484C31.0326 49.5182 31.1225 49.4871 31.2119 49.4553C31.2379 49.446 31.2635 49.4363 31.2894 49.4269C31.3531 49.4038 31.4166 49.3806 31.4796 49.3568C31.5076 49.3461 31.5353 49.3351 31.5632 49.3243C31.6242 49.3007 31.6853 49.277 31.7457 49.2526C31.7717 49.2422 31.7974 49.2314 31.8233 49.2208C31.886 49.1951 31.9486 49.1692 32.0107 49.1427C32.0327 49.1333 32.0547 49.1236 32.0767 49.1141C32.1432 49.0853 32.2094 49.0562 32.2751 49.0265C32.2919 49.0189 32.3086 49.0112 32.3253 49.0036C32.3974 48.9707 32.4691 48.9373 32.5404 48.9033C32.5501 48.8986 32.5598 48.8939 32.5695 48.8893C32.6497 48.8508 32.7293 48.8116 32.8083 48.7718C32.8087 48.7716 32.8092 48.7713 32.8096 48.7711C33.4773 48.4342 34.1028 48.0505 34.6807 47.6274C34.6797 47.6269 34.6787 47.6263 34.6777 47.6258C35.0189 47.3754 35.3435 47.1109 35.6513 46.8344C36.7069 47.2667 39.2702 47.8809 41.5686 45.0264Z" fill="url(#paint51_linear_111_5804)"/>
<path d="M39.7779 36.7255C41.1956 41.7068 37.7094 47.2916 31.7381 49.2838C25.4675 51.3759 18.893 48.7381 17.344 43.2951C15.7951 37.8522 19.9722 32.0658 26.3771 30.4459C32.4764 28.9033 38.3603 31.7441 39.7779 36.7255Z" fill="url(#paint52_linear_111_5804)"/>
<path d="M39.7779 36.7255C41.1956 41.7068 37.7094 47.2916 31.7381 49.2838C25.4675 51.3759 18.893 48.7381 17.344 43.2951C15.7951 37.8522 19.9722 32.0658 26.3771 30.4459C32.4764 28.9033 38.3603 31.7441 39.7779 36.7255Z" fill="url(#paint53_linear_111_5804)"/>
<path d="M35.9521 46.3343C35.9521 46.3343 39.3815 48.4722 42.3646 44.7673C42.3646 44.7673 38.8483 43.7641 37.9751 41.2035L35.9521 46.3343Z" fill="url(#paint54_linear_111_5804)"/>
<g opacity="0.3">
<path d="M33.7236 46.0218C31.6178 43.6813 32.2228 40.6929 29.9163 39.4406C27.5389 38.1497 25.5709 40.5693 22.444 39.8321C21.2174 39.5429 19.7064 38.7426 18.1476 36.6435C17.052 38.7164 16.7044 41.0469 17.3442 43.2952C18.8932 48.7381 25.4678 51.3757 31.7384 49.2833C33.1321 48.8182 34.3883 48.1592 35.4772 47.3618C34.7194 46.9733 34.1548 46.501 33.7236 46.0218Z" fill="url(#paint55_linear_111_5804)"/>
</g>
<path d="M24.1191 43.7603C24.0086 43.7899 23.8864 43.752 23.8134 43.6551C23.3263 43.0083 22.9722 42.2802 22.7609 41.4912C21.8601 38.1275 23.8634 34.6562 27.2264 33.753C29.1539 33.2353 31.2373 33.6694 32.7996 34.9142C32.9243 35.0136 32.9449 35.1954 32.8454 35.3203C32.746 35.4451 32.5642 35.4658 32.4395 35.3664C31.0199 34.2354 29.127 33.8409 27.3759 34.3112C24.3206 35.1318 22.5007 38.2855 23.319 41.3413C23.511 42.0584 23.8327 42.7198 24.275 43.3072C24.371 43.4346 24.3454 43.6158 24.2179 43.7119C24.1874 43.7349 24.1538 43.7509 24.1191 43.7603Z" fill="white"/>
<path d="M31.829 35.7053C31.6777 35.7459 31.5226 35.6641 31.4786 35.5129C31.434 35.3596 31.5228 35.2021 31.676 35.1574L32.3701 34.9565L32.2998 34.2159C32.2847 34.057 32.4016 33.9163 32.5601 33.901C32.7189 33.8858 32.86 34.0024 32.8751 34.1614L32.9682 35.1408C32.9814 35.2789 32.8929 35.4012 32.7598 35.4401L31.8351 35.7037C31.8331 35.7042 31.8311 35.7047 31.829 35.7053Z" fill="white"/>
<path d="M30.4939 45.9554C28.6084 46.4618 26.6305 46.0798 25.0674 44.9076C24.9397 44.8119 24.9139 44.6308 25.0097 44.503C25.1054 44.3753 25.2865 44.3494 25.4141 44.4451C26.8344 45.5102 28.6315 45.8572 30.3444 45.3972C33.3997 44.5768 35.2196 41.4231 34.4012 38.3673C34.2332 37.7402 33.9647 37.1529 33.6028 36.6216C33.513 36.4898 33.5471 36.31 33.679 36.22C33.8109 36.1302 33.9906 36.1642 34.0804 36.296C34.4788 36.881 34.7745 37.5274 34.9593 38.2174C35.8601 41.5811 33.8569 45.0523 30.4939 45.9554Z" fill="white"/>
<path d="M25.1835 45.7639C25.1651 45.7689 25.1461 45.7721 25.1264 45.7733C24.9672 45.7833 24.83 45.6624 24.8201 45.5031L24.7594 44.5404C24.7508 44.403 24.8396 44.2758 24.9722 44.2402C24.9733 44.2399 24.9742 44.2397 24.9753 44.2394L25.9288 43.9976C26.0834 43.9579 26.2412 44.0524 26.2808 44.2071C26.3203 44.3617 26.2263 44.5215 26.0727 44.5596L25.3516 44.7451L25.3967 45.4665C25.4054 45.6061 25.3136 45.729 25.1835 45.7639Z" fill="white"/>
<path d="M29.0817 42.9556C28.9937 42.9792 28.8986 42.9794 28.806 42.952L26.6343 42.3092C26.3652 42.2296 26.2116 41.9466 26.2914 41.6772C26.3714 41.408 26.6544 41.2544 26.9234 41.3338L28.6791 41.8535L31.0087 36.9826C31.13 36.7294 31.4334 36.6218 31.6868 36.743C31.9401 36.8641 32.0471 37.1678 31.9259 37.4212L29.409 42.6836C29.3429 42.8218 29.2212 42.9181 29.0817 42.9556Z" fill="white"/>
<defs>
<linearGradient id="paint0_linear_111_5804" x1="878.015" y1="559.55" x2="775.22" y2="496.69" gradientUnits="userSpaceOnUse">
<stop offset="0.0036" stop-color="#F36F56"/>
<stop offset="1" stop-color="#FFC444"/>
</linearGradient>
<linearGradient id="paint1_linear_111_5804" x1="10.2971" y1="63.3725" x2="57.5897" y2="50.7116" gradientUnits="userSpaceOnUse">
<stop offset="0.0036" stop-color="#E38DDD"/>
<stop offset="1" stop-color="#9571F6"/>
</linearGradient>
<linearGradient id="paint2_linear_111_5804" x1="31.1361" y1="35.9677" x2="94.4958" y2="103.154" gradientUnits="userSpaceOnUse">
<stop stop-color="#444B8C"/>
<stop offset="0.9964" stop-color="#26264F"/>
</linearGradient>
<linearGradient id="paint3_linear_111_5804" x1="47.483" y1="45.4688" x2="77.9312" y2="37.316" gradientUnits="userSpaceOnUse">
<stop stop-color="#40447E"/>
<stop offset="0.9964" stop-color="#3C3B6B"/>
</linearGradient>
<linearGradient id="paint4_linear_111_5804" x1="89.4848" y1="63.0856" x2="104.594" y2="36.0413" gradientUnits="userSpaceOnUse">
<stop stop-color="#444B8C"/>
<stop offset="0.9964" stop-color="#26264F"/>
</linearGradient>
<linearGradient id="paint5_linear_111_5804" x1="42.4782" y1="65.4611" x2="17.5166" y2="41.8509" gradientUnits="userSpaceOnUse">
<stop stop-color="#444B8C"/>
<stop offset="0.9964" stop-color="#26264F"/>
</linearGradient>
<linearGradient id="paint6_linear_111_5804" x1="43.3998" y1="70.2359" x2="63.399" y2="64.8808" gradientUnits="userSpaceOnUse">
<stop stop-color="#444B8C"/>
<stop offset="0.9964" stop-color="#26264F"/>
</linearGradient>
<linearGradient id="paint7_linear_111_5804" x1="47.1628" y1="51.3131" x2="51.0261" y2="61.2843" gradientUnits="userSpaceOnUse">
<stop stop-color="#444B8C"/>
<stop offset="0.9964" stop-color="#26264F"/>
</linearGradient>
<linearGradient id="paint8_linear_111_5804" x1="53.6009" y1="62.8835" x2="56.3736" y2="80.6991" gradientUnits="userSpaceOnUse">
<stop stop-color="#444B8C"/>
<stop offset="0.9964" stop-color="#26264F"/>
</linearGradient>
<linearGradient id="paint9_linear_111_5804" x1="52.6693" y1="60.8879" x2="56.4834" y2="75.7712" gradientUnits="userSpaceOnUse">
<stop stop-color="#444B8C"/>
<stop offset="0.9964" stop-color="#26264F"/>
</linearGradient>
<linearGradient id="paint10_linear_111_5804" x1="73.9561" y1="60.7023" x2="92.5092" y2="55.7345" gradientUnits="userSpaceOnUse">
<stop stop-color="#444B8C"/>
<stop offset="0.9964" stop-color="#26264F"/>
</linearGradient>
<linearGradient id="paint11_linear_111_5804" x1="76.2494" y1="40.0545" x2="80.1128" y2="50.0257" gradientUnits="userSpaceOnUse">
<stop stop-color="#444B8C"/>
<stop offset="0.9964" stop-color="#26264F"/>
</linearGradient>
<linearGradient id="paint12_linear_111_5804" x1="83.7892" y1="53.4519" x2="86.5619" y2="71.2675" gradientUnits="userSpaceOnUse">
<stop stop-color="#444B8C"/>
<stop offset="0.9964" stop-color="#26264F"/>
</linearGradient>
<linearGradient id="paint13_linear_111_5804" x1="82.8575" y1="51.4563" x2="86.6716" y2="66.3396" gradientUnits="userSpaceOnUse">
<stop stop-color="#444B8C"/>
<stop offset="0.9964" stop-color="#26264F"/>
</linearGradient>
<linearGradient id="paint14_linear_111_5804" x1="38.2882" y1="36.2332" x2="45.0382" y2="46.2345" gradientUnits="userSpaceOnUse">
<stop stop-color="#AA80F9"/>
<stop offset="0.9964" stop-color="#6165D7"/>
</linearGradient>
<linearGradient id="paint15_linear_111_5804" x1="68.7636" y1="15.674" x2="75.5136" y2="25.6753" gradientUnits="userSpaceOnUse">
<stop stop-color="#AA80F9"/>
<stop offset="0.9964" stop-color="#6165D7"/>
</linearGradient>
<linearGradient id="paint16_linear_111_5804" x1="46.8493" y1="58.754" x2="43.0253" y2="56.6476" gradientUnits="userSpaceOnUse">
<stop stop-color="#AA80F9"/>
<stop offset="0.9964" stop-color="#6165D7"/>
</linearGradient>
<linearGradient id="paint17_linear_111_5804" x1="42.6749" y1="66.3368" x2="38.8509" y2="64.2303" gradientUnits="userSpaceOnUse">
<stop stop-color="#AA80F9"/>
<stop offset="0.9964" stop-color="#6165D7"/>
</linearGradient>
<linearGradient id="paint18_linear_111_5804" x1="42.6654" y1="66.3475" x2="38.8418" y2="64.2409" gradientUnits="userSpaceOnUse">
<stop stop-color="#AA80F9"/>
<stop offset="0.9964" stop-color="#6165D7"/>
</linearGradient>
<linearGradient id="paint19_linear_111_5804" x1="46.8296" y1="58.7911" x2="43.0061" y2="56.6845" gradientUnits="userSpaceOnUse">
<stop stop-color="#AA80F9"/>
<stop offset="0.9964" stop-color="#6165D7"/>
</linearGradient>
<linearGradient id="paint20_linear_111_5804" x1="33.6531" y1="52.2519" x2="43.697" y2="64.1185" gradientUnits="userSpaceOnUse">
<stop stop-color="#AA80F9"/>
<stop offset="0.9964" stop-color="#6165D7"/>
</linearGradient>
<linearGradient id="paint21_linear_111_5804" x1="29.5495" y1="55.7291" x2="39.5934" y2="67.5956" gradientUnits="userSpaceOnUse">
<stop stop-color="#AA80F9"/>
<stop offset="0.9964" stop-color="#6165D7"/>
</linearGradient>
<linearGradient id="paint22_linear_111_5804" x1="27.5531" y1="57.4151" x2="37.5946" y2="69.2807" gradientUnits="userSpaceOnUse">
<stop stop-color="#AA80F9"/>
<stop offset="0.9964" stop-color="#6165D7"/>
</linearGradient>
<linearGradient id="paint23_linear_111_5804" x1="35.5932" y1="50.6142" x2="45.6348" y2="62.4799" gradientUnits="userSpaceOnUse">
<stop stop-color="#AA80F9"/>
<stop offset="0.9964" stop-color="#6165D7"/>
</linearGradient>
<linearGradient id="paint24_linear_111_5804" x1="103.624" y1="46.9726" x2="77.0496" y2="21.7656" gradientUnits="userSpaceOnUse">
<stop stop-color="#444B8C"/>
<stop offset="0.9964" stop-color="#26264F"/>
</linearGradient>
<linearGradient id="paint25_linear_111_5804" x1="111.278" y1="41.5816" x2="106.021" y2="38.5478" gradientUnits="userSpaceOnUse">
<stop stop-color="#AA80F9"/>
<stop offset="0.9964" stop-color="#6165D7"/>
</linearGradient>
<linearGradient id="paint26_linear_111_5804" x1="105.973" y1="50.7837" x2="100.716" y2="47.7498" gradientUnits="userSpaceOnUse">
<stop stop-color="#AA80F9"/>
<stop offset="0.9964" stop-color="#6165D7"/>
</linearGradient>
<linearGradient id="paint27_linear_111_5804" x1="106.051" y1="50.6425" x2="100.793" y2="47.6087" gradientUnits="userSpaceOnUse">
<stop stop-color="#AA80F9"/>
<stop offset="0.9964" stop-color="#6165D7"/>
</linearGradient>
<linearGradient id="paint28_linear_111_5804" x1="111.16" y1="41.7932" x2="105.902" y2="38.7594" gradientUnits="userSpaceOnUse">
<stop stop-color="#AA80F9"/>
<stop offset="0.9964" stop-color="#6165D7"/>
</linearGradient>
<linearGradient id="paint29_linear_111_5804" x1="94.9229" y1="33.9477" x2="109.257" y2="57.5315" gradientUnits="userSpaceOnUse">
<stop stop-color="#AA80F9"/>
<stop offset="0.9964" stop-color="#6165D7"/>
</linearGradient>
<linearGradient id="paint30_linear_111_5804" x1="91.3324" y1="36.1366" x2="105.667" y2="59.7205" gradientUnits="userSpaceOnUse">
<stop stop-color="#AA80F9"/>
<stop offset="0.9964" stop-color="#6165D7"/>
</linearGradient>
<linearGradient id="paint31_linear_111_5804" x1="87.2307" y1="38.6238" x2="101.565" y2="62.2076" gradientUnits="userSpaceOnUse">
<stop stop-color="#AA80F9"/>
<stop offset="0.9964" stop-color="#6165D7"/>
</linearGradient>
<linearGradient id="paint32_linear_111_5804" x1="98.9311" y1="31.5173" x2="113.265" y2="55.1013" gradientUnits="userSpaceOnUse">
<stop stop-color="#AA80F9"/>
<stop offset="0.9964" stop-color="#6165D7"/>
</linearGradient>
<linearGradient id="paint33_linear_111_5804" x1="7.22578" y1="58.4986" x2="70.6051" y2="125.698" gradientUnits="userSpaceOnUse">
<stop stop-color="#444B8C"/>
<stop offset="0.9964" stop-color="#26264F"/>
</linearGradient>
<linearGradient id="paint34_linear_111_5804" x1="47.7802" y1="46.5782" x2="78.2284" y2="38.4253" gradientUnits="userSpaceOnUse">
<stop stop-color="#AA80F9"/>
<stop offset="0.9964" stop-color="#6165D7"/>
</linearGradient>
<linearGradient id="paint35_linear_111_5804" x1="78.9563" y1="14.9307" x2="95.2105" y2="33.2955" gradientUnits="userSpaceOnUse">
<stop stop-color="#FFC444"/>
<stop offset="0.9964" stop-color="#F36F56"/>
</linearGradient>
<linearGradient id="paint36_linear_111_5804" x1="88.8996" y1="27.1938" x2="104.268" y2="43.4713" gradientUnits="userSpaceOnUse">
<stop stop-color="#FFC444"/>
<stop offset="0.9964" stop-color="#F36F56"/>
</linearGradient>
<linearGradient id="paint37_linear_111_5804" x1="86.4204" y1="29.2159" x2="101.758" y2="46.5437" gradientUnits="userSpaceOnUse">
<stop stop-color="#FFC444"/>
<stop offset="0.9964" stop-color="#F36F56"/>
</linearGradient>
<linearGradient id="paint38_linear_111_5804" x1="78.5564" y1="-6.94726" x2="71.3137" y2="53.952" gradientUnits="userSpaceOnUse">
<stop stop-color="#311944"/>
<stop offset="1" stop-color="#893976"/>
</linearGradient>
<linearGradient id="paint39_linear_111_5804" x1="70.4438" y1="18.0533" x2="85.5948" y2="34.1002" gradientUnits="userSpaceOnUse">
<stop stop-color="#FF9085"/>
<stop offset="1" stop-color="#FB6FBB"/>
</linearGradient>
<linearGradient id="paint40_linear_111_5804" x1="70.4438" y1="18.0533" x2="85.5948" y2="34.1002" gradientUnits="userSpaceOnUse">
<stop stop-color="#FF9085"/>
<stop offset="1" stop-color="#FB6FBB"/>
</linearGradient>
<linearGradient id="paint41_linear_111_5804" x1="78.9005" y1="16.9328" x2="74.3225" y2="39.5057" gradientUnits="userSpaceOnUse">
<stop stop-color="#FF9085"/>
<stop offset="1" stop-color="#FB6FBB"/>
</linearGradient>
<linearGradient id="paint42_linear_111_5804" x1="83.7668" y1="9.92162" x2="94.0791" y2="9.61513" gradientUnits="userSpaceOnUse">
<stop stop-color="#311944"/>
<stop offset="1" stop-color="#893976"/>
</linearGradient>
<linearGradient id="paint43_linear_111_5804" x1="91.1449" y1="5.11755" x2="86.9664" y2="22.7766" gradientUnits="userSpaceOnUse">
<stop offset="0.0036" stop-color="#E38DDD"/>
<stop offset="1" stop-color="#9571F6"/>
</linearGradient>
<linearGradient id="paint44_linear_111_5804" x1="93.8548" y1="5.48328" x2="90.0937" y2="24.0281" gradientUnits="userSpaceOnUse">
<stop stop-color="#FF9085"/>
<stop offset="1" stop-color="#FB6FBB"/>
</linearGradient>
<linearGradient id="paint45_linear_111_5804" x1="87.6323" y1="48.4061" x2="78.5583" y2="65.1326" gradientUnits="userSpaceOnUse">
<stop stop-color="#AA80F9"/>
<stop offset="0.9964" stop-color="#6165D7"/>
</linearGradient>
<linearGradient id="paint46_linear_111_5804" x1="79.8748" y1="52.053" x2="76.176" y2="58.8696" gradientUnits="userSpaceOnUse">
<stop stop-color="#AA80F9"/>
<stop offset="0.9964" stop-color="#6165D7"/>
</linearGradient>
<linearGradient id="paint47_linear_111_5804" x1="81.2571" y1="51.2533" x2="89.1359" y2="55.6047" gradientUnits="userSpaceOnUse">
<stop stop-color="#AA80F9"/>
<stop offset="0.9964" stop-color="#6165D7"/>
</linearGradient>
<linearGradient id="paint48_linear_111_5804" x1="81.1419" y1="51.9594" x2="88.6923" y2="56.1294" gradientUnits="userSpaceOnUse">
<stop stop-color="#AA80F9"/>
<stop offset="0.9964" stop-color="#6165D7"/>
</linearGradient>
<linearGradient id="paint49_linear_111_5804" x1="81.0149" y1="52.6138" x2="88.2614" y2="56.616" gradientUnits="userSpaceOnUse">
<stop stop-color="#AA80F9"/>
<stop offset="0.9964" stop-color="#6165D7"/>
</linearGradient>
<linearGradient id="paint50_linear_111_5804" x1="80.8781" y1="53.2215" x2="87.8425" y2="57.0679" gradientUnits="userSpaceOnUse">
<stop stop-color="#AA80F9"/>
<stop offset="0.9964" stop-color="#6165D7"/>
</linearGradient>
<linearGradient id="paint51_linear_111_5804" x1="33.8017" y1="-4.46615" x2="24.1848" y2="88.7862" gradientUnits="userSpaceOnUse">
<stop stop-color="#311944"/>
<stop offset="1" stop-color="#893976"/>
</linearGradient>
<linearGradient id="paint52_linear_111_5804" x1="22.1972" y1="33.4844" x2="45.6973" y2="57.6092" gradientUnits="userSpaceOnUse">
<stop stop-color="#FF9085"/>
<stop offset="1" stop-color="#FB6FBB"/>
</linearGradient>
<linearGradient id="paint53_linear_111_5804" x1="7.8306" y1="18.7233" x2="31.3308" y2="42.8482" gradientUnits="userSpaceOnUse">
<stop stop-color="#FF9085"/>
<stop offset="1" stop-color="#FB6FBB"/>
</linearGradient>
<linearGradient id="paint54_linear_111_5804" x1="23.4476" y1="33.6357" x2="48.6795" y2="52.5427" gradientUnits="userSpaceOnUse">
<stop stop-color="#FF9085"/>
<stop offset="1" stop-color="#FB6FBB"/>
</linearGradient>
<linearGradient id="paint55_linear_111_5804" x1="18.4902" y1="36.2568" x2="42.3575" y2="62.3887" gradientUnits="userSpaceOnUse">
<stop stop-color="#FF9085"/>
<stop offset="1" stop-color="#FB6FBB"/>
</linearGradient>
</defs>
</svg>
