<svg width="108" height="109" viewBox="0 0 108 109" fill="none" xmlns="http://www.w3.org/2000/svg">
<path d="M97.515 20.6491C95.8683 18.3863 81.7713 -0.325695 58.9207 0.585763C57.7788 0.631297 35.4933 1.81286 27.2734 16.4808C21.193 27.3311 27.6304 36.958 20.2127 44.3506C13.7493 50.792 5.80607 46.5284 1.83418 51.7372C-4.21607 59.6717 5.41904 81.1009 20.2229 93.0517C35.5088 105.392 64.7524 114.445 87.4818 97.9809C113 79.4966 112.741 41.5724 97.515 20.6491Z" fill="#F4F7FA"/>
<path d="M22.7152 97.1098C22.7152 98.7756 21.6903 100.126 20.426 100.126C19.1619 100.126 18.137 98.7756 18.137 97.1098C18.137 95.4442 19.1618 94.0938 20.426 94.0938C21.6903 94.0938 22.7152 95.4442 22.7152 97.1098Z" fill="url(#paint0_linear_111_6596)"/>
<path d="M23.3528 97.4502C23.3528 99.116 22.328 100.466 21.0637 100.466C19.7995 100.466 18.7747 99.1159 18.7747 97.4502C18.7747 95.7846 19.7995 94.4342 21.0637 94.4342C22.328 94.4342 23.3528 95.7846 23.3528 97.4502Z" fill="url(#paint1_linear_111_6596)"/>
<path d="M22.0227 97.5109C22.0227 98.2089 21.5932 98.7747 21.0635 98.7747C20.5338 98.7747 20.1043 98.2089 20.1043 97.5109C20.1043 96.813 20.5338 96.2472 21.0635 96.2472C21.5932 96.2472 22.0227 96.813 22.0227 97.5109Z" fill="url(#paint2_linear_111_6596)"/>
<path d="M20.4261 93.7689V97.0806C20.4261 97.5669 20.8196 97.9611 21.3051 97.9611C21.5857 97.9611 21.8496 97.8269 22.015 97.5999L24.9888 93.5214L20.4261 93.7689Z" fill="#DADFE5"/>
<path d="M47.2225 94.465C47.2225 96.1307 46.1977 97.481 44.9335 97.481C43.6693 97.481 42.6444 96.1307 42.6444 94.465C42.6444 92.7994 43.6693 91.449 44.9335 91.449C46.1977 91.449 47.2225 92.7993 47.2225 94.465Z" fill="url(#paint3_linear_111_6596)"/>
<path d="M47.8602 94.8051C47.8602 96.4708 46.8353 97.8211 45.5712 97.8211C44.3069 97.8211 43.2821 96.4708 43.2821 94.8051C43.2821 93.1394 44.3069 91.7891 45.5712 91.7891C46.8354 91.7891 47.8602 93.1394 47.8602 94.8051Z" fill="url(#paint4_linear_111_6596)"/>
<path d="M46.5302 94.8661C46.5302 95.5641 46.1008 96.1299 45.571 96.1299C45.0413 96.1299 44.6119 95.5641 44.6119 94.8661C44.6119 94.1681 45.0413 93.6023 45.571 93.6023C46.1008 93.6024 46.5302 94.1681 46.5302 94.8661Z" fill="url(#paint5_linear_111_6596)"/>
<path d="M44.9334 91.124V94.4358C44.9334 94.922 45.3269 95.3162 45.8124 95.3162C46.0931 95.3162 46.3568 95.182 46.5223 94.9551L49.4961 90.8765L44.9334 91.124Z" fill="#DADFE5"/>
<path d="M20.0844 94.2836C19.7831 94.2836 19.5233 94.0567 19.4888 93.7496C19.4515 93.4196 19.6887 93.1222 20.0181 93.0849L49.0407 89.8093C50.6202 89.5371 51.9374 88.3347 52.3624 86.7509L64.5198 41.4157C65.1672 39.0016 67.2749 37.2646 69.7643 37.0928L78.5922 36.5656C78.924 36.5427 79.2075 36.7984 79.2271 37.1298C79.247 37.4612 78.9947 37.746 78.6638 37.7657L69.8414 38.2926C67.8685 38.4288 66.1937 39.8092 65.6793 41.7275L53.5219 87.0626C52.9759 89.0982 51.2829 90.6433 49.2092 90.9995L20.1524 94.2799C20.1295 94.2825 20.1069 94.2836 20.0844 94.2836Z" fill="#DADFE5"/>
<path d="M40.2759 76.4371C40.0148 76.4371 39.7744 76.2648 39.6991 76.0008L32.8648 52.0483C32.7736 51.7288 32.9583 51.3962 33.2769 51.3049C33.5952 51.214 33.9279 51.3989 34.019 51.7177L40.8533 75.6703C40.9445 75.9897 40.7598 76.3223 40.4412 76.4136C40.3861 76.4294 40.3305 76.4371 40.2759 76.4371Z" fill="#DADFE5"/>
<path d="M47.2676 75.4354C46.9821 75.4354 46.7289 75.2308 46.6773 74.9396L42.4619 51.2128C42.4039 50.8857 42.6213 50.5737 42.9476 50.5155C43.277 50.4559 43.586 50.6752 43.6437 51.002L47.8591 74.7288C47.9172 75.0558 47.6997 75.3679 47.3735 75.426C47.3377 75.4325 47.3025 75.4354 47.2676 75.4354Z" fill="#DADFE5"/>
<path d="M51.6116 74.6579C51.6034 74.6579 51.5949 74.6575 51.5864 74.6573C51.2552 74.6435 50.9978 74.3634 51.0116 74.0317L51.9845 50.5559C51.998 50.2241 52.2632 49.9608 52.6091 49.9802C52.9403 49.994 53.1976 50.2741 53.1839 50.6058L52.2111 74.0816C52.1978 74.4048 51.9317 74.6579 51.6116 74.6579Z" fill="#DADFE5"/>
<path d="M30.7395 77.3136C30.4886 77.3136 30.2547 77.1548 30.1703 76.9032L22.1459 52.9401C22.0407 52.6254 22.2099 52.2845 22.5243 52.1788C22.8385 52.074 23.1788 52.2428 23.2843 52.5578L31.3087 76.521C31.4139 76.8357 31.2448 77.1765 30.9303 77.2822C30.867 77.3033 30.8028 77.3136 30.7395 77.3136Z" fill="#DADFE5"/>
<path d="M99.244 39.8535C99.211 39.8535 99.1778 39.8523 99.1441 39.8493L79.393 38.223C78.7323 38.1687 78.2405 37.588 78.2951 36.926C78.3493 36.264 78.9296 35.7708 79.59 35.8262L99.3411 37.4526C100.002 37.5069 100.494 38.0876 100.439 38.7496C100.387 39.3779 99.8625 39.8535 99.244 39.8535Z" fill="url(#paint6_linear_111_6596)"/>
<path d="M44.2168 105.335C44.2168 107.001 43.1919 108.351 41.9278 108.351C40.6634 108.351 39.6387 107.001 39.6387 105.335C39.6387 103.67 40.6635 102.319 41.9278 102.319C43.192 102.319 44.2168 103.67 44.2168 105.335Z" fill="url(#paint7_linear_111_6596)"/>
<path d="M44.8543 105.676C44.8543 107.341 43.8295 108.692 42.5653 108.692C41.3011 108.692 40.2762 107.341 40.2762 105.676C40.2762 104.01 41.3011 102.66 42.5653 102.66C43.8295 102.66 44.8543 104.01 44.8543 105.676Z" fill="url(#paint8_linear_111_6596)"/>
<path d="M43.5242 105.736C43.5242 106.434 43.0949 107 42.5651 107C42.0354 107 41.6059 106.434 41.6059 105.736C41.6059 105.038 42.0354 104.473 42.5651 104.473C43.0949 104.473 43.5242 105.038 43.5242 105.736Z" fill="url(#paint9_linear_111_6596)"/>
<path d="M41.9275 101.994V105.306C41.9275 105.792 42.3211 106.187 42.8065 106.187C43.0872 106.187 43.3509 106.052 43.5164 105.825L46.4901 101.747L41.9275 101.994Z" fill="#C1CAD4"/>
<path d="M65.4348 103.208C65.4348 104.873 64.41 106.224 63.1458 106.224C61.8815 106.224 60.8567 104.873 60.8567 103.208C60.8567 101.542 61.8815 100.192 63.1458 100.192C64.41 100.192 65.4348 101.542 65.4348 103.208Z" fill="url(#paint10_linear_111_6596)"/>
<path d="M66.0725 103.548C66.0725 105.214 65.0476 106.564 63.7835 106.564C62.5193 106.564 61.4944 105.214 61.4944 103.548C61.4944 101.883 62.5193 100.532 63.7835 100.532C65.0477 100.532 66.0725 101.883 66.0725 103.548Z" fill="url(#paint11_linear_111_6596)"/>
<path d="M64.7422 103.609C64.7422 104.307 64.3128 104.873 63.7831 104.873C63.2534 104.873 62.8239 104.307 62.8239 103.609C62.8239 102.911 63.2534 102.345 63.7831 102.345C64.3128 102.345 64.7422 102.911 64.7422 103.609Z" fill="url(#paint12_linear_111_6596)"/>
<path d="M63.1458 99.867V103.179C63.1458 103.665 63.5393 104.059 64.0248 104.059C64.3055 104.059 64.5692 103.925 64.7347 103.698L67.7085 99.6194L63.1458 99.867Z" fill="#C1CAD4"/>
<path d="M11.055 53.8994C10.7431 53.8994 10.4796 53.6578 10.4567 53.3413C10.433 53.0101 10.6818 52.7222 11.0125 52.6984L62.7016 48.9718C62.75 48.9694 62.798 48.9706 62.8455 48.9788L84.2441 52.6294C84.5709 52.6852 84.7908 52.9957 84.7351 53.3231C84.6794 53.6501 84.3734 53.8706 84.0425 53.8148L62.7153 50.1763L11.0986 53.8979C11.0839 53.8988 11.0693 53.8994 11.055 53.8994Z" fill="#DADFE5"/>
<path d="M28.6186 59.2402C28.5597 59.2402 28.5008 59.2314 28.4442 59.2144L10.8811 53.8734C10.564 53.7768 10.3849 53.441 10.481 53.1233C10.5778 52.8057 10.9145 52.6272 11.2299 52.7226L28.679 58.0289L84.0849 52.6236C84.4203 52.5875 84.7087 52.8333 84.7406 53.1635C84.7729 53.4941 84.5313 53.7882 84.2016 53.8203L28.6769 59.2373C28.6573 59.2393 28.6379 59.2402 28.6186 59.2402Z" fill="#C1CAD4"/>
<path d="M77.4576 78.137C77.4272 78.137 77.3967 78.1346 77.3656 78.13L56.309 74.8942L24.2736 77.9826C23.9439 78.0137 23.6502 77.7718 23.6186 77.4415C23.5869 77.111 23.8287 76.8174 24.1588 76.7854L56.2686 73.69C56.3175 73.6853 56.3682 73.6864 56.4172 73.6944L77.5479 76.9416C77.8756 76.9918 78.1004 77.2989 78.05 77.6271C78.0045 77.9242 77.7487 78.137 77.4576 78.137Z" fill="#DADFE5"/>
<path d="M33.9525 72.1742V76.0035C33.9525 77.2409 41.6867 78.244 51.2274 78.244C60.768 78.244 68.5022 77.241 68.5022 76.0035V72.1742H33.9525Z" fill="url(#paint13_linear_111_6596)"/>
<path d="M68.5023 72.1742C68.5023 73.4116 60.7681 74.4147 51.2275 74.4147C41.6869 74.4147 33.9526 73.4116 33.9526 72.1742C33.9526 70.9369 41.6869 69.9338 51.2275 69.9338C60.7681 69.9338 68.5023 70.9369 68.5023 72.1742Z" fill="url(#paint14_linear_111_6596)"/>
<path d="M51.2277 74.5695C42.7782 74.5695 33.9428 73.7629 33.9428 72.2072C33.9428 72.1218 33.9733 71.9716 34.0588 71.9716C34.1443 71.9716 34.1075 72.0891 34.1075 72.1745C34.1075 73.1611 41.1386 74.2603 51.2277 74.2603C61.3168 74.2603 68.3478 73.1611 68.3478 72.1745C68.3478 72.0891 68.3624 72.009 68.4479 72.009C68.5334 72.009 68.5128 72.123 68.5128 72.2085C68.5128 73.7641 59.6771 74.5695 51.2277 74.5695Z" fill="url(#paint15_linear_111_6596)"/>
<path d="M49.5952 72.299C49.7648 72.1817 49.9451 72.0661 50.1381 71.9519C50.3294 71.8379 50.5785 71.7348 50.8803 71.6428C51.1838 71.5507 51.5633 71.4758 52.019 71.4177C52.4747 71.3596 53.0445 71.329 53.7248 71.3257C54.3924 71.3224 55.0186 71.3436 55.605 71.3893C56.1896 71.4348 56.7056 71.5031 57.1511 71.5939C57.5949 71.6847 57.9572 71.797 58.2366 71.9304C58.5141 72.0642 58.6794 72.2174 58.7328 72.39L60.6779 72.4097C60.819 72.4106 60.9439 72.422 61.0508 72.4442C61.1595 72.4664 61.2121 72.4943 61.2122 72.5283L61.213 72.6884L58.7124 72.6643C58.6247 72.8604 58.4012 73.0397 58.0419 73.2023C57.6845 73.3651 57.2274 73.5059 56.6707 73.6251L55.76 73.4985C55.6785 73.4861 55.6115 73.4702 55.5589 73.4509C55.5064 73.4318 55.4809 73.4111 55.4808 73.3884C55.4807 73.3576 55.551 73.3225 55.692 73.2831C55.8329 73.2435 55.9919 73.1946 56.1689 73.1363C56.3459 73.0782 56.5193 73.0095 56.6908 72.93C56.8605 72.8509 56.974 72.7562 57.0332 72.6459L51.1309 72.5875C50.9758 72.7015 50.8009 72.8135 50.6096 72.9236C50.4166 73.0336 50.1619 73.1328 49.844 73.2208C49.5259 73.3088 49.1301 73.3803 48.6563 73.4353C48.1807 73.4901 47.5855 73.5193 46.8655 73.5228C46.3245 73.5255 45.7979 73.505 45.282 73.4615C44.7661 73.4178 44.308 73.3526 43.9078 73.2657C43.5075 73.1787 43.1795 73.0711 42.9219 72.9431C42.6662 72.8149 42.5225 72.6677 42.4927 72.5013L40.8914 72.4849C40.7502 72.484 40.6254 72.4729 40.513 72.4516C40.4026 72.4302 40.3464 72.4019 40.3462 72.3664L40.3454 72.2063L42.5347 72.2271C42.6316 72.0585 42.8299 71.9114 43.1333 71.7864C43.4366 71.6612 43.807 71.5498 44.2444 71.4523L44.9776 71.553C45.2004 71.5842 45.3109 71.6208 45.3111 71.6628C45.3112 71.6855 45.2661 71.7136 45.174 71.7472C45.0801 71.7808 44.9717 71.821 44.8453 71.8676C44.7207 71.9144 44.5979 71.9691 44.4806 72.032C44.3615 72.0948 44.2732 72.1659 44.2139 72.2455L49.5952 72.299ZM44.1937 72.5171C44.2377 72.6221 44.3358 72.7125 44.4845 72.7885C44.6332 72.8647 44.8181 72.9272 45.0409 72.9762C45.2637 73.0253 45.5136 73.0611 45.7905 73.084C46.0693 73.1069 46.3606 73.1178 46.6646 73.1162C47.0192 73.1145 47.3285 73.0992 47.5925 73.0704C47.8547 73.0415 48.0861 73.0025 48.2867 72.953C48.4855 72.9035 48.6607 72.8462 48.8088 72.7807C48.9568 72.7152 49.0885 72.6443 49.2075 72.5677L44.1937 72.5171ZM57.0428 72.374C56.9989 72.2676 56.8916 72.1744 56.7248 72.0943C56.5579 72.0143 56.3441 71.947 56.0851 71.8925C55.8261 71.838 55.5238 71.7974 55.178 71.7708C54.8341 71.7443 54.4541 71.732 54.038 71.734C53.6689 71.7358 53.3487 71.7524 53.0829 71.7835C52.817 71.8149 52.5857 71.8566 52.3887 71.9095C52.1936 71.9622 52.0256 72.0236 51.8902 72.0937C51.7531 72.1639 51.625 72.2389 51.5077 72.3188L57.0428 72.374Z" fill="#FCB048"/>
<path d="M51.2299 70.1764C43.5274 70.1764 35.5073 70.8537 34.2245 72.165C34.2747 72.2113 34.3214 72.2606 34.3647 72.3125C35.446 71.4021 42.0683 70.4854 51.2299 70.4854C60.6268 70.4854 67.3553 71.4499 68.1703 72.3827C68.2103 72.3316 68.2532 72.2826 68.2995 72.2364C67.24 70.8788 59.0693 70.1764 51.2299 70.1764Z" fill="url(#paint16_linear_111_6596)"/>
<path d="M29.1501 68.1518V71.9811C29.1501 73.2185 36.8843 74.2216 46.425 74.2216C55.9656 74.2216 63.6998 73.2185 63.6998 71.9811V68.1518H29.1501Z" fill="url(#paint17_linear_111_6596)"/>
<path d="M46.4253 70.3923C55.966 70.3923 63.7002 69.3892 63.7002 68.1518C63.7002 66.9144 55.966 65.9113 46.4253 65.9113C36.8847 65.9113 29.1505 66.9144 29.1505 68.1518C29.1505 69.3892 36.8847 70.3923 46.4253 70.3923Z" fill="url(#paint18_linear_111_6596)"/>
<path d="M46.4253 70.547C37.9759 70.547 29.1404 69.7404 29.1404 68.1848C29.1404 68.0993 29.1709 67.9492 29.2564 67.9492C29.3419 67.9492 29.3051 68.0666 29.3051 68.152C29.3051 69.1387 36.3362 70.2379 46.4253 70.2379C56.5144 70.2379 63.5454 69.1387 63.5454 68.152C63.5454 68.0666 63.56 67.9866 63.6455 67.9866C63.731 67.9866 63.7104 68.1006 63.7104 68.186C63.7104 69.7417 54.8747 70.547 46.4253 70.547Z" fill="url(#paint19_linear_111_6596)"/>
<path d="M44.7929 68.2766C44.9624 68.1593 45.1428 68.0437 45.3358 67.9295C45.527 67.8154 45.7762 67.7124 46.0779 67.6203C46.3815 67.5283 46.7611 67.4533 47.2167 67.3953C47.6724 67.3372 48.2422 67.3066 48.9225 67.3032C49.5901 67.3 50.2163 67.3212 50.8027 67.3668C51.3873 67.4123 51.9033 67.4806 52.3488 67.5714C52.7926 67.6622 53.155 67.7745 53.4343 67.908C53.7118 68.0418 53.8771 68.1949 53.9304 68.3676L55.8756 68.3872C56.0167 68.3881 56.1416 68.3996 56.2485 68.4217C56.3571 68.4439 56.4097 68.4719 56.4099 68.5058L56.4107 68.6659L53.9101 68.6419C53.8224 68.8379 53.5989 69.0172 53.2396 69.1799C52.8822 69.3427 52.4251 69.4834 51.8685 69.6026L50.9577 69.476C50.8763 69.4636 50.8093 69.4477 50.7567 69.4285C50.7041 69.4094 50.6787 69.3886 50.6786 69.3659C50.6784 69.3351 50.7488 69.3 50.8898 69.2606C51.0307 69.2211 51.1897 69.1721 51.3667 69.1139C51.5437 69.0557 51.7171 68.987 51.8886 68.9076C52.0583 68.8284 52.1718 68.7337 52.231 68.6235L46.3287 68.565C46.1736 68.679 45.9987 68.791 45.8074 68.9011C45.6143 69.0112 45.3597 69.1104 45.0417 69.1984C44.7237 69.2864 44.3278 69.3578 43.8541 69.4128C43.3785 69.4676 42.7834 69.4968 42.0632 69.5003C41.5223 69.503 40.9956 69.4825 40.4798 69.439C39.9639 69.3954 39.5058 69.3301 39.1056 69.2432C38.7053 69.1562 38.3772 69.0487 38.1197 68.9206C37.864 68.7924 37.7203 68.6452 37.6906 68.4789L36.0892 68.4624C35.9481 68.4615 35.8232 68.4505 35.7109 68.4291C35.6005 68.4078 35.5442 68.3794 35.5441 68.3439L35.5432 68.1838L37.7326 68.2047C37.8295 68.0361 38.0278 67.889 38.3312 67.764C38.6346 67.6387 39.0049 67.5273 39.4423 67.4299L40.1755 67.5305C40.3982 67.5618 40.5088 67.5983 40.509 67.6404C40.5091 67.6631 40.464 67.6911 40.3719 67.7247C40.278 67.7583 40.1696 67.7985 40.0432 67.8452C39.9186 67.892 39.7958 67.9466 39.6785 68.0096C39.5594 68.0723 39.4711 68.1434 39.4118 68.2231L44.7929 68.2766ZM39.3913 68.4947C39.4353 68.5997 39.5334 68.69 39.6821 68.7661C39.8309 68.8423 40.0157 68.9048 40.2385 68.9538C40.4613 69.0028 40.7112 69.0387 40.9881 69.0616C41.2669 69.0845 41.5582 69.0953 41.8622 69.0938C42.2168 69.0921 42.5261 69.0767 42.7901 69.048C43.0523 69.0191 43.2838 68.9801 43.4844 68.9306C43.6831 68.881 43.8583 68.8237 44.0064 68.7582C44.1544 68.6928 44.2862 68.6219 44.4052 68.5453L39.3913 68.4947ZM52.2405 68.3516C52.1965 68.2452 52.0893 68.152 51.9224 68.0719C51.7556 67.992 51.5418 67.9245 51.2828 67.8701C51.0238 67.8155 50.7214 67.775 50.3757 67.7485C50.0318 67.7219 49.6518 67.7096 49.2356 67.7116C48.8665 67.7134 48.5464 67.7299 48.2806 67.7611C48.0147 67.7924 47.7833 67.8342 47.5864 67.887C47.3912 67.9397 47.2233 68.0011 47.0879 68.0713C46.9507 68.1414 46.8227 68.2165 46.7055 68.2963L52.2405 68.3516Z" fill="#FCB048"/>
<path d="M46.4277 66.1541C38.7252 66.1541 30.7051 66.8315 29.4222 68.1428C29.4725 68.189 29.5191 68.2384 29.5625 68.2904C30.6438 67.3799 37.2661 66.4632 46.4277 66.4632C55.8246 66.4632 62.553 67.4277 63.3681 68.3605C63.4081 68.3093 63.451 68.2604 63.4973 68.2142C62.4377 66.8566 54.2671 66.1541 46.4277 66.1541Z" fill="url(#paint20_linear_111_6596)"/>
<path d="M33.2939 64.1416V67.9709C33.2939 69.2083 41.0281 70.2114 50.5687 70.2114C60.1094 70.2114 67.8436 69.2083 67.8436 67.9709V64.1416H33.2939Z" fill="url(#paint21_linear_111_6596)"/>
<path d="M50.5694 66.3819C60.1101 66.3819 67.8443 65.3788 67.8443 64.1414C67.8443 62.904 60.1101 61.9009 50.5694 61.9009C41.0288 61.9009 33.2946 62.904 33.2946 64.1414C33.2946 65.3788 41.0288 66.3819 50.5694 66.3819Z" fill="url(#paint22_linear_111_6596)"/>
<path d="M50.5691 66.5363C42.1196 66.5363 33.2842 65.7298 33.2842 64.1741C33.2842 64.0886 33.3147 63.9385 33.4002 63.9385C33.4857 63.9385 33.4489 64.0559 33.4489 64.1414C33.4489 65.128 40.4799 66.2272 50.5691 66.2272C60.6582 66.2272 67.6892 65.128 67.6892 64.1414C67.6892 64.0559 67.7038 63.9759 67.7893 63.9759C67.8748 63.9759 67.8542 64.0899 67.8542 64.1753C67.8541 65.731 59.0185 66.5363 50.5691 66.5363Z" fill="url(#paint23_linear_111_6596)"/>
<path d="M48.9365 64.2664C49.106 64.1491 49.2864 64.0335 49.4794 63.9193C49.6707 63.8053 49.9198 63.7022 50.2216 63.6101C50.5251 63.5181 50.9047 63.4432 51.3604 63.3851C51.816 63.327 52.3858 63.2964 53.0661 63.2931C53.7337 63.2898 54.3598 63.311 54.9463 63.3567C55.5309 63.4021 56.0469 63.4705 56.4924 63.5613C56.9362 63.652 57.2986 63.7644 57.5779 63.8978C57.8554 64.0316 58.0208 64.1848 58.0741 64.3574L60.0192 64.3771C60.1603 64.378 60.2852 64.3894 60.3921 64.4116C60.5007 64.4337 60.5533 64.4617 60.5535 64.4957L60.5543 64.6557L58.0537 64.6317C57.966 64.8277 57.7425 65.007 57.3832 65.1697C57.0258 65.3325 56.5687 65.4733 56.0121 65.5925L55.1013 65.4658C55.0199 65.4535 54.9529 65.4376 54.9003 65.4183C54.8478 65.3992 54.8223 65.3784 54.8222 65.3557C54.8221 65.3249 54.8924 65.2898 55.0334 65.2504C55.1743 65.2109 55.3333 65.1619 55.5103 65.1037C55.6873 65.0455 55.8607 64.9768 56.0322 64.8974C56.2019 64.8182 56.3154 64.7235 56.3745 64.6133L50.4723 64.5548C50.3172 64.6688 50.1423 64.7808 49.951 64.8909C49.758 65.001 49.5033 65.1001 49.1853 65.1881C48.8673 65.2761 48.4714 65.3476 47.9977 65.4026C47.5221 65.4574 46.9269 65.4866 46.2068 65.4901C45.6658 65.4928 45.1392 65.4722 44.6234 65.4288C44.1075 65.3852 43.6494 65.3199 43.2491 65.233C42.8488 65.146 42.5208 65.0385 42.2633 64.9104C42.0075 64.7822 41.8639 64.6351 41.8341 64.4687L40.2327 64.4522C40.0916 64.4514 39.9667 64.4403 39.8544 64.419C39.744 64.3976 39.6877 64.3693 39.6876 64.3338L39.6867 64.1737L41.8761 64.1945C41.973 64.0259 42.1713 63.8789 42.4747 63.7538C42.778 63.6286 43.1484 63.5172 43.5858 63.4198L44.319 63.5204C44.5418 63.5516 44.6523 63.5882 44.6525 63.6302C44.6526 63.6529 44.6075 63.681 44.5154 63.7146C44.4215 63.7482 44.3131 63.7884 44.1867 63.835C44.0621 63.8818 43.9393 63.9365 43.822 63.9994C43.7029 64.0622 43.6146 64.1333 43.5553 64.2129L48.9365 64.2664ZM43.535 64.4845C43.5789 64.5895 43.677 64.6798 43.8258 64.7558C43.9745 64.8321 44.1594 64.8945 44.3821 64.9435C44.6049 64.9926 44.8548 65.0284 45.1317 65.0514C45.4105 65.0743 45.7018 65.0851 46.0058 65.0836C46.3604 65.0819 46.6697 65.0665 46.9338 65.0378C47.196 65.0089 47.4274 64.9699 47.628 64.9204C47.8267 64.8708 48.002 64.8135 48.15 64.748C48.2981 64.6826 48.4298 64.6117 48.5488 64.5351L43.535 64.4845ZM56.3841 64.3413C56.3401 64.235 56.2329 64.1418 56.0661 64.0617C55.8992 63.9817 55.6854 63.9143 55.4264 63.8599C55.1674 63.8053 54.865 63.7647 54.5193 63.7382C54.1754 63.7116 53.7954 63.6993 53.3793 63.7013C53.0102 63.7032 52.69 63.7197 52.4242 63.7508C52.1584 63.7821 51.927 63.8239 51.73 63.8768C51.5348 63.9295 51.3669 63.9909 51.2315 64.061C51.0943 64.1312 50.9663 64.2062 50.8491 64.2861L56.3841 64.3413Z" fill="#FCB048"/>
<path d="M50.5713 62.1435C42.8688 62.1435 34.8487 62.8208 33.5659 64.1321C33.6161 64.1784 33.6628 64.2278 33.7061 64.2797C34.7874 63.3692 41.4097 62.4526 50.5713 62.4526C59.9681 62.4526 66.6967 63.417 67.5117 64.3498C67.5517 64.2987 67.5945 64.2497 67.6409 64.2036C66.5813 62.8459 58.4107 62.1435 50.5713 62.1435Z" fill="url(#paint24_linear_111_6596)"/>
<path d="M35.8086 60.1191V63.9484C35.8086 65.1858 43.5428 66.1889 53.0835 66.1889C62.6241 66.1889 70.3583 65.1858 70.3583 63.9484V60.1191H35.8086Z" fill="url(#paint25_linear_111_6596)"/>
<path d="M53.0839 62.3597C62.6246 62.3597 70.3588 61.3566 70.3588 60.1192C70.3588 58.8818 62.6246 57.8787 53.0839 57.8787C43.5433 57.8787 35.8091 58.8818 35.8091 60.1192C35.8091 61.3566 43.5433 62.3597 53.0839 62.3597Z" fill="url(#paint26_linear_111_6596)"/>
<path d="M53.0836 62.5142C44.6341 62.5142 35.7987 61.7076 35.7987 60.1519C35.7987 60.0665 35.8292 59.9163 35.9146 59.9163C36.0001 59.9163 35.9634 60.0337 35.9634 60.1192C35.9634 61.1058 42.9944 62.205 53.0835 62.205C63.1726 62.205 70.2037 61.1058 70.2037 60.1192C70.2037 60.0338 70.2183 59.9537 70.3037 59.9537C70.3892 59.9537 70.3686 60.0677 70.3686 60.1531C70.3687 61.7089 61.533 62.5142 53.0836 62.5142Z" fill="url(#paint27_linear_111_6596)"/>
<path d="M51.4513 60.2439C51.6208 60.1267 51.8012 60.0111 51.9942 59.8969C52.1854 59.7828 52.4346 59.6797 52.7363 59.5877C53.0399 59.4956 53.4195 59.4207 53.8751 59.3627C54.3308 59.3046 54.9006 59.274 55.5808 59.2706C56.2485 59.2673 56.8746 59.2885 57.4611 59.3342C58.0457 59.3797 58.5617 59.448 59.0072 59.5388C59.451 59.6296 59.8134 59.7419 60.0927 59.8753C60.3702 60.0092 60.5356 60.1623 60.5889 60.3349L62.534 60.3546C62.6751 60.3555 62.8001 60.3669 62.9069 60.3891C63.0156 60.4113 63.0682 60.4393 63.0683 60.4732L63.0691 60.6333L60.5685 60.6092C60.4808 60.8052 60.2574 60.9846 59.8981 61.1472C59.5407 61.31 59.0836 61.4508 58.5269 61.57L57.6162 61.4433C57.5347 61.4309 57.4677 61.415 57.4151 61.3958C57.3626 61.3767 57.3371 61.3559 57.337 61.3332C57.3369 61.3024 57.4073 61.2674 57.5482 61.228C57.6892 61.1884 57.8481 61.1394 58.0251 61.0811C58.2021 61.023 58.3755 60.9543 58.547 60.8749C58.7167 60.7957 58.8302 60.701 58.8894 60.5908L52.9871 60.5323C52.832 60.6463 52.6571 60.7583 52.4658 60.8684C52.2728 60.9785 52.0181 61.0776 51.7001 61.1656C51.3821 61.2537 50.9862 61.3251 50.5125 61.3801C50.0369 61.4349 49.4418 61.4641 48.7217 61.4677C48.1807 61.4703 47.6541 61.4498 47.1382 61.4064C46.6223 61.3627 46.1643 61.2975 45.764 61.2106C45.3637 61.1236 45.0357 61.016 44.7781 60.888C44.5224 60.7597 44.3788 60.6127 44.349 60.4462L42.7477 60.4298C42.6065 60.4289 42.4816 60.4179 42.3694 60.3965C42.2589 60.3751 42.2027 60.3468 42.2025 60.3113L42.2017 60.1512L44.3911 60.172C44.4879 60.0034 44.6863 59.8564 44.9896 59.7314C45.293 59.6061 45.6633 59.4948 46.1007 59.3973L46.834 59.4979C47.0567 59.5292 47.1672 59.5658 47.1675 59.6078C47.1676 59.6305 47.1225 59.6585 47.0303 59.6921C46.9364 59.7257 46.8281 59.766 46.7016 59.8126C46.577 59.8594 46.4542 59.914 46.3369 59.977C46.2178 60.0397 46.1295 60.1108 46.0702 60.1905L51.4513 60.2439ZM46.0498 60.4621C46.0937 60.5671 46.1918 60.6574 46.3406 60.7334C46.4894 60.8097 46.6742 60.8721 46.8969 60.9212C47.1197 60.9702 47.3696 61.0061 47.6466 61.029C47.9253 61.0519 48.2166 61.0628 48.5206 61.0613C48.8752 61.0595 49.1845 61.0442 49.4485 61.0154C49.7108 60.9865 49.9422 60.9475 50.1428 60.8979C50.3416 60.8484 50.5168 60.7911 50.6648 60.7257C50.8129 60.6602 50.9446 60.5893 51.0636 60.5127L46.0498 60.4621ZM58.8989 60.319C58.855 60.2126 58.7477 60.1194 58.5809 60.0392C58.414 59.9593 58.2002 59.8919 57.9411 59.8375C57.6822 59.7829 57.3798 59.7424 57.0341 59.7158C56.6902 59.6893 56.3102 59.6769 55.894 59.679C55.5249 59.6808 55.2048 59.6973 54.939 59.7284C54.6731 59.7597 54.4417 59.8015 54.2448 59.8544C54.0496 59.9071 53.8816 59.9684 53.7463 60.0386C53.6091 60.1088 53.481 60.1838 53.3638 60.2637L58.8989 60.319Z" fill="#FCB048"/>
<path d="M53.086 58.121C45.3834 58.121 37.3633 58.7984 36.0805 60.1097C36.1307 60.1559 36.1774 60.2052 36.2207 60.2572C37.302 59.3468 43.9243 58.4301 53.086 58.4301C62.4828 58.4301 69.2113 59.3945 70.0263 60.3274C70.0664 60.2762 70.1092 60.2272 70.1556 60.1811C69.0959 58.8234 60.9253 58.121 53.086 58.121Z" fill="url(#paint28_linear_111_6596)"/>
<path d="M39.2774 81.7728C39.0473 81.7728 38.8351 81.6404 38.7352 81.429L28.0762 58.8965C27.9343 58.5965 28.0621 58.238 28.3616 58.0956C28.6609 57.9541 29.0194 58.0812 29.1612 58.3816L39.64 80.5331L77.4 76.9371C77.7347 76.9054 78.0231 77.1485 78.0544 77.4788C78.0858 77.8093 77.8437 78.1029 77.5137 78.1343L39.3346 81.7702C39.3155 81.7719 39.2965 81.7728 39.2774 81.7728Z" fill="#C1CAD4"/>
<path d="M39.2782 81.773C39.2296 81.773 39.1806 81.7671 39.1314 81.7548L24.0699 77.9671C23.9078 77.9263 23.7698 77.8197 23.6895 77.6726L10.5288 53.5868C10.3697 53.2956 10.4766 52.9301 10.7674 52.7707C11.0584 52.6119 11.4231 52.7187 11.5822 53.0097L24.6168 76.865L39.4239 80.5887C39.7454 80.6694 39.9406 80.9962 39.8597 81.3182C39.7914 81.591 39.5467 81.773 39.2782 81.773Z" fill="#C1CAD4"/>
<path d="M32.4954 67.4358C32.4383 67.4358 32.3814 67.4276 32.3266 67.4115L15.7856 62.5555C15.4675 62.4622 15.2852 62.1281 15.3784 61.8095C15.4713 61.491 15.8067 61.3081 16.1232 61.4018L32.5558 66.2258L81.3992 61.9593C81.7351 61.9261 82.0206 62.1754 82.0493 62.506C82.0783 62.8368 81.8339 63.1283 81.5035 63.1571L32.5476 67.4336C32.5303 67.435 32.5127 67.4358 32.4954 67.4358Z" fill="#C1CAD4"/>
<path d="M36.5368 75.9786C36.4823 75.9786 36.4277 75.9713 36.375 75.9563L20.5283 71.5099C20.2089 71.4203 20.0227 71.0886 20.1121 70.7689C20.2015 70.4489 20.5327 70.2619 20.8519 70.352L36.5934 74.7688L79.0069 71.0525C79.3364 71.0176 79.6283 71.2683 79.657 71.5992C79.6861 71.9297 79.4416 72.2215 79.1113 72.2503L36.5889 75.9763C36.5717 75.9778 36.5541 75.9786 36.5368 75.9786Z" fill="#C1CAD4"/>
<path d="M47.0735 81.0309C46.815 81.0309 46.5761 80.8621 46.4984 80.6011L39.7007 57.7588C39.6061 57.4406 39.7869 57.1056 40.1046 57.0108C40.4212 56.9157 40.7565 57.0968 40.8515 57.4153L47.6491 80.2576C47.7438 80.5758 47.5629 80.9108 47.2452 81.0056C47.1881 81.0227 47.1303 81.0309 47.0735 81.0309Z" fill="#C1CAD4"/>
<path d="M54.5928 80.3146C54.3067 80.3146 54.0535 80.1094 54.0022 79.8178L49.9251 56.6755C49.8677 56.3485 50.0854 56.0367 50.412 55.9789C50.7373 55.9219 51.0501 56.1398 51.1075 56.4665L55.1846 79.6088C55.242 79.9359 55.0242 80.2477 54.6977 80.3055C54.6626 80.3116 54.6274 80.3146 54.5928 80.3146Z" fill="#C1CAD4"/>
<path d="M63.0734 79.3477C62.7571 79.3477 62.4925 79.1002 62.4746 78.7802L61.1896 55.8015C61.1711 55.4697 61.4244 55.1858 61.7553 55.1674C62.0886 55.1544 62.3699 55.4025 62.3884 55.734L63.6734 78.7127C63.6919 79.0445 63.4387 79.3283 63.1077 79.3468C63.0962 79.3474 63.0848 79.3477 63.0734 79.3477Z" fill="#C1CAD4"/>
<path d="M71.1093 78.4468C71.0988 78.4468 71.0879 78.4465 71.0774 78.4459C70.7462 78.4286 70.4921 78.1456 70.5094 77.8141L71.7319 54.4687C71.7492 54.1372 72.0286 53.8827 72.3627 53.8997C72.6939 53.917 72.948 54.2 72.9307 54.5315L71.7082 77.8769C71.6914 78.1978 71.4265 78.4468 71.1093 78.4468Z" fill="#C1CAD4"/>
<path d="M34.7228 80.6272C34.4995 80.6272 34.2849 80.5019 34.1815 80.2867L23.1951 57.4148C23.0511 57.1156 23.1769 56.7563 23.4755 56.6124C23.7739 56.4689 24.1333 56.5945 24.2769 56.8934L35.2633 79.7653C35.4072 80.0644 35.2814 80.4238 34.9828 80.568C34.899 80.6082 34.8102 80.6272 34.7228 80.6272Z" fill="#C1CAD4"/>
<path d="M28.6192 79.0922C28.3988 79.0922 28.1866 78.9703 28.0816 78.7595L16.4193 55.3609C16.271 55.0639 16.3914 54.7027 16.6881 54.5545C16.9853 54.4053 17.3458 54.5269 17.4932 54.8237L29.1556 78.2223C29.3039 78.5194 29.1834 78.8804 28.8868 79.0287C28.8006 79.0719 28.7092 79.0922 28.6192 79.0922Z" fill="#C1CAD4"/>
<path d="M41.8127 102.921C41.7371 102.921 41.662 102.906 41.5914 102.878L19.8639 94.2415C19.5556 94.1188 19.4049 93.7694 19.5271 93.4609C19.6494 93.1521 19.9988 93.0012 20.3065 93.1236L41.8918 101.704L68.1017 98.4971C69.9674 98.269 71.4953 96.9486 71.9948 95.1337L86.3624 42.8902C87.0181 40.5058 89.1132 38.7837 91.5758 38.6049L99.1992 38.0512C99.5263 38.0321 99.8173 38.2761 99.8414 38.6075C99.8651 38.9387 99.6165 39.2267 99.2859 39.2507L91.6626 39.8044C89.7055 39.9462 88.0407 41.3145 87.5196 43.2095L73.1519 95.453C72.5229 97.7397 70.5978 99.403 68.2471 99.6908L41.8854 102.916C41.8614 102.919 41.837 102.921 41.8127 102.921Z" fill="#C1CAD4"/>
<path d="M76.2717 3.68027L23.7853 0.849082C19.4621 0.615899 15.939 3.80352 15.939 7.97014V36.7756C15.939 40.9422 19.4621 44.4068 23.7853 44.5135L40.9446 44.9369L48.9524 54.4152C49.4352 54.9866 50.2801 55.0797 50.8753 54.6269L58.5765 45.372L76.2717 45.8086C80.2733 45.9074 83.5009 42.7615 83.5009 38.7826V11.2746C83.5009 7.29575 80.2732 3.8961 76.2717 3.68027Z" fill="url(#paint29_linear_111_6596)"/>
<path d="M77.3162 2.84321L24.8298 0.0120198C20.5066 -0.221163 16.9836 2.96646 16.9836 7.13308V35.9385C16.9836 40.1051 20.5066 43.5697 24.8298 43.6764L41.9892 44.0999L49.8015 53.3467C50.3574 54.0047 51.3678 54.0122 51.9335 53.3626L59.6211 44.5349L77.3162 44.9716C81.3179 45.0703 84.5455 41.9244 84.5455 37.9455V10.4376C84.5455 6.45869 81.3179 3.05904 77.3162 2.84321Z" fill="url(#paint30_linear_111_6596)"/>
<path d="M68.7986 19.9689C68.5085 14.5168 64.8094 9.93622 60.2025 9.35631C56.5385 8.89511 53.2783 10.9696 51.5429 14.3258C49.8033 10.8045 46.5129 8.40351 42.7796 8.50545C38.0317 8.6351 34.175 12.9529 33.871 18.5092C33.67 22.1806 35.0002 25.555 37.1841 27.8298L50.5864 38.7636C51.1654 39.2358 51.9203 39.2571 52.4981 38.818L65.6257 28.8421C67.7202 26.768 68.9902 23.5692 68.7986 19.9689Z" fill="white"/>
<defs>
<linearGradient id="paint0_linear_111_6596" x1="17.9534" y1="95.0272" x2="19.2215" y2="96.0918" gradientUnits="userSpaceOnUse">
<stop stop-color="#AA80F9"/>
<stop offset="0.9964" stop-color="#6165D7"/>
</linearGradient>
<linearGradient id="paint1_linear_111_6596" x1="18.7746" y1="97.4502" x2="23.3528" y2="97.4502" gradientUnits="userSpaceOnUse">
<stop stop-color="#AA80F9"/>
<stop offset="0.9964" stop-color="#6165D7"/>
</linearGradient>
<linearGradient id="paint2_linear_111_6596" x1="20.1043" y1="97.5109" x2="22.0227" y2="97.5109" gradientUnits="userSpaceOnUse">
<stop stop-color="#40447E"/>
<stop offset="0.9964" stop-color="#3C3B6B"/>
</linearGradient>
<linearGradient id="paint3_linear_111_6596" x1="42.4607" y1="92.3823" x2="43.7288" y2="93.447" gradientUnits="userSpaceOnUse">
<stop stop-color="#AA80F9"/>
<stop offset="0.9964" stop-color="#6165D7"/>
</linearGradient>
<linearGradient id="paint4_linear_111_6596" x1="43.2821" y1="94.8051" x2="47.8602" y2="94.8051" gradientUnits="userSpaceOnUse">
<stop stop-color="#AA80F9"/>
<stop offset="0.9964" stop-color="#6165D7"/>
</linearGradient>
<linearGradient id="paint5_linear_111_6596" x1="44.6118" y1="94.8661" x2="46.5301" y2="94.8661" gradientUnits="userSpaceOnUse">
<stop stop-color="#40447E"/>
<stop offset="0.9964" stop-color="#3C3B6B"/>
</linearGradient>
<linearGradient id="paint6_linear_111_6596" x1="78.2909" y1="37.8377" x2="100.443" y2="37.8377" gradientUnits="userSpaceOnUse">
<stop stop-color="#40447E"/>
<stop offset="0.9964" stop-color="#3C3B6B"/>
</linearGradient>
<linearGradient id="paint7_linear_111_6596" x1="39.455" y1="103.253" x2="40.7231" y2="104.317" gradientUnits="userSpaceOnUse">
<stop stop-color="#AA80F9"/>
<stop offset="0.9964" stop-color="#6165D7"/>
</linearGradient>
<linearGradient id="paint8_linear_111_6596" x1="40.2762" y1="105.676" x2="44.8543" y2="105.676" gradientUnits="userSpaceOnUse">
<stop stop-color="#AA80F9"/>
<stop offset="0.9964" stop-color="#6165D7"/>
</linearGradient>
<linearGradient id="paint9_linear_111_6596" x1="41.6059" y1="105.736" x2="43.5242" y2="105.736" gradientUnits="userSpaceOnUse">
<stop stop-color="#40447E"/>
<stop offset="0.9964" stop-color="#3C3B6B"/>
</linearGradient>
<linearGradient id="paint10_linear_111_6596" x1="60.6731" y1="101.125" x2="61.9412" y2="102.19" gradientUnits="userSpaceOnUse">
<stop stop-color="#AA80F9"/>
<stop offset="0.9964" stop-color="#6165D7"/>
</linearGradient>
<linearGradient id="paint11_linear_111_6596" x1="61.4944" y1="103.548" x2="66.0725" y2="103.548" gradientUnits="userSpaceOnUse">
<stop stop-color="#AA80F9"/>
<stop offset="0.9964" stop-color="#6165D7"/>
</linearGradient>
<linearGradient id="paint12_linear_111_6596" x1="62.8239" y1="103.609" x2="64.7422" y2="103.609" gradientUnits="userSpaceOnUse">
<stop stop-color="#40447E"/>
<stop offset="0.9964" stop-color="#3C3B6B"/>
</linearGradient>
<linearGradient id="paint13_linear_111_6596" x1="30.9989" y1="75.2091" x2="70.7463" y2="75.2091" gradientUnits="userSpaceOnUse">
<stop stop-color="#FCB148"/>
<stop offset="0.0521" stop-color="#FDBA46"/>
<stop offset="0.1424" stop-color="#FFC244"/>
<stop offset="0.3183" stop-color="#FFC444"/>
<stop offset="0.4849" stop-color="#FDB946"/>
<stop offset="0.7754" stop-color="#F99C4D"/>
<stop offset="0.8658" stop-color="#F8924F"/>
<stop offset="1" stop-color="#F8924F"/>
</linearGradient>
<linearGradient id="paint14_linear_111_6596" x1="51.0556" y1="70.733" x2="53.1552" y2="88.2814" gradientUnits="userSpaceOnUse">
<stop stop-color="#FFDB44"/>
<stop offset="1" stop-color="#FEEF06"/>
</linearGradient>
<linearGradient id="paint15_linear_111_6596" x1="50.9646" y1="69.9484" x2="51.6096" y2="75.3398" gradientUnits="userSpaceOnUse">
<stop stop-color="#FFDB44"/>
<stop offset="1" stop-color="#FEEF06"/>
</linearGradient>
<linearGradient id="paint16_linear_111_6596" x1="51.5693" y1="74.7774" x2="50.9265" y2="69.4045" gradientUnits="userSpaceOnUse">
<stop offset="0.0036" stop-color="#F36F56"/>
<stop offset="0.3059" stop-color="#F99C4C"/>
<stop offset="0.545" stop-color="#FDB946"/>
<stop offset="0.6817" stop-color="#FFC444"/>
<stop offset="0.8038" stop-color="#FFC244"/>
<stop offset="0.8667" stop-color="#FEBA46"/>
<stop offset="0.916" stop-color="#FCAD49"/>
<stop offset="0.958" stop-color="#F99A4D"/>
<stop offset="0.9955" stop-color="#F58152"/>
<stop offset="1" stop-color="#F57E53"/>
</linearGradient>
<linearGradient id="paint17_linear_111_6596" x1="26.1966" y1="71.1867" x2="65.9439" y2="71.1867" gradientUnits="userSpaceOnUse">
<stop stop-color="#FCB148"/>
<stop offset="0.0521" stop-color="#FDBA46"/>
<stop offset="0.1424" stop-color="#FFC244"/>
<stop offset="0.3183" stop-color="#FFC444"/>
<stop offset="0.4849" stop-color="#FDB946"/>
<stop offset="0.7754" stop-color="#F99C4D"/>
<stop offset="0.8658" stop-color="#F8924F"/>
<stop offset="1" stop-color="#F8924F"/>
</linearGradient>
<linearGradient id="paint18_linear_111_6596" x1="46.2535" y1="66.7106" x2="48.353" y2="84.2589" gradientUnits="userSpaceOnUse">
<stop stop-color="#FFDB44"/>
<stop offset="1" stop-color="#FEEF06"/>
</linearGradient>
<linearGradient id="paint19_linear_111_6596" x1="46.1622" y1="65.926" x2="46.8073" y2="71.3174" gradientUnits="userSpaceOnUse">
<stop stop-color="#FFDB44"/>
<stop offset="1" stop-color="#FEEF06"/>
</linearGradient>
<linearGradient id="paint20_linear_111_6596" x1="46.7671" y1="70.7551" x2="46.1242" y2="65.3823" gradientUnits="userSpaceOnUse">
<stop offset="0.0036" stop-color="#F36F56"/>
<stop offset="0.3059" stop-color="#F99C4C"/>
<stop offset="0.545" stop-color="#FDB946"/>
<stop offset="0.6817" stop-color="#FFC444"/>
<stop offset="0.8038" stop-color="#FFC244"/>
<stop offset="0.8667" stop-color="#FEBA46"/>
<stop offset="0.916" stop-color="#FCAD49"/>
<stop offset="0.958" stop-color="#F99A4D"/>
<stop offset="0.9955" stop-color="#F58152"/>
<stop offset="1" stop-color="#F57E53"/>
</linearGradient>
<linearGradient id="paint21_linear_111_6596" x1="30.3403" y1="67.1765" x2="70.0876" y2="67.1765" gradientUnits="userSpaceOnUse">
<stop stop-color="#FCB148"/>
<stop offset="0.0521" stop-color="#FDBA46"/>
<stop offset="0.1424" stop-color="#FFC244"/>
<stop offset="0.3183" stop-color="#FFC444"/>
<stop offset="0.4849" stop-color="#FDB946"/>
<stop offset="0.7754" stop-color="#F99C4D"/>
<stop offset="0.8658" stop-color="#F8924F"/>
<stop offset="1" stop-color="#F8924F"/>
</linearGradient>
<linearGradient id="paint22_linear_111_6596" x1="50.3976" y1="62.7001" x2="52.4971" y2="80.2485" gradientUnits="userSpaceOnUse">
<stop stop-color="#FFDB44"/>
<stop offset="1" stop-color="#FEEF06"/>
</linearGradient>
<linearGradient id="paint23_linear_111_6596" x1="50.306" y1="61.9153" x2="50.951" y2="67.3067" gradientUnits="userSpaceOnUse">
<stop stop-color="#FFDB44"/>
<stop offset="1" stop-color="#FEEF06"/>
</linearGradient>
<linearGradient id="paint24_linear_111_6596" x1="50.9107" y1="66.7445" x2="50.2678" y2="61.3716" gradientUnits="userSpaceOnUse">
<stop offset="0.0036" stop-color="#F36F56"/>
<stop offset="0.3059" stop-color="#F99C4C"/>
<stop offset="0.545" stop-color="#FDB946"/>
<stop offset="0.6817" stop-color="#FFC444"/>
<stop offset="0.8038" stop-color="#FFC244"/>
<stop offset="0.8667" stop-color="#FEBA46"/>
<stop offset="0.916" stop-color="#FCAD49"/>
<stop offset="0.958" stop-color="#F99A4D"/>
<stop offset="0.9955" stop-color="#F58152"/>
<stop offset="1" stop-color="#F57E53"/>
</linearGradient>
<linearGradient id="paint25_linear_111_6596" x1="32.855" y1="63.154" x2="72.6023" y2="63.154" gradientUnits="userSpaceOnUse">
<stop stop-color="#FCB148"/>
<stop offset="0.0521" stop-color="#FDBA46"/>
<stop offset="0.1424" stop-color="#FFC244"/>
<stop offset="0.3183" stop-color="#FFC444"/>
<stop offset="0.4849" stop-color="#FDB946"/>
<stop offset="0.7754" stop-color="#F99C4D"/>
<stop offset="0.8658" stop-color="#F8924F"/>
<stop offset="1" stop-color="#F8924F"/>
</linearGradient>
<linearGradient id="paint26_linear_111_6596" x1="52.912" y1="58.6779" x2="55.0116" y2="76.2262" gradientUnits="userSpaceOnUse">
<stop stop-color="#FFDB44"/>
<stop offset="1" stop-color="#FEEF06"/>
</linearGradient>
<linearGradient id="paint27_linear_111_6596" x1="52.8205" y1="57.8931" x2="53.4655" y2="63.2845" gradientUnits="userSpaceOnUse">
<stop stop-color="#FFDB44"/>
<stop offset="1" stop-color="#FEEF06"/>
</linearGradient>
<linearGradient id="paint28_linear_111_6596" x1="53.4253" y1="62.722" x2="52.7825" y2="57.3492" gradientUnits="userSpaceOnUse">
<stop offset="0.0036" stop-color="#F36F56"/>
<stop offset="0.3059" stop-color="#F99C4C"/>
<stop offset="0.545" stop-color="#FDB946"/>
<stop offset="0.6817" stop-color="#FFC444"/>
<stop offset="0.8038" stop-color="#FFC244"/>
<stop offset="0.8667" stop-color="#FEBA46"/>
<stop offset="0.916" stop-color="#FCAD49"/>
<stop offset="0.958" stop-color="#F99A4D"/>
<stop offset="0.9955" stop-color="#F58152"/>
<stop offset="1" stop-color="#F57E53"/>
</linearGradient>
<linearGradient id="paint29_linear_111_6596" x1="32.176" y1="-4.22953" x2="60.2826" y2="40.8864" gradientUnits="userSpaceOnUse">
<stop stop-color="#311944"/>
<stop offset="1" stop-color="#893976"/>
</linearGradient>
<linearGradient id="paint30_linear_111_6596" x1="33.2205" y1="-5.0666" x2="61.3271" y2="40.0493" gradientUnits="userSpaceOnUse">
<stop stop-color="#FF9085"/>
<stop offset="1" stop-color="#FB6FBB"/>
</linearGradient>
</defs>
</svg>
