<svg width="661" height="166" viewBox="0 0 661 166" fill="none" xmlns="http://www.w3.org/2000/svg">
<g filter="url(#filter0_d_213_14223)">
<path d="M16.4614 12.0003C16.4614 5.37272 21.8341 0 28.4617 0H584.538C587.163 0 589.717 0.86123 591.806 2.45164L656.201 51.4691C666.781 59.5223 658.358 76.2481 645.588 72.5427L603.93 60.4542C596.253 58.2266 588.585 63.9857 588.585 71.9791V134.004C588.585 140.631 583.213 146.004 576.585 146.004H28.4617C21.8341 146.004 16.4614 140.631 16.4614 134.004V12.0003Z" fill="white"/>
<path d="M16.4614 12.0003C16.4614 5.37272 21.8341 0 28.4617 0H584.538C587.163 0 589.717 0.86123 591.806 2.45164L656.201 51.4691C666.781 59.5223 658.358 76.2481 645.588 72.5427L603.93 60.4542C596.253 58.2266 588.585 63.9857 588.585 71.9791V134.004C588.585 140.631 583.213 146.004 576.585 146.004H28.4617C21.8341 146.004 16.4614 140.631 16.4614 134.004V12.0003Z" fill="url(#paint0_linear_213_14223)" fill-opacity="0.2"/>
<path d="M16.4614 12.0003C16.4614 5.37272 21.8341 0 28.4617 0H584.538C587.163 0 589.717 0.86123 591.806 2.45164L656.201 51.4691C666.781 59.5223 658.358 76.2481 645.588 72.5427L603.93 60.4542C596.253 58.2266 588.585 63.9857 588.585 71.9791V134.004C588.585 140.631 583.213 146.004 576.585 146.004H28.4617C21.8341 146.004 16.4614 140.631 16.4614 134.004V12.0003Z" fill="url(#paint1_linear_213_14223)" fill-opacity="0.82"/>
<path d="M16.4614 12.0003C16.4614 5.37272 21.8341 0 28.4617 0H584.538C587.163 0 589.717 0.86123 591.806 2.45164L656.201 51.4691C666.781 59.5223 658.358 76.2481 645.588 72.5427L603.93 60.4542C596.253 58.2266 588.585 63.9857 588.585 71.9791V134.004C588.585 140.631 583.213 146.004 576.585 146.004H28.4617C21.8341 146.004 16.4614 140.631 16.4614 134.004V12.0003Z" fill="#FF3B68" fill-opacity="0.38"/>
<path d="M28.4617 2.00005H584.538C586.726 2.00016 588.854 2.71784 590.595 4.04308L654.99 53.061C663.806 59.7721 656.787 73.7093 646.146 70.622L604.487 58.5338C595.531 55.9352 586.585 62.654 586.585 71.9795V134.004C586.585 139.527 582.108 144.004 576.585 144.004H28.4617C22.9387 144.004 18.4614 139.527 18.4614 134.004V12.0003C18.4614 6.47733 22.9387 2.00005 28.4617 2.00005Z" stroke="white" stroke-width="4"/>
</g>
<defs>
<filter id="filter0_d_213_14223" x="0.000619905" y="0" width="660.999" height="165.465" filterUnits="userSpaceOnUse" color-interpolation-filters="sRGB">
<feFlood flood-opacity="0" result="BackgroundImageFix"/>
<feColorMatrix in="SourceAlpha" type="matrix" values="0 0 0 0 0 0 0 0 0 0 0 0 0 0 0 0 0 0 127 0" result="hardAlpha"/>
<feOffset dx="-9" dy="12"/>
<feGaussianBlur stdDeviation="3.73016"/>
<feComposite in2="hardAlpha" operator="out"/>
<feColorMatrix type="matrix" values="0 0 0 0 0.480769 0 0 0 0 0.480769 0 0 0 0 0.480769 0 0 0 0.23 0"/>
<feBlend mode="normal" in2="BackgroundImageFix" result="effect1_dropShadow_213_14223"/>
<feBlend mode="normal" in="SourceGraphic" in2="effect1_dropShadow_213_14223" result="shape"/>
</filter>
<linearGradient id="paint0_linear_213_14223" x1="16.4614" y1="73.0019" x2="707.48" y2="73.0019" gradientUnits="userSpaceOnUse">
<stop stop-color="#CC305E"/>
<stop offset="1" stop-color="#CC305E" stop-opacity="0"/>
</linearGradient>
<linearGradient id="paint1_linear_213_14223" x1="16.4614" y1="73.002" x2="707.48" y2="73.002" gradientUnits="userSpaceOnUse">
<stop stop-color="#F63D68" stop-opacity="0"/>
<stop offset="1" stop-color="#F63D68"/>
</linearGradient>
</defs>
</svg>
