<svg width="1103" height="544" viewBox="0 0 1103 544" fill="none" xmlns="http://www.w3.org/2000/svg">
<path d="M1086.95 259.336C1070.3 220.181 1044.94 183.422 1028.89 144.12C1010.4 98.8188 1000.21 45.5743 948.596 19.2086C912.603 0.821386 866.149 1.23549 822.879 2.21279C701.762 4.94789 580.514 6.93128 459.453 3.01299C380.34 0.452662 299.943 -4.54302 222.868 9.34044C145.793 23.2234 70.7436 60.0013 43.4583 116.834C26.2315 152.717 29.6322 192.127 30.0728 230.349C30.8868 300.911 20.77 371.544 0 440.299L16.4339 465.145C22.4499 445.474 54.8835 436.309 80.376 441.62C105.869 446.932 125.389 462.29 142.786 477.495C160.183 492.7 177.715 508.928 201.874 517.109C275.86 542.163 360.933 479.666 438.053 498.401C467.873 505.645 490.701 524.016 518.736 534.638C576.342 556.465 654.174 538.683 686.671 496.271C700.895 477.705 706.894 455.93 721.713 437.638C750.768 401.774 814.932 385.31 866.404 400.512C900.461 410.571 927.884 432.321 963.455 438.614C1015.92 447.897 1070.47 418.409 1090.74 380.267C1111.01 342.124 1103.59 298.492 1086.95 259.336Z" fill="url(#paint0_linear_213_14221)" style="mix-blend-mode:multiply"/>
<defs>
<linearGradient id="paint0_linear_213_14221" x1="349.036" y1="710.364" x2="433.58" y2="404.138" gradientUnits="userSpaceOnUse">
<stop/>
<stop offset="0.015" stop-color="#0A0A0A"/>
<stop offset="0.09" stop-color="#3D3D3D"/>
<stop offset="0.171" stop-color="#6B6B6B"/>
<stop offset="0.255" stop-color="#939393"/>
<stop offset="0.344" stop-color="#B4B4B4"/>
<stop offset="0.439" stop-color="#CFCFCF"/>
<stop offset="0.541" stop-color="#E4E4E4"/>
<stop offset="0.655" stop-color="#F3F3F3"/>
<stop offset="0.79" stop-color="#FCFCFC"/>
<stop offset="1" stop-color="white"/>
</linearGradient>
</defs>
</svg>
