<svg width="64" height="60" viewBox="0 0 64 60" fill="none" xmlns="http://www.w3.org/2000/svg">
<path d="M1.33113 59.7846C1.27016 59.7846 1.20898 59.7805 1.14801 59.7722C0.419439 59.6702 -0.0884659 58.9947 0.0128758 58.2629L3.25864 34.6838C3.35857 33.9526 4.02111 33.443 4.75755 33.5415C5.48612 33.6434 5.99405 34.319 5.89271 35.0508L2.64714 58.6299C2.55489 59.2996 1.9848 59.7844 1.33133 59.7844L1.33113 59.7846Z" fill="white"/>
<path d="M31.435 54.1628C30.9232 54.1628 30.4361 53.8642 30.2167 53.3629L20.6835 31.576C20.3873 30.8997 20.6926 30.1098 21.364 29.8126C22.0431 29.5108 22.8214 29.8226 23.1173 30.4979L32.6505 52.285C32.9466 52.9612 32.6414 53.7511 31.97 54.0484C31.7948 54.1262 31.6127 54.1628 31.435 54.1628Z" fill="white"/>
<path d="M54.1292 33.4833C53.8694 33.4833 53.6058 33.407 53.3761 33.2467L33.9017 19.7332C33.2965 19.3137 33.1444 18.48 33.5613 17.8717C33.9782 17.2634 34.8069 17.1098 35.4109 17.5298L54.8851 31.0434C55.4903 31.4628 55.6423 32.2966 55.2254 32.9049C54.967 33.281 54.5514 33.4831 54.1292 33.4831V33.4833Z" fill="white"/>
<path d="M62.6704 3.89828C62.647 3.89828 62.6238 3.89769 62.6004 3.89647L38.9726 2.67396C38.24 2.63618 37.6752 2.00695 37.7127 1.26926C37.7503 0.530967 38.3803 -0.0348831 39.1103 0.00167626L62.738 1.22419C63.4707 1.26197 64.0355 1.89117 63.9979 2.62886C63.9614 3.34359 63.3731 3.89828 62.6704 3.89828Z" fill="white"/>
</svg>
