<svg width="65" height="61" viewBox="0 0 65 61" fill="none" xmlns="http://www.w3.org/2000/svg">
<path d="M60.3539 26.6673C60.292 26.6673 60.2299 26.6632 60.1679 26.6547C59.428 26.5511 58.9121 25.865 59.015 25.1218L62.3114 1.17279C62.4143 0.428919 63.1094 -0.0892757 63.8338 0.012836C64.5738 0.116185 65.0896 0.802499 64.9867 1.54575L61.6903 25.4947C61.5966 26.1749 61.0176 26.6673 60.3539 26.6673Z" fill="white"/>
<path d="M42.7562 30.5579C42.2364 30.5579 41.7416 30.2545 41.5188 29.7455L31.8376 7.61682C31.5368 6.92989 31.8468 6.12764 32.5288 5.82584C33.2175 5.51992 34.0089 5.83637 34.3095 6.52185L43.9907 28.6506C44.2915 29.3375 43.9814 30.1396 43.2995 30.4416C43.1215 30.5206 42.9368 30.5579 42.7562 30.5579Z" fill="white"/>
<path d="M29.8005 43.1566C29.5367 43.1566 29.2689 43.0788 29.0355 42.9163L9.25639 29.1912C8.64169 28.7652 8.4873 27.9184 8.9107 27.3006C9.3341 26.6828 10.1758 26.5268 10.789 26.9536L30.5682 40.6787C31.1829 41.1047 31.3373 41.9515 30.9139 42.5693C30.6512 42.9515 30.2291 43.1566 29.8005 43.1566Z" fill="white"/>
<path d="M25.3501 60.7215C25.3265 60.7215 25.3028 60.7209 25.279 60.7195L1.28142 59.4778C0.537349 59.4394 -0.0363401 58.8004 0.00179646 58.0511C0.0389079 57.3007 0.677184 56.7214 1.42126 56.7639L25.4188 58.0053C26.1629 58.0439 26.7366 58.683 26.6984 59.4322C26.6615 60.1581 26.0641 60.7215 25.3503 60.7215H25.3501Z" fill="white"/>
</svg>
