<svg width="1058" height="505" viewBox="0 0 1058 505" fill="none" xmlns="http://www.w3.org/2000/svg">
<path d="M165.281 259.195C192.777 281.57 206.483 316.713 230.699 342.597C261 374.985 308.096 390.747 351.804 383.127C382.295 377.812 409.83 362.241 438.27 350.034C466.709 337.826 498.618 328.787 528.372 337.306C564.699 347.705 588.635 381.066 612.307 410.5C635.979 439.935 667.369 469.664 705.101 467.621C743.045 465.568 773.796 431.51 811.776 430.325C843.467 429.335 870.612 451.234 895.467 470.906C920.321 490.579 950.309 510.2 981.351 503.748C1002.42 499.368 1019.58 483.205 1029.93 464.347C1040.28 445.488 1044.73 424.027 1048.3 402.818C1060.19 332.258 1063.65 258.82 1044.15 189.971C1024.65 121.123 979.635 57.1056 914.652 27.0607C862.53 2.96193 803.037 2.30911 745.608 2.0922C562.485 1.40004 379.361 0.708239 196.238 0.016429C150.015 -0.158003 100.625 0.583592 62.375 26.5204C25.1497 51.7622 5.62067 97.147 1.18383 141.884C-1.74654 171.432 1.13714 201.101 5.74505 230.318C10.2254 258.727 14.4958 270.681 42.131 257.427C82.5653 238.033 126.529 227.661 165.282 259.195L165.281 259.195Z" fill="url(#paint0_linear_213_14220)" style="mix-blend-mode:multiply"/>
<defs>
<linearGradient id="paint0_linear_213_14220" x1="415.837" y1="665.21" x2="546.253" y2="192.142" gradientUnits="userSpaceOnUse">
<stop/>
<stop offset="0.015" stop-color="#0A0A0A"/>
<stop offset="0.09" stop-color="#3D3D3D"/>
<stop offset="0.171" stop-color="#6B6B6B"/>
<stop offset="0.255" stop-color="#939393"/>
<stop offset="0.344" stop-color="#B4B4B4"/>
<stop offset="0.439" stop-color="#CFCFCF"/>
<stop offset="0.541" stop-color="#E4E4E4"/>
<stop offset="0.655" stop-color="#F3F3F3"/>
<stop offset="0.79" stop-color="#FCFCFC"/>
<stop offset="1" stop-color="white"/>
</linearGradient>
</defs>
</svg>
